SplineFontDB: 3.0
FontName: Padauk
FullName: Padauk
FamilyName: Padauk
Weight: Normal
Copyright: Copyright (c) 2002-2010 SIL International.
UComments: "2012-11-22: Created." 
Version: 6.000
ItalicAngle: 0
UnderlinePosition: -450
UnderlineWidth: 50
Ascent: 819
Descent: 205
LayerCount: 2
Layer: 0 0 "Back"  1
Layer: 1 0 "Fore"  0
XUID: [1021 988 686867477 13624295]
FSType: 0
OS2Version: 0
OS2_WeightWidthSlopeOnly: 0
OS2_UseTypoMetrics: 0
CreationTime: 1353573771
ModificationTime: 1353645443
PfmFamily: 16
TTFWeight: 400
TTFWidth: 5
LineGap: 0
VLineGap: 92
Panose: 2 0 4 0 2 0 0 2 0 4
OS2TypoAscent: 1010
OS2TypoAOffset: 0
OS2TypoDescent: -500
OS2TypoDOffset: 0
OS2TypoLinegap: 0
OS2WinAscent: 1010
OS2WinAOffset: 0
OS2WinDescent: -500
OS2WinDOffset: 0
HheadAscent: 1010
HheadAOffset: 0
HheadDescent: -500
HheadDOffset: 0
OS2SubXSize: 214
OS2SubYSize: 214
OS2SubXOff: 0
OS2SubYOff: 300
OS2SupXSize: 214
OS2SupYSize: 214
OS2SupXOff: 0
OS2SupYOff: 300
OS2StrikeYSize: 52
OS2StrikeYPos: 262
OS2Vendor: 'SIL '
OS2CodePages: 00000001.00000000
Lookup: 4 0 0 "ngakinzi"  {"cligContextualLigaturesinMyanma subtable"  } ['clig' ('mymr' <'KHT ' 'KSW ' 'KYU ' 'dflt' > ) ]
Lookup: 2 0 0 "insert25cc"  {"sub_mult_cligmymr_0 subtable"  } ['clig' ('mymr' <'KHT ' 'KSW ' 'KYU ' 'dflt' > ) ]
Lookup: 4 0 0 "remove25ccAsat-Ligature"  {"LigatureSubstitutionlookup103 subtable"  } []
Lookup: 6 0 0 "remove25ccAsat"  {"sub_chain_cligmymr_0 contextual 0"  "sub_chain_cligmymr_0 contextual 1"  "sub_chain_cligmymr_0 contextual 2"  "sub_chain_cligmymr_0 contextual 3"  "sub_chain_cligmymr_0 contextual 4"  "sub_chain_cligmymr_0 contextual 5"  "sub_chain_cligmymr_0 contextual 6"  "sub_chain_cligmymr_0 contextual 7"  "sub_chain_cligmymr_0 contextual 8"  "sub_chain_cligmymr_0 contextual 9"  } ['clig' ('mymr' <'KHT ' 'KSW ' 'KYU ' 'dflt' > ) ]
Lookup: 4 0 0 "remove25cc1039-Ligature"  {"LigatureSubstitutionlookup104 subtable"  } []

StartChar: .notdef
Encoding: 0 -1 0
Width: 0
VWidth: 0
GlyphClass: 2
HStem: 0 51<106 471> 408 51<106 471>
VStem: 55 51<51 408> 471 49<51 408>
LayerCount: 2
Fore
SplineSet
520 459 m 0
 520 0 l 0
 55 0 l 0
 55 459 l 0
 520 459 l 0
106 408 m 0
 106 51 l 0
 471 51 l 0
 471 408 l 0
 106 408 l 0
EndSplineSet
EndChar

StartChar: exclam
Encoding: 4 33 2
Width: 229
VWidth: 0
GlyphClass: 2
Flags: HW
LayerCount: 2
Fore
SplineSet
174 42 m 0
 174 11 146 -15 115 -15 c 0
 84 -15 56 11 56 42 c 0
 56 73 84 99 115 99 c 0
 146 99 174 73 174 42 c 0
115 813 m 0
 133 813 148 799 150 757 c 0
 151 743 151 725 151 706 c 0
 151 548 146 406 131 268 c 0
 122 187 121 180 115 180 c 0
 109 180 108 187 99 269 c 0
 84 406 80 548 80 706 c 0
 80 725 80 743 81 757 c 0
 83 799 97 813 115 813 c 0
EndSplineSet
Comment: "GDL_order: 0+AAoA-mark: 80+AAoA" 
EndChar

StartChar: quotedbl
Encoding: 5 34 3
Width: 403
VWidth: 0
GlyphClass: 2
Flags: HW
LayerCount: 2
Fore
SplineSet
340 643 m 0
 319 387 l 0
 265 387 l 0
 246 643 l 0
 340 643 l 0
156 643 m 0
 135 387 l 0
 82 387 l 0
 61 643 l 0
 156 643 l 0
EndSplineSet
Comment: "mark: 1+AAoA" 
EndChar

StartChar: numbersign
Encoding: 6 35 4
Width: 516
VWidth: 0
GlyphClass: 2
Flags: HW
LayerCount: 2
Fore
SplineSet
460 111 m 0
 354 111 l 0
 336 -30 l 0
 285 -30 l 0
 303 111 l 0
 183 111 l 0
 165 -30 l 0
 114 -30 l 0
 132 111 l 0
 55 111 l 0
 55 162 l 0
 138 162 l 0
 153 282 l 0
 55 282 l 0
 55 333 l 0
 160 333 l 0
 180 489 l 0
 231 489 l 0
 211 333 l 0
 331 333 l 0
 351 489 l 0
 402 489 l 0
 382 333 l 0
 460 333 l 0
 460 282 l 0
 375 282 l 0
 360 162 l 0
 460 162 l 0
 460 111 l 0
324 282 m 0
 204 282 l 0
 189 162 l 0
 309 162 l 0
 324 282 l 0
EndSplineSet
Comment: "GDL_order: 0+AAoA-mark: 80+AAoA" 
EndChar

StartChar: dollar
Encoding: 7 36 5
Width: 498
VWidth: 0
GlyphClass: 2
Flags: HW
LayerCount: 2
Fore
SplineSet
466 172 m 0
 466 37 373 -6 273 -12 c 0
 273 -93 l 0
 228 -93 l 0
 228 -14 l 0
 94 -14 31 67 31 186 c 0
 121 186 l 0
 121 121 144 64 228 64 c 0
 228 286 l 0
 126 312 39 333 39 465 c 0
 39 562 105 636 228 636 c 0
 228 708 l 0
 273 708 l 0
 273 637 l 0
 393 637 441 555 441 466 c 0
 351 466 l 0
 351 537 333 558 273 558 c 0
 273 363 l 0
 334 349 466 339 466 172 c 0
228 373 m 0
 228 558 l 0
 133 558 129 513 129 462 c 0
 129 388 165 391 228 373 c 0
376 166 m 0
 376 262 333 267 273 282 c 0
 273 66 l 0
 343 67 376 90 376 166 c 0
EndSplineSet
Comment: "mark: 1+AAoA" 
EndChar

StartChar: percent
Encoding: 8 37 6
Width: 624
VWidth: 0
GlyphClass: 2
Flags: HW
LayerCount: 2
Fore
SplineSet
519 463 m 0
 144 -68 l 0
 105 -35 l 0
 477 495 l 0
 519 463 l 0
276 334 m 0
 276 270 219 210 153 210 c 0
 85 210 28 270 28 334 c 0
 28 402 85 459 153 459 c 0
 219 459 276 402 276 334 c 0
595 94 m 0
 595 30 538 -30 472 -30 c 0
 405 -30 348 30 348 94 c 0
 348 162 405 219 472 219 c 0
 538 219 595 162 595 94 c 0
226 334 m 0
 226 375 192 409 153 409 c 0
 110 409 78 375 78 334 c 0
 78 294 111 259 153 259 c 0
 192 259 226 294 226 334 c 0
546 94 m 0
 546 135 511 169 472 169 c 0
 429 169 397 135 397 94 c 0
 397 54 430 19 472 19 c 0
 511 19 546 54 546 94 c 0
EndSplineSet
Comment: "GDL_order: 0+AAoA-mark: 80+AAoA" 
EndChar

StartChar: ampersand
Encoding: 9 38 7
Width: 682
VWidth: 0
GlyphClass: 2
Flags: HW
LayerCount: 2
Fore
SplineSet
675 0 m 0
 550 0 l 0
 480 63 l 0
 432 24 357 -12 271 -12 c 0
 153 -12 52 66 52 184 c 0
 52 293 118 341 193 375 c 0
 156 415 124 465 124 513 c 0
 124 596 193 655 283 655 c 0
 378 655 447 607 447 532 c 0
 447 441 364 397 307 366 c 0
 360 300 416 243 475 184 c 0
 487 219 492 252 492 287 c 0
 492 312 489 338 486 366 c 0
 579 366 l 0
 579 360 579 354 579 348 c 0
 579 265 566 196 531 129 c 0
 553 101 634 30 675 0 c 0
373 524 m 0
 373 560 336 589 295 589 c 0
 234 589 211 556 211 520 c 0
 211 486 231 453 264 412 c 0
 325 437 373 482 373 524 c 0
432 116 m 0
 363 178 295 253 235 324 c 0
 186 312 142 246 142 187 c 0
 142 141 196 63 274 63 c 0
 328 63 384 74 432 116 c 0
EndSplineSet
Comment: "mark: 1+AAoA" 
EndChar

StartChar: quotesingle
Encoding: 10 39 8
Width: 328
VWidth: 0
GlyphClass: 2
Flags: HW
LayerCount: 2
Fore
SplineSet
210 643 m 0
 190 387 l 0
 136 387 l 0
 117 643 l 0
 210 643 l 0
EndSplineSet
Comment: "mark: 1+AAoA" 
EndChar

StartChar: parenleft
Encoding: 11 40 9
Width: 396
VWidth: 0
GlyphClass: 2
Flags: HW
LayerCount: 2
Fore
SplineSet
340 -450 m 0
 289 -450 l 0
 132 -256 75 -49 75 210 c 0
 75 482 137 692 289 903 c 0
 340 903 l 0
 193 703 126 500 126 210 c 0
 126 -41 188 -262 340 -450 c 0
EndSplineSet
Comment: "GDL_order: 0+AAoA-mark: 80+AAoA" 
EndChar

StartChar: parenright
Encoding: 12 41 10
Width: 396
VWidth: 0
GlyphClass: 2
Flags: HW
LayerCount: 2
Fore
SplineSet
321 222 m 0
 321 -38 264 -243 106 -438 c 0
 55 -438 l 0
 207 -251 270 -27 270 222 c 0
 270 512 202 715 55 915 c 0
 106 915 l 0
 258 704 321 494 321 222 c 0
EndSplineSet
Comment: "GDL_order: 1+AAoA-mark: 80+AAoA" 
EndChar

StartChar: asterisk
Encoding: 13 42 11
Width: 564
VWidth: 0
GlyphClass: 2
Flags: HW
LayerCount: 2
Fore
SplineSet
509 358 m 0
 479 308 l 0
 311 407 l 0
 311 211 l 0
 255 211 l 0
 255 407 l 0
 84 308 l 0
 55 358 l 0
 226 456 l 0
 55 555 l 0
 84 602 l 0
 252 505 l 0
 252 701 l 0
 311 701 l 0
 311 506 l 0
 479 602 l 0
 509 555 l 0
 337 456 l 0
 509 358 l 0
EndSplineSet
Comment: "GDL_order: 0+AAoA-mark: 80+AAoA" 
EndChar

StartChar: plus
Encoding: 14 43 12
Width: 570
VWidth: 0
GlyphClass: 2
Flags: HW
LayerCount: 2
Fore
SplineSet
477 247 m 0
 477 196 l 0
 310 196 l 0
 310 31 l 0
 259 31 l 0
 259 196 l 0
 93 196 l 0
 93 247 l 0
 259 247 l 0
 259 415 l 0
 310 415 l 0
 310 247 l 0
 477 247 l 0
EndSplineSet
Comment: "GDL_order: 0+AAoA-mark: 80+AAoA" 
EndChar

StartChar: comma
Encoding: 15 44 13
Width: 231
VWidth: 0
GlyphClass: 2
Flags: HW
LayerCount: 2
Fore
SplineSet
191 53 m 0
 191 -49 134 -134 88 -151 c 0
 74 -142 l 0
 114 -114 140 -63 140 -4 c 0
 140 16 139 21 137 27 c 0
 128 19 86 0 65 0 c 0
 43 0 40 33 40 53 c 0
 40 101 79 133 116 133 c 0
 154 133 191 105 191 53 c 0
EndSplineSet
Comment: "GDL_order: 0+AAoA-mark: 80+AAoA" 
EndChar

StartChar: hyphen
Encoding: 16 45 14
Width: 495
VWidth: 0
GlyphClass: 2
Flags: HW
LayerCount: 2
Fore
SplineSet
439 247 m 0
 439 196 l 0
 55 196 l 0
 55 247 l 0
 439 247 l 0
EndSplineSet
Comment: "GDL_order: 0+AAoA-mark: 80+AAoA" 
EndChar

StartChar: period
Encoding: 17 46 15
Width: 199
VWidth: 0
GlyphClass: 2
Flags: HW
LayerCount: 2
Fore
SplineSet
159 42 m 0
 159 10 131 -15 100 -15 c 0
 69 -15 40 10 40 42 c 0
 40 73 69 99 100 99 c 0
 131 99 159 73 159 42 c 0
EndSplineSet
Comment: "GDL_order: 0+AAoA-mark: 80+AAoA" 
EndChar

StartChar: slash
Encoding: 18 47 16
Width: 495
VWidth: 0
GlyphClass: 2
Flags: HW
LayerCount: 2
Fore
SplineSet
439 775 m 0
 93 -212 l 0
 55 -174 l 0
 402 813 l 0
 439 775 l 0
EndSplineSet
Comment: "GDL_order: 0+AAoA-mark: 80+AAoA" 
EndChar

StartChar: zero
Encoding: 19 48 17
Width: 498
VWidth: 0
GlyphClass: 2
Flags: HW
LayerCount: 2
Fore
SplineSet
453 334 m 0
 453 183 432 -14 249 -14 c 0
 66 -14 45 183 45 334 c 0
 45 486 66 655 249 655 c 0
 432 655 453 486 453 334 c 0
367 334 m 0
 367 472 352 580 249 580 c 0
 144 580 130 472 130 334 c 0
 130 195 144 61 249 61 c 0
 352 61 367 195 367 334 c 0
EndSplineSet
Comment: "mark: 1+AAoA" 
EndChar

StartChar: one
Encoding: 20 49 18
Width: 498
VWidth: 0
GlyphClass: 2
Flags: HW
LayerCount: 2
Fore
SplineSet
337 0 m 0
 255 0 l 0
 255 535 l 0
 215 500 166 474 115 462 c 0
 115 535 l 0
 171 553 216 594 247 643 c 0
 337 643 l 0
 337 0 l 0
EndSplineSet
Comment: "mark: 1+AAoA" 
EndChar

StartChar: two
Encoding: 21 50 19
Width: 498
VWidth: 0
GlyphClass: 2
Flags: HW
LayerCount: 2
Fore
SplineSet
442 0 m 0
 55 0 l 0
 55 82 l 0
 352 309 352 406 352 468 c 0
 352 543 328 580 256 580 c 0
 193 580 163 546 154 468 c 0
 63 468 l 0
 72 574 123 655 256 655 c 0
 382 655 442 562 442 481 c 0
 442 384 432 292 153 69 c 0
 442 69 l 0
 442 0 l 0
EndSplineSet
Comment: "mark: 1+AAoA" 
EndChar

StartChar: three
Encoding: 22 51 20
Width: 498
VWidth: 0
GlyphClass: 2
Flags: HW
LayerCount: 2
Fore
SplineSet
456 171 m 0
 456 67 369 -14 246 -14 c 0
 100 -14 40 81 40 169 c 0
 135 169 l 0
 141 115 165 55 247 55 c 0
 307 55 367 106 367 165 c 0
 367 265 330 300 237 300 c 0
 237 370 l 0
 327 370 357 403 357 492 c 0
 357 567 289 586 246 586 c 0
 189 586 156 547 144 475 c 0
 54 475 l 0
 69 591 133 655 243 655 c 0
 366 655 447 580 447 486 c 0
 447 399 417 363 379 337 c 0
 425 308 456 275 456 171 c 0
EndSplineSet
Comment: "mark: 1+AAoA" 
EndChar

StartChar: four
Encoding: 23 52 21
Width: 498
VWidth: 0
GlyphClass: 2
Flags: HW
LayerCount: 2
Fore
SplineSet
471 156 m 0
 391 156 l 0
 391 0 l 0
 309 0 l 0
 309 156 l 0
 25 156 l 0
 25 249 l 0
 294 643 l 0
 391 643 l 0
 391 231 l 0
 471 231 l 0
 471 156 l 0
309 231 m 0
 309 544 l 0
 97 231 l 0
 309 231 l 0
EndSplineSet
Comment: "mark: 1+AAoA" 
EndChar

StartChar: five
Encoding: 24 53 22
Width: 498
VWidth: 0
GlyphClass: 2
Flags: HW
LayerCount: 2
Fore
SplineSet
450 210 m 0
 450 108 367 -12 258 -12 c 0
 126 -12 46 51 46 156 c 0
 141 156 l 0
 141 90 186 58 247 58 c 0
 303 58 360 109 360 208 c 0
 360 300 334 361 256 361 c 0
 196 361 160 319 136 268 c 0
 57 268 l 0
 69 643 l 0
 409 643 l 0
 409 568 l 0
 156 568 l 0
 145 367 l 0
 177 406 207 427 274 427 c 0
 388 427 450 325 450 210 c 0
EndSplineSet
Comment: "mark: 1+AAoA" 
EndChar

StartChar: six
Encoding: 25 54 23
Width: 498
VWidth: 0
GlyphClass: 2
Flags: HW
LayerCount: 2
Fore
SplineSet
456 192 m 0
 456 114 420 -14 256 -14 c 0
 60 -14 42 99 42 306 c 0
 42 471 73 655 259 655 c 0
 376 655 423 600 438 490 c 0
 352 490 l 0
 346 564 312 586 258 586 c 0
 136 586 129 399 129 315 c 0
 155 360 191 396 265 396 c 0
 432 396 456 265 456 192 c 0
366 192 m 0
 366 279 334 328 253 328 c 0
 171 328 139 279 139 192 c 0
 139 105 171 55 253 55 c 0
 334 55 366 105 366 192 c 0
EndSplineSet
Comment: "mark: 1+AAoA" 
EndChar

StartChar: seven
Encoding: 26 55 24
Width: 498
VWidth: 0
GlyphClass: 2
Flags: HW
LayerCount: 2
Fore
SplineSet
447 553 m 0
 237 0 l 0
 139 0 l 0
 367 571 l 0
 51 571 l 0
 51 643 l 0
 447 643 l 0
 447 553 l 0
EndSplineSet
Comment: "mark: 1+AAoA" 
EndChar

StartChar: eight
Encoding: 27 56 25
Width: 498
VWidth: 0
GlyphClass: 2
Flags: HW
LayerCount: 2
Fore
SplineSet
460 165 m 0
 460 33 343 -12 249 -12 c 0
 157 -12 39 33 39 165 c 0
 39 265 106 316 160 340 c 0
 113 363 57 411 57 498 c 0
 57 606 160 655 249 655 c 0
 340 655 442 606 442 498 c 0
 442 418 387 361 336 340 c 0
 384 322 460 265 460 165 c 0
360 480 m 0
 360 546 319 586 249 586 c 0
 180 586 139 546 139 480 c 0
 139 415 190 373 249 373 c 0
 309 373 360 415 360 480 c 0
373 183 m 0
 373 255 330 306 249 306 c 0
 171 306 123 255 123 183 c 0
 123 111 160 57 249 57 c 0
 340 57 373 111 373 183 c 0
EndSplineSet
Comment: "mark: 1+AAoA" 
EndChar

StartChar: nine
Encoding: 28 57 26
Width: 498
VWidth: 0
GlyphClass: 2
Flags: HW
LayerCount: 2
Fore
SplineSet
456 337 m 0
 456 171 423 -14 238 -14 c 0
 121 -14 73 43 58 153 c 0
 145 153 l 0
 150 78 186 55 240 55 c 0
 357 55 369 236 369 328 c 0
 336 274 300 246 231 246 c 0
 64 246 42 376 42 450 c 0
 42 529 78 655 241 655 c 0
 438 655 456 543 456 337 c 0
357 450 m 0
 357 537 327 586 244 586 c 0
 162 586 132 537 132 450 c 0
 132 363 162 313 244 313 c 0
 327 313 357 363 357 450 c 0
EndSplineSet
Comment: "mark: 1+AAoA" 
EndChar

StartChar: colon
Encoding: 29 58 27
Width: 199
VWidth: 0
GlyphClass: 2
Flags: HW
LayerCount: 2
Fore
SplineSet
159 400 m 0
 159 369 131 343 100 343 c 0
 69 343 40 369 40 400 c 0
 40 432 69 459 100 459 c 0
 131 459 159 432 159 400 c 0
159 43 m 0
 159 12 131 -15 100 -15 c 0
 69 -15 40 12 40 43 c 0
 40 75 69 100 100 100 c 0
 131 100 159 75 159 43 c 0
EndSplineSet
Comment: "GDL_order: 0+AAoA-mark: 80+AAoA" 
EndChar

StartChar: semicolon
Encoding: 30 59 28
Width: 207
VWidth: 0
GlyphClass: 2
Flags: HW
LayerCount: 2
Fore
SplineSet
159 402 m 0
 159 370 131 343 100 343 c 0
 69 343 40 370 40 402 c 0
 40 433 69 459 100 459 c 0
 131 459 159 433 159 402 c 0
160 33 m 0
 160 -33 117 -85 90 -101 c 0
 82 -95 l 0
 109 -76 124 -44 124 6 c 0
 124 10 124 14 123 18 c 0
 102 7 73 -2 61 -2 c 0
 48 -2 40 19 40 40 c 0
 40 72 69 99 97 99 c 0
 129 99 160 72 160 33 c 0
EndSplineSet
Comment: "GDL_order: 0+AAoA-mark: 80+AAoA" 
EndChar

StartChar: less
Encoding: 31 60 29
Width: 891
VWidth: 0
GlyphClass: 2
Flags: HW
LayerCount: 2
Fore
SplineSet
712 90 m 0
 712 34 l 0
 178 238 l 0
 178 295 l 0
 712 499 l 0
 712 444 l 0
 235 267 l 0
 712 90 l 0
EndSplineSet
Comment: "mark: 1+AAoA" 
EndChar

StartChar: equal
Encoding: 32 61 30
Width: 576
VWidth: 0
GlyphClass: 2
Flags: HW
LayerCount: 2
Fore
SplineSet
520 162 m 0
 520 111 l 0
 55 111 l 0
 55 162 l 0
 520 162 l 0
520 333 m 0
 520 282 l 0
 55 282 l 0
 55 333 l 0
 520 333 l 0
EndSplineSet
Comment: "GDL_order: 0+AAoA-mark: 80+AAoA" 
EndChar

StartChar: greater
Encoding: 33 62 31
Width: 891
VWidth: 0
GlyphClass: 2
Flags: HW
LayerCount: 2
Fore
SplineSet
712 295 m 0
 712 238 l 0
 178 34 l 0
 178 90 l 0
 655 267 l 0
 178 444 l 0
 178 499 l 0
 712 295 l 0
EndSplineSet
Comment: "mark: 1+AAoA" 
EndChar

StartChar: question
Encoding: 34 63 32
Width: 446
VWidth: 0
GlyphClass: 2
Flags: HW
LayerCount: 2
Fore
SplineSet
268 55 m 0
 268 19 238 0 213 0 c 0
 187 0 158 19 158 55 c 0
 158 93 187 111 213 111 c 0
 238 111 268 93 268 55 c 0
391 590 m 0
 391 440 238 458 238 345 c 0
 238 200 l 0
 187 200 l 0
 187 359 l 0
 187 489 340 483 340 590 c 0
 340 654 282 722 213 722 c 0
 129 722 86 629 86 600 c 0
 86 548 l 0
 35 548 l 0
 35 600 l 0
 35 637 78 773 213 773 c 0
 321 773 391 685 391 590 c 0
EndSplineSet
Comment: "GDL_order: 0+AAoA-mark: 80+AAoA" 
EndChar

StartChar: at
Encoding: 35 64 33
Width: 891
VWidth: 0
GlyphClass: 2
Flags: HW
LayerCount: 2
Fore
SplineSet
837 265 m 0
 837 135 760 18 657 18 c 0
 601 18 564 49 540 103 c 0
 511 51 475 22 406 22 c 0
 316 22 247 112 247 231 c 0
 247 360 316 438 406 438 c 0
 462 438 494 426 531 379 c 0
 531 432 l 0
 612 432 l 0
 612 132 l 0
 612 98 645 96 664 96 c 0
 696 96 751 134 751 265 c 0
 751 483 628 558 444 558 c 0
 309 558 138 487 138 259 c 0
 138 51 243 -78 454 -78 c 0
 523 -78 546 -78 606 -62 c 0
 606 -135 l 0
 541 -158 519 -159 462 -159 c 0
 262 -159 52 -68 52 258 c 0
 52 499 243 637 438 637 c 0
 678 637 837 510 837 265 c 0
528 237 m 0
 528 312 498 376 430 376 c 0
 360 376 333 309 333 237 c 0
 333 162 351 84 430 84 c 0
 496 84 528 160 528 237 c 0
EndSplineSet
Comment: "mark: 1+AAoA" 
EndChar

StartChar: A
Encoding: 36 65 34
Width: 667
VWidth: 0
GlyphClass: 2
Flags: HW
LayerCount: 2
Fore
SplineSet
654 0 m 0
 561 0 l 0
 490 171 l 0
 175 171 l 0
 105 0 l 0
 13 0 l 0
 282 643 l 0
 381 643 l 0
 654 0 l 0
453 247 m 0
 330 543 l 0
 210 247 l 0
 453 247 l 0
EndSplineSet
Comment: "mark: 1+AAoA" 
EndChar

StartChar: B
Encoding: 37 66 35
Width: 600
VWidth: 0
GlyphClass: 2
Flags: HW
LayerCount: 2
Fore
SplineSet
546 178 m 0
 546 75 454 0 352 0 c 0
 72 0 l 0
 72 643 l 0
 330 643 l 0
 433 643 523 594 523 484 c 0
 523 412 467 358 412 343 c 0
 482 324 546 263 546 178 c 0
439 471 m 0
 439 525 409 565 303 565 c 0
 160 565 l 0
 160 373 l 0
 301 373 l 0
 408 373 439 417 439 471 c 0
459 189 m 0
 459 259 403 300 297 300 c 0
 160 300 l 0
 160 78 l 0
 301 78 l 0
 394 78 459 123 459 189 c 0
EndSplineSet
Comment: "mark: 1+AAoA" 
EndChar

StartChar: C
Encoding: 38 67 36
Width: 606
VWidth: 0
GlyphClass: 2
Flags: HW
LayerCount: 2
Fore
SplineSet
552 171 m 0
 552 69 466 -14 318 -14 c 0
 118 -14 52 142 52 316 c 0
 52 490 117 655 319 655 c 0
 481 655 549 571 549 471 c 0
 459 471 l 0
 459 546 420 585 319 585 c 0
 204 585 144 499 144 316 c 0
 144 123 208 58 316 58 c 0
 399 58 462 88 462 171 c 0
 552 171 l 0
EndSplineSet
Comment: "mark: 1+AAoA" 
EndChar

StartChar: D
Encoding: 39 68 37
Width: 640
VWidth: 0
GlyphClass: 2
Flags: HW
LayerCount: 2
Fore
SplineSet
588 322 m 0
 588 166 514 0 271 0 c 0
 72 0 l 0
 72 643 l 0
 271 643 l 0
 514 643 588 486 588 322 c 0
499 322 m 0
 499 480 412 565 273 565 c 0
 160 565 l 0
 160 78 l 0
 273 78 l 0
 412 78 499 166 499 322 c 0
EndSplineSet
Comment: "mark: 1+AAoA" 
EndChar

StartChar: E
Encoding: 40 69 38
Width: 540
VWidth: 0
GlyphClass: 2
Flags: HW
LayerCount: 2
Fore
SplineSet
478 0 m 0
 72 0 l 0
 72 643 l 0
 469 643 l 0
 469 565 l 0
 160 565 l 0
 160 367 l 0
 460 367 l 0
 460 291 l 0
 160 291 l 0
 160 78 l 0
 478 78 l 0
 478 0 l 0
EndSplineSet
Comment: "mark: 1+AAoA" 
EndChar

StartChar: F
Encoding: 41 70 39
Width: 507
VWidth: 0
GlyphClass: 2
Flags: HW
LayerCount: 2
Fore
SplineSet
427 291 m 0
 160 291 l 0
 160 0 l 0
 72 0 l 0
 72 643 l 0
 445 643 l 0
 445 565 l 0
 160 565 l 0
 160 367 l 0
 427 367 l 0
 427 291 l 0
EndSplineSet
Comment: "mark: 1+AAoA" 
EndChar

StartChar: G
Encoding: 42 71 40
Width: 678
VWidth: 0
GlyphClass: 2
Flags: HW
LayerCount: 2
Fore
SplineSet
606 31 m 0
 526 3 426 -14 372 -14 c 0
 99 -14 52 184 52 346 c 0
 52 519 171 655 364 655 c 0
 534 655 610 552 610 483 c 0
 520 483 l 0
 520 520 462 577 372 577 c 0
 210 577 145 477 145 345 c 0
 145 201 198 66 361 66 c 0
 414 66 471 73 517 87 c 0
 517 265 l 0
 370 265 l 0
 370 343 l 0
 606 343 l 0
 606 31 l 0
EndSplineSet
Comment: "mark: 1+AAoA" 
EndChar

StartChar: H
Encoding: 43 72 41
Width: 631
VWidth: 0
GlyphClass: 2
Flags: HW
LayerCount: 2
Fore
SplineSet
561 0 m 0
 469 0 l 0
 469 291 l 0
 160 291 l 0
 160 0 l 0
 72 0 l 0
 72 643 l 0
 160 643 l 0
 160 367 l 0
 469 367 l 0
 469 643 l 0
 561 643 l 0
 561 0 l 0
EndSplineSet
Comment: "mark: 1+AAoA" 
EndChar

StartChar: I
Encoding: 44 73 42
Width: 232
VWidth: 0
GlyphClass: 2
Flags: W
HStem: 0 21G<72 160> 623 20G<72 160>
VStem: 72 88<0 643>
LayerCount: 2
Fore
SplineSet
160 0 m 0
 72 0 l 0
 72 643 l 0
 160 643 l 0
 160 0 l 0
EndSplineSet
Comment: "mark: 1+AAoA" 
EndChar

StartChar: J
Encoding: 45 74 43
Width: 507
VWidth: 0
GlyphClass: 2
Flags: HW
LayerCount: 2
Fore
SplineSet
435 192 m 0
 435 69 354 -14 238 -14 c 0
 126 -14 52 64 52 172 c 0
 141 172 l 0
 142 88 189 66 243 66 c 0
 297 66 345 106 345 192 c 0
 345 643 l 0
 435 643 l 0
 435 192 l 0
EndSplineSet
Comment: "mark: 1+AAoA" 
EndChar

StartChar: K
Encoding: 46 75 44
Width: 592
VWidth: 0
GlyphClass: 2
Flags: HW
LayerCount: 2
Fore
SplineSet
570 0 m 0
 450 0 l 0
 160 339 l 0
 160 0 l 0
 72 0 l 0
 72 643 l 0
 160 643 l 0
 160 369 l 0
 426 643 l 0
 537 643 l 0
 264 366 l 0
 570 0 l 0
EndSplineSet
Comment: "mark: 1+AAoA" 
EndChar

StartChar: L
Encoding: 47 76 45
Width: 471
VWidth: 0
GlyphClass: 2
Flags: HW
LayerCount: 2
Fore
SplineSet
445 0 m 0
 72 0 l 0
 72 643 l 0
 160 643 l 0
 160 78 l 0
 445 78 l 0
 445 0 l 0
EndSplineSet
Comment: "mark: 1+AAoA" 
EndChar

StartChar: M
Encoding: 48 77 46
Width: 799
VWidth: 0
GlyphClass: 2
Flags: HW
LayerCount: 2
Fore
SplineSet
727 0 m 0
 639 0 l 0
 639 558 l 0
 433 0 l 0
 363 0 l 0
 160 553 l 0
 160 0 l 0
 72 0 l 0
 72 643 l 0
 213 643 l 0
 399 124 l 0
 586 643 l 0
 727 643 l 0
 727 0 l 0
EndSplineSet
Comment: "mark: 1+AAoA" 
EndChar

StartChar: N
Encoding: 49 78 47
Width: 643
VWidth: 0
GlyphClass: 2
Flags: HW
LayerCount: 2
Fore
SplineSet
573 0 m 0
 444 0 l 0
 160 526 l 0
 160 0 l 0
 72 0 l 0
 72 643 l 0
 198 643 l 0
 483 115 l 0
 483 643 l 0
 573 643 l 0
 573 0 l 0
EndSplineSet
Comment: "mark: 1+AAoA" 
EndChar

StartChar: O
Encoding: 50 79 48
Width: 688
VWidth: 0
GlyphClass: 2
Flags: W
HStem: -14 80<252.621 437.339> 577 78<243.964 445.956>
VStem: 52 93<192.092 469.386> 543 93<192.092 469.386>
LayerCount: 2
Fore
SplineSet
636 334 m 0
 636 150 543 -14 345 -14 c 0
 148 -14 52 150 52 334 c 0
 52 517 148 655 345 655 c 0
 543 655 636 517 636 334 c 0
543 334 m 0
 543 469 501 577 345 577 c 0
 189 577 145 469 145 334 c 0
 145 199 189 66 345 66 c 0
 501 66 543 199 543 334 c 0
EndSplineSet
Comment: "mark: 1+AAoA" 
EndChar

StartChar: P
Encoding: 51 80 49
Width: 555
VWidth: 0
GlyphClass: 2
Flags: HW
LayerCount: 2
Fore
SplineSet
501 457 m 0
 501 295 376 273 253 273 c 0
 160 273 l 0
 160 0 l 0
 72 0 l 0
 72 643 l 0
 253 643 l 0
 376 643 501 619 501 457 c 0
415 457 m 0
 415 537 363 565 256 565 c 0
 160 565 l 0
 160 351 l 0
 256 351 l 0
 363 351 415 378 415 457 c 0
EndSplineSet
Comment: "mark: 1+AAoA" 
EndChar

StartChar: Q
Encoding: 52 81 50
Width: 699
VWidth: 0
GlyphClass: 2
Flags: HW
LayerCount: 2
Fore
SplineSet
672 0 m 0
 430 0 l 0
 396 -9 372 -14 345 -14 c 0
 147 -14 52 151 52 334 c 0
 52 517 147 655 345 655 c 0
 543 655 636 517 636 334 c 0
 636 223 603 118 540 61 c 0
 672 61 l 0
 672 0 l 0
543 334 m 0
 543 469 501 577 345 577 c 0
 189 577 145 469 145 334 c 0
 145 199 189 66 345 66 c 0
 501 66 543 199 543 334 c 0
EndSplineSet
Comment: "mark: 1+AAoA" 
EndChar

StartChar: R
Encoding: 53 82 51
Width: 561
VWidth: 0
GlyphClass: 2
Flags: HW
LayerCount: 2
Fore
SplineSet
523 0 m 0
 432 0 l 0
 412 88 415 94 402 154 c 0
 373 288 358 292 238 292 c 0
 160 292 l 0
 160 0 l 0
 72 0 l 0
 72 643 l 0
 274 643 l 0
 426 643 507 598 507 466 c 0
 507 402 450 358 387 328 c 0
 424 320 452 302 469 259 c 0
 488 210 484 108 523 0 c 0
417 466 m 0
 417 543 360 565 273 565 c 0
 160 565 l 0
 160 369 l 0
 273 369 l 0
 360 369 417 393 417 466 c 0
EndSplineSet
Comment: "mark: 1+AAoA" 
EndChar

StartChar: S
Encoding: 54 83 52
Width: 589
VWidth: 0
GlyphClass: 2
Flags: HW
LayerCount: 2
Fore
SplineSet
535 178 m 0
 535 28 390 -14 265 -14 c 0
 144 -14 52 66 52 192 c 0
 144 192 l 0
 144 123 193 66 264 66 c 0
 337 66 447 73 447 171 c 0
 447 376 61 204 61 480 c 0
 61 592 181 655 280 655 c 0
 394 655 510 612 510 481 c 0
 420 481 l 0
 420 568 346 577 276 577 c 0
 205 577 151 553 151 477 c 0
 151 310 535 441 535 178 c 0
EndSplineSet
Comment: "mark: 1+AAoA" 
EndChar

StartChar: T
Encoding: 55 84 53
Width: 546
VWidth: 0
GlyphClass: 2
Flags: HW
LayerCount: 2
Fore
SplineSet
528 565 m 0
 318 565 l 0
 318 0 l 0
 228 0 l 0
 228 565 l 0
 18 565 l 0
 18 643 l 0
 528 643 l 0
 528 565 l 0
EndSplineSet
Comment: "mark: 1+AAoA" 
EndChar

StartChar: U
Encoding: 56 85 54
Width: 655
VWidth: 0
GlyphClass: 2
Flags: HW
LayerCount: 2
Fore
SplineSet
585 286 m 0
 585 72 507 -14 328 -14 c 0
 148 -14 72 72 72 286 c 0
 72 643 l 0
 160 643 l 0
 160 286 l 0
 160 93 238 66 328 66 c 0
 415 66 495 91 495 286 c 0
 495 643 l 0
 585 643 l 0
 585 286 l 0
EndSplineSet
Comment: "mark: 1+AAoA" 
EndChar

StartChar: V
Encoding: 57 86 55
Width: 582
VWidth: 0
GlyphClass: 2
Flags: HW
LayerCount: 2
Fore
SplineSet
568 643 m 0
 340 0 l 0
 241 0 l 0
 13 643 l 0
 114 643 l 0
 291 115 l 0
 468 643 l 0
 568 643 l 0
EndSplineSet
Comment: "mark: 1+AAoA" 
EndChar

StartChar: W
Encoding: 58 87 56
Width: 865
VWidth: 0
GlyphClass: 2
Flags: HW
LayerCount: 2
Fore
SplineSet
852 643 m 0
 661 0 l 0
 580 0 l 0
 432 535 l 0
 283 0 l 0
 204 0 l 0
 13 643 l 0
 108 643 l 0
 243 133 l 0
 379 643 l 0
 486 643 l 0
 622 133 l 0
 757 643 l 0
 852 643 l 0
EndSplineSet
Comment: "mark: 1+AAoA" 
EndChar

StartChar: X
Encoding: 59 88 57
Width: 627
VWidth: 0
GlyphClass: 2
Flags: HW
LayerCount: 2
Fore
SplineSet
604 0 m 0
 490 0 l 0
 307 279 l 0
 127 0 l 0
 21 0 l 0
 258 343 l 0
 52 643 l 0
 166 643 l 0
 319 406 l 0
 468 643 l 0
 573 643 l 0
 367 343 l 0
 604 0 l 0
EndSplineSet
Comment: "mark: 1+AAoA" 
EndChar

StartChar: Y
Encoding: 60 89 58
Width: 594
VWidth: 0
GlyphClass: 2
Flags: HW
LayerCount: 2
Fore
SplineSet
579 643 m 0
 340 256 l 0
 340 0 l 0
 252 0 l 0
 252 256 l 0
 13 643 l 0
 123 643 l 0
 301 334 l 0
 478 643 l 0
 579 643 l 0
EndSplineSet
Comment: "mark: 1+AAoA" 
EndChar

StartChar: Z
Encoding: 61 90 59
Width: 549
VWidth: 0
GlyphClass: 2
Flags: HW
LayerCount: 2
Fore
SplineSet
508 0 m 0
 40 0 l 0
 40 97 l 0
 402 565 l 0
 57 565 l 0
 57 643 l 0
 499 643 l 0
 499 544 l 0
 138 78 l 0
 508 78 l 0
 508 0 l 0
EndSplineSet
Comment: "mark: 1+AAoA" 
EndChar

StartChar: bracketleft
Encoding: 62 91 60
Width: 352
VWidth: 0
GlyphClass: 2
Flags: HW
LayerCount: 2
Fore
SplineSet
259 -177 m 0
 94 -177 l 0
 94 643 l 0
 259 643 l 0
 259 597 l 0
 171 597 l 0
 171 -132 l 0
 259 -132 l 0
 259 -177 l 0
EndSplineSet
Comment: "mark: 1+AAoA" 
EndChar

StartChar: backslash
Encoding: 63 92 61
Width: 495
VWidth: 0
GlyphClass: 2
Flags: HW
LayerCount: 2
Fore
SplineSet
439 -174 m 0
 402 -212 l 0
 55 775 l 0
 93 813 l 0
 439 -174 l 0
EndSplineSet
Comment: "GDL_order: 0+AAoA-mark: 80+AAoA" 
EndChar

StartChar: bracketright
Encoding: 64 93 62
Width: 352
VWidth: 0
GlyphClass: 2
Flags: HW
LayerCount: 2
Fore
SplineSet
259 -177 m 0
 94 -177 l 0
 94 -132 l 0
 183 -132 l 0
 183 597 l 0
 94 597 l 0
 94 643 l 0
 259 643 l 0
 259 -177 l 0
EndSplineSet
Comment: "mark: 1+AAoA" 
EndChar

StartChar: asciicircum
Encoding: 65 94 63
Width: 453
VWidth: 0
GlyphClass: 4
Flags: HW
AnchorPoint: "U" 226 495 mark 0
AnchorPoint: "UM" 226 495 basemark 0
LayerCount: 2
Fore
SplineSet
453 640 m 0
 426 613 l 0
 226 811 l 0
 27 613 l 0
 0 640 l 0
 226 867 l 0
 453 640 l 0
EndSplineSet
Comment: "GDL_order: 0+AAoA-mark: 80+AAoA" 
EndChar

StartChar: underscore
Encoding: 66 95 64
Width: 576
VWidth: 0
GlyphClass: 4
Flags: HW
LayerCount: 2
Fore
SplineSet
576 -137 m 0
 0 -137 l 0
 0 -86 l 0
 576 -86 l 0
 576 -137 l 0
EndSplineSet
Comment: "GDL_order: 0+AAoA-mark: 80+AAoA" 
EndChar

StartChar: grave
Encoding: 67 96 65
Width: 204
VWidth: 0
GlyphClass: 4
Flags: HW
LayerCount: 2
Fore
SplineSet
156 534 m 0
 102 534 l 0
 -23 687 l 0
 67 687 l 0
 156 534 l 0
EndSplineSet
Comment: "mark: 1+AAoA" 
EndChar

StartChar: a
Encoding: 68 97 66
Width: 492
VWidth: 0
GlyphClass: 4
Flags: HW
LayerCount: 2
Fore
SplineSet
439 0 m 0
 360 0 l 0
 355 23 352 41 349 64 c 0
 308 12 273 -12 214 -12 c 0
 138 -12 43 30 43 117 c 0
 43 252 180 280 285 280 c 0
 346 280 l 0
 347 289 348 298 348 307 c 0
 348 359 323 396 249 396 c 0
 204 396 150 378 150 325 c 0
 67 325 l 0
 67 430 158 456 246 456 c 0
 306 456 394 447 418 381 c 0
 426 361 427 309 427 271 c 0
 427 125 l 0
 427 84 429 25 439 0 c 0
345 219 m 0
 335 220 312 222 300 222 c 0
 241 222 126 204 126 127 c 0
 126 78 166 48 214 48 c 0
 325 48 345 126 345 219 c 0
EndSplineSet
Comment: "mark: 1+AAoA" 
EndChar

StartChar: b
Encoding: 69 98 67
Width: 525
VWidth: 0
GlyphClass: 4
Flags: HW
LayerCount: 2
Fore
SplineSet
481 241 m 0
 481 76 382 -12 292 -12 c 0
 222 -12 173 19 142 52 c 0
 142 0 l 0
 61 0 l 0
 61 643 l 0
 139 643 l 0
 139 384 l 0
 162 417 205 456 291 456 c 0
 438 456 481 322 481 241 c 0
394 232 m 0
 394 321 363 405 270 405 c 0
 181 405 141 318 141 232 c 0
 141 112 184 48 268 48 c 0
 339 48 394 117 394 232 c 0
EndSplineSet
Comment: "mark: 1+AAoA" 
EndChar

StartChar: c
Encoding: 70 99 68
Width: 463
VWidth: 0
GlyphClass: 4
Flags: HW
LayerCount: 2
Fore
SplineSet
420 150 m 0
 420 69 375 -12 241 -12 c 0
 108 -12 45 67 45 222 c 0
 45 378 99 456 232 456 c 0
 358 456 416 401 416 323 c 0
 416 317 416 312 415 306 c 0
 336 306 l 0
 337 312 337 318 337 323 c 0
 337 380 280 396 226 396 c 0
 169 396 124 351 124 222 c 0
 124 94 166 48 241 48 c 0
 318 48 340 111 340 150 c 0
 420 150 l 0
EndSplineSet
Comment: "mark: 1+AAoA" 
EndChar

StartChar: d
Encoding: 71 100 69
Width: 526
VWidth: 0
GlyphClass: 4
Flags: HW
LayerCount: 2
Fore
SplineSet
463 0 m 0
 384 0 l 0
 384 51 l 0
 359 22 311 -12 252 -12 c 0
 148 -12 45 84 45 214 c 0
 45 322 91 456 229 456 c 0
 293 456 350 434 384 387 c 0
 384 643 l 0
 463 643 l 0
 463 0 l 0
381 219 m 0
 381 316 324 403 243 403 c 0
 157 403 126 306 126 225 c 0
 126 132 177 52 255 52 c 0
 343 52 381 144 381 219 c 0
EndSplineSet
Comment: "mark: 1+AAoA" 
EndChar

StartChar: e
Encoding: 72 101 70
Width: 496
VWidth: 0
GlyphClass: 4
Flags: HW
LayerCount: 2
Fore
SplineSet
448 142 m 0
 435 69 379 -12 247 -12 c 0
 99 -12 45 120 45 222 c 0
 45 333 96 456 253 456 c 0
 427 456 451 322 451 252 c 0
 451 239 450 223 448 210 c 0
 130 210 l 0
 130 118 163 46 249 46 c 0
 331 46 357 103 363 142 c 0
 448 142 l 0
363 268 m 0
 364 275 364 281 364 288 c 0
 364 346 335 400 249 400 c 0
 162 400 138 319 130 268 c 0
 363 268 l 0
EndSplineSet
Comment: "mark: 1+AAoA" 
EndChar

StartChar: f
Encoding: 73 102 71
Width: 294
VWidth: 0
GlyphClass: 4
Flags: HW
LayerCount: 2
Fore
SplineSet
294 577 m 0
 280 583 265 588 246 588 c 0
 198 588 178 567 178 510 c 0
 178 445 l 0
 285 445 l 0
 285 387 l 0
 178 387 l 0
 178 0 l 0
 97 0 l 0
 97 387 l 0
 9 387 l 0
 9 445 l 0
 97 445 l 0
 97 513 l 0
 97 623 146 651 230 651 c 0
 251 651 272 649 294 643 c 0
 294 577 l 0
EndSplineSet
Comment: "mark: 1+AAoA" 
EndChar

StartChar: g
Encoding: 74 103 72
Width: 525
VWidth: 0
GlyphClass: 4
Flags: HW
LayerCount: 2
Fore
SplineSet
463 25 m 0
 463 -90 388 -177 246 -177 c 0
 99 -177 67 -78 67 -36 c 0
 150 -36 l 0
 150 -96 207 -122 261 -122 c 0
 343 -122 382 -72 382 82 c 0
 358 39 296 12 241 12 c 0
 121 12 45 83 45 237 c 0
 45 363 121 456 232 456 c 0
 310 456 357 440 382 396 c 0
 382 445 l 0
 463 445 l 0
 463 25 l 0
381 235 m 0
 381 330 343 400 247 400 c 0
 154 400 127 327 127 237 c 0
 127 136 169 69 252 69 c 0
 346 69 381 150 381 235 c 0
EndSplineSet
Comment: "mark: 1+AAoA" 
EndChar

StartChar: h
Encoding: 75 104 73
Width: 510
VWidth: 0
GlyphClass: 4
Flags: HW
LayerCount: 2
Fore
SplineSet
448 0 m 0
 367 0 l 0
 367 280 l 0
 367 364 323 399 274 399 c 0
 189 399 142 343 142 303 c 0
 142 0 l 0
 61 0 l 0
 61 643 l 0
 142 643 l 0
 142 388 l 0
 170 427 213 456 282 456 c 0
 400 456 448 400 448 276 c 0
 448 0 l 0
EndSplineSet
Comment: "mark: 1+AAoA" 
EndChar

StartChar: i
Encoding: 76 105 74
Width: 204
VWidth: 0
GlyphClass: 4
Flags: HW
LayerCount: 2
Fore
SplineSet
145 561 m 0
 58 561 l 0
 58 643 l 0
 145 643 l 0
 145 561 l 0
142 0 m 0
 61 0 l 0
 61 445 l 0
 142 445 l 0
 142 0 l 0
EndSplineSet
Comment: "mark: 1+AAoA" 
EndChar

StartChar: j
Encoding: 77 106 75
Width: 256
VWidth: 0
GlyphClass: 4
Flags: HW
LayerCount: 2
Fore
SplineSet
195 561 m 0
 111 561 l 0
 111 643 l 0
 195 643 l 0
 195 561 l 0
193 -72 m 0
 193 -128 171 -188 90 -188 c 0
 55 -188 3 -171 -27 -141 c 0
 24 -90 l 0
 37 -107 58 -117 78 -117 c 0
 106 -117 112 -92 112 -45 c 0
 112 445 l 0
 193 445 l 0
 193 -72 l 0
EndSplineSet
Comment: "mark: 1+AAoA" 
EndChar

StartChar: k
Encoding: 78 107 76
Width: 444
VWidth: 0
GlyphClass: 4
Flags: HW
LayerCount: 2
Fore
SplineSet
426 0 m 0
 319 0 l 0
 142 237 l 0
 142 0 l 0
 61 0 l 0
 61 643 l 0
 142 643 l 0
 142 259 l 0
 312 445 l 0
 412 445 l 0
 234 252 l 0
 426 0 l 0
EndSplineSet
Comment: "mark: 1+AAoA" 
EndChar

StartChar: l
Encoding: 79 108 77
Width: 204
VWidth: 0
GlyphClass: 4
Flags: HW
LayerCount: 2
Fore
SplineSet
142 0 m 0
 61 0 l 0
 61 643 l 0
 142 643 l 0
 142 0 l 0
EndSplineSet
Comment: "mark: 1+AAoA" 
EndChar

StartChar: m
Encoding: 80 109 78
Width: 798
VWidth: 0
GlyphClass: 4
Flags: HW
LayerCount: 2
Fore
SplineSet
736 0 m 0
 655 0 l 0
 655 288 l 0
 655 355 624 400 555 400 c 0
 490 400 441 336 441 288 c 0
 441 0 l 0
 360 0 l 0
 360 288 l 0
 360 345 322 400 262 400 c 0
 192 400 142 334 142 288 c 0
 142 0 l 0
 61 0 l 0
 61 445 l 0
 142 445 l 0
 142 384 l 0
 174 427 216 456 274 456 c 0
 360 456 394 430 426 378 c 0
 466 433 514 456 570 456 c 0
 715 456 736 360 736 288 c 0
 736 0 l 0
EndSplineSet
Comment: "mark: 1+AAoA" 
EndChar

StartChar: n
Encoding: 81 110 79
Width: 511
VWidth: 0
GlyphClass: 4
Flags: HW
LayerCount: 2
Fore
SplineSet
448 0 m 0
 369 0 l 0
 369 295 l 0
 369 355 318 403 259 403 c 0
 196 403 142 355 142 288 c 0
 142 0 l 0
 61 0 l 0
 61 445 l 0
 142 445 l 0
 142 388 l 0
 168 425 205 456 277 456 c 0
 405 456 448 387 448 292 c 0
 448 0 l 0
EndSplineSet
Comment: "mark: 1+AAoA" 
EndChar

StartChar: o
Encoding: 82 111 80
Width: 526
VWidth: 0
GlyphClass: 4
Flags: W
HStem: -12 58<193.015 333.725> 400 56<193.015 333.725>
VStem: 45 82<123.149 321.418> 399 84<123.149 321.418>
LayerCount: 2
Fore
SplineSet
483 222 m 0
 483 63 384 -12 264 -12 c 0
 142 -12 45 63 45 222 c 0
 45 382 142 456 264 456 c 0
 384 456 483 382 483 222 c 0
399 222 m 0
 399 306 357 400 264 400 c 0
 168 400 127 306 127 222 c 0
 127 138 168 46 264 46 c 0
 357 46 399 138 399 222 c 0
EndSplineSet
Comment: "mark: 1+AAoA" 
EndChar

StartChar: p
Encoding: 83 112 81
Width: 534
VWidth: 0
GlyphClass: 4
Flags: HW
LayerCount: 2
Fore
SplineSet
489 222 m 0
 489 91 433 -14 282 -14 c 0
 223 -14 180 16 142 46 c 0
 142 -177 l 0
 61 -177 l 0
 61 445 l 0
 142 445 l 0
 142 388 l 0
 184 427 223 456 282 456 c 0
 433 456 489 352 489 222 c 0
403 222 m 0
 403 313 366 400 273 400 c 0
 178 400 142 313 142 222 c 0
 142 130 178 45 273 45 c 0
 366 45 403 130 403 222 c 0
EndSplineSet
Comment: "mark: 1+AAoA" 
EndChar

StartChar: q
Encoding: 84 113 82
Width: 534
VWidth: 0
GlyphClass: 4
Flags: HW
LayerCount: 2
Fore
SplineSet
471 -177 m 0
 390 -177 l 0
 390 46 l 0
 352 16 309 -14 249 -14 c 0
 99 -14 45 91 45 222 c 0
 45 352 99 456 249 456 c 0
 309 456 349 427 390 388 c 0
 390 445 l 0
 471 445 l 0
 471 -177 l 0
391 222 m 0
 391 313 354 400 261 400 c 0
 166 400 129 313 129 222 c 0
 129 130 166 45 261 45 c 0
 354 45 391 130 391 222 c 0
EndSplineSet
Comment: "mark: 1+AAoA" 
EndChar

StartChar: r
Encoding: 85 114 83
Width: 322
VWidth: 0
GlyphClass: 4
Flags: HW
LayerCount: 2
Fore
SplineSet
306 373 m 0
 190 373 142 325 142 249 c 0
 142 0 l 0
 61 0 l 0
 61 445 l 0
 142 445 l 0
 142 384 l 0
 165 423 192 445 306 445 c 0
 306 373 l 0
EndSplineSet
Comment: "mark: 1+AAoA" 
EndChar

StartChar: s
Encoding: 86 115 84
Width: 448
VWidth: 0
GlyphClass: 4
Flags: HW
LayerCount: 2
Fore
SplineSet
403 130 m 0
 403 21 304 -12 208 -12 c 0
 118 -12 45 25 45 129 c 0
 126 129 l 0
 127 67 166 46 219 46 c 0
 268 46 321 72 321 124 c 0
 321 237 55 142 55 334 c 0
 55 393 94 456 222 456 c 0
 316 456 390 433 390 325 c 0
 309 325 l 0
 309 357 297 400 220 400 c 0
 175 400 136 373 136 334 c 0
 136 220 403 307 403 130 c 0
EndSplineSet
Comment: "mark: 1+AAoA" 
EndChar

StartChar: t
Encoding: 87 116 85
Width: 312
VWidth: 0
GlyphClass: 4
Flags: HW
LayerCount: 2
Fore
SplineSet
285 0 m 0
 262 -8 241 -12 219 -12 c 0
 139 -12 106 17 106 117 c 0
 106 388 l 0
 25 388 l 0
 25 445 l 0
 106 445 l 0
 106 534 l 0
 187 567 l 0
 187 445 l 0
 285 445 l 0
 285 388 l 0
 187 388 l 0
 187 117 l 0
 187 61 205 49 235 49 c 0
 253 49 270 52 285 57 c 0
 285 0 l 0
EndSplineSet
Comment: "mark: 1+AAoA" 
EndChar

StartChar: u
Encoding: 88 117 86
Width: 510
VWidth: 0
GlyphClass: 4
Flags: HW
LayerCount: 2
Fore
SplineSet
448 0 m 0
 367 0 l 0
 367 57 l 0
 343 18 304 -12 232 -12 c 0
 111 -12 61 48 61 151 c 0
 61 445 l 0
 142 445 l 0
 142 150 l 0
 142 88 193 42 249 42 c 0
 313 42 367 88 367 159 c 0
 367 445 l 0
 448 445 l 0
 448 0 l 0
EndSplineSet
Comment: "mark: 1+AAoA" 
EndChar

StartChar: v
Encoding: 89 118 87
Width: 477
VWidth: 0
GlyphClass: 4
Flags: HW
LayerCount: 2
Fore
SplineSet
463 445 m 0
 279 0 l 0
 198 0 l 0
 13 445 l 0
 106 445 l 0
 243 97 l 0
 378 445 l 0
 463 445 l 0
EndSplineSet
Comment: "mark: 1+AAoA" 
EndChar

StartChar: w
Encoding: 90 119 88
Width: 724
VWidth: 0
GlyphClass: 4
Flags: HW
LayerCount: 2
Fore
SplineSet
711 445 m 0
 561 0 l 0
 481 0 l 0
 363 369 l 0
 243 0 l 0
 163 0 l 0
 13 445 l 0
 99 445 l 0
 204 97 l 0
 309 445 l 0
 415 445 l 0
 520 97 l 0
 627 445 l 0
 711 445 l 0
EndSplineSet
Comment: "mark: 1+AAoA" 
EndChar

StartChar: x
Encoding: 91 120 89
Width: 487
VWidth: 0
GlyphClass: 4
Flags: W
HStem: 0 21G<18 125.4 352.143 469> 425 20G<31 146.625 349.625 457>
DStem2: 18 0 111 0 0.613818 0.789448<57.0851 57.0851 366.785 563.685> 132 445 31 445 0.60372 -0.797197<0 198.187 278.634 496.627>
LayerCount: 2
Fore
SplineSet
469 0 m 0
 367 0 l 0
 237 175 l 0
 111 0 l 0
 18 0 l 0
 195 231 l 0
 31 445 l 0
 132 445 l 0
 249 285 l 0
 364 445 l 0
 457 445 l 0
 292 231 l 0
 469 0 l 0
EndSplineSet
Comment: "mark: 1+AAoA" 
EndChar

StartChar: y
Encoding: 92 121 90
Width: 477
VWidth: 0
GlyphClass: 4
Flags: HW
LayerCount: 2
Fore
SplineSet
463 445 m 0
 249 -99 l 0
 231 -146 207 -182 142 -182 c 0
 85 -182 46 -150 22 -101 c 0
 85 -68 l 0
 98 -94 115 -111 141 -111 c 0
 160 -111 172 -90 186 -51 c 0
 204 0 l 0
 13 445 l 0
 106 445 l 0
 246 109 l 0
 376 445 l 0
 463 445 l 0
EndSplineSet
Comment: "mark: 1+AAoA" 
EndChar

StartChar: z
Encoding: 93 122 91
Width: 417
VWidth: 0
GlyphClass: 4
Flags: HW
LayerCount: 2
Fore
SplineSet
372 0 m 0
 45 0 l 0
 45 73 l 0
 280 382 l 0
 61 382 l 0
 61 445 l 0
 372 445 l 0
 372 372 l 0
 133 61 l 0
 372 61 l 0
 372 0 l 0
EndSplineSet
Comment: "mark: 1+AAoA" 
EndChar

StartChar: braceleft
Encoding: 94 123 92
Width: 406
VWidth: 0
GlyphClass: 4
Flags: HW
LayerCount: 2
Fore
SplineSet
351 -443 m 0
 190 -443 180 -227 180 46 c 0
 180 149 70 178 70 225 c 0
 70 270 180 301 180 403 c 0
 180 676 190 892 351 892 c 0
 351 843 l 0
 247 843 231 680 231 388 c 0
 231 276 121 241 121 225 c 0
 121 209 231 173 231 61 c 0
 231 -230 247 -393 351 -393 c 0
 351 -443 l 0
EndSplineSet
Comment: "GDL_order: 0+AAoA-mark: 80+AAoA" 
EndChar

StartChar: bar
Encoding: 95 124 93
Width: 307
VWidth: 0
GlyphClass: 4
Flags: HW
LayerCount: 2
Fore
SplineSet
177 -230 m 0
 130 -230 l 0
 130 709 l 0
 177 709 l 0
 177 -230 l 0
EndSplineSet
Comment: "mark: 1+AAoA" 
EndChar

StartChar: braceright
Encoding: 96 125 94
Width: 406
VWidth: 0
GlyphClass: 4
Flags: HW
LayerCount: 2
Fore
SplineSet
336 225 m 0
 336 178 226 149 226 46 c 0
 226 -227 216 -443 55 -443 c 0
 55 -393 l 0
 159 -393 175 -230 175 61 c 0
 175 173 285 209 285 225 c 0
 285 241 175 276 175 388 c 0
 175 680 159 843 55 843 c 0
 55 892 l 0
 216 892 226 676 226 403 c 0
 226 301 336 270 336 225 c 0
EndSplineSet
Comment: "GDL_order: 0+AAoA-mark: 80+AAoA" 
EndChar

StartChar: asciitilde
Encoding: 97 126 95
Width: 562
VWidth: 0
GlyphClass: 4
Flags: HW
LayerCount: 2
Fore
SplineSet
507 238 m 0
 462 195 416 178 373 178 c 0
 292 178 239 241 193 241 c 0
 161 241 137 234 70 183 c 0
 55 220 l 0
 106 264 142 282 193 282 c 0
 262 282 297 219 373 219 c 0
 407 219 432 230 481 268 c 0
 507 238 l 0
EndSplineSet
Comment: "GDL_order: 0+AAoA-mark: 80+AAoA" 
EndChar

StartChar: multiply
Encoding: 98 215 96
Width: 495
VWidth: 0
GlyphClass: 4
Flags: HW
LayerCount: 2
Fore
SplineSet
400 105 m 0
 364 69 l 0
 247 186 l 0
 130 69 l 0
 93 106 l 0
 210 223 l 0
 93 340 l 0
 129 376 l 0
 246 259 l 0
 364 378 l 0
 402 340 l 0
 283 222 l 0
 400 105 l 0
EndSplineSet
Comment: "GDL_order: 0+AAoA-mark: 80+AAoA" 
EndChar

StartChar: u1000
Encoding: 99 4096 97
Width: 1002
VWidth: 0
GlyphClass: 2
Flags: HW
AnchorPoint: "R" 0 0 mark 0
AnchorPoint: "BS" 714 -53 basechar 0
AnchorPoint: "L" 714 -53 basechar 0
AnchorPoint: "BD" 508 -53 basechar 0
AnchorPoint: "U" 714 495 basechar 0
LayerCount: 2
Fore
SplineSet
946 222 m 0
 946 91 840 -15 714 -15 c 0
 690 -15 666 -11 643 0 c 0
 663 46 l 0
 679 39 697 36 714 36 c 0
 814 36 895 120 895 222 c 0
 895 324 814 408 714 408 c 0
 615 408 529 294 529 192 c 0
 528 85 487 28 432 -15 c 0
 402 28 l 0
 448 70 478 126 478 202 c 0
 478 322 394 406 292 406 c 0
 190 406 106 322 106 202 c 0
 106 126 136 70 183 28 c 0
 153 -15 l 0
 97 31 55 90 55 202 c 0
 55 355 162 457 292 457 c 0
 388 457 471 403 508 313 c 0
 549 396 625 459 714 459 c 0
 840 459 946 351 946 222 c 0
EndSplineSet
Substitution2: "sub_single_cligmymr_2 subtable" u1000.kham
Ligature2: "LigatureSubstitutionlookup169 subtable" u1000 u103C
Ligature2: "LigatureSubstitutionlookup167 subtable" u1000 u103C u1031
Ligature2: "LigatureSubstitutionlookup167 subtable" u1000 u103C.wide u1031
Ligature2: "LigatureSubstitutionlookup167 subtable" u1000 u103C_u103D.narr u1031
Ligature2: "LigatureSubstitutionlookup167 subtable" u1000 u103C_u103D.wide u1031
Ligature2: "LigatureSubstitutionlookup165 subtable" u1000 u103C
Ligature2: "LigatureSubstitutionlookup165 subtable" u1000 u103C_u103D.narr
Ligature2: "LigatureSubstitutionlookup165 subtable" u1000 u103C_u102F.narr
Ligature2: "LigatureSubstitutionlookup163 subtable" u1000 u1031
Ligature2: "LigatureSubstitutionlookup163 subtable" u1000 u1084
Ligature2: "LigatureSubstitutionlookup162 subtable" u1000 u103D
Ligature2: "LigatureSubstitutionlookup162 subtable" u1000 u103E
Ligature2: "LigatureSubstitutionlookup162 subtable" u1000 u103D_u103E
Ligature2: "LigatureSubstitutionlookup162 subtable" u1000
Ligature2: "LigatureSubstitutionlookup162 subtable" u1000 u105F
Ligature2: "LigatureSubstitutionlookup162 subtable" u1000 u1060
Ligature2: "LigatureSubstitutionlookup162 subtable" u1000 u1082
Ligature2: "LigatureSubstitutionlookup158 subtable" u1000 u1039
Ligature2: "LigatureSubstitutionlookup130 subtable" u1004.kinzi u200D u1000
Ligature2: "LigatureSubstitutionlookup130 subtable" u101B.kinzi u200D u1000
Ligature2: "LigatureSubstitutionlookup127 subtable" u1004.kinzi u200D u1000
Ligature2: "LigatureSubstitutionlookup127 subtable" u101B.kinzi u200D u1000
Ligature2: "LigatureSubstitutionlookup124 subtable" u1004.kinzi u200D u1000
Ligature2: "LigatureSubstitutionlookup124 subtable" u101B.kinzi u200D u1000
MultipleSubs2: "MultipleSubstitutionlookup139 subtable" u200C u1031 u1000
MultipleSubs2: "MultipleSubstitutionlookup137 subtable" u200C u1084 u1000
MultipleSubs2: "MultipleSubstitutionlookup136 subtable" u200C u103C_u103D.wide u1000
MultipleSubs2: "MultipleSubstitutionlookup135 subtable" u200C u103C_u102F.wide u1000
MultipleSubs2: "MultipleSubstitutionlookup134 subtable" u200C u103C.wide u1000
MultipleSubs2: "MultipleSubstitutionlookup129 subtable" u1000 u101B.kinzi
MultipleSubs2: "MultipleSubstitutionlookup128 subtable" u1000 u1004.kinzi
Comment: "GDL_order: 1+AAoA-mark: 80+AAoA" 
EndChar

StartChar: u1000.med
Encoding: 100 -1 98
Width: 0
VWidth: 0
GlyphClass: 4
Flags: HW
AnchorPoint: "LLM" -872 -53 basemark 0
AnchorPoint: "LL" -872 -53 basemark 0
AnchorPoint: "BD" -393 -53 mark 0
AnchorPoint: "BSM" 88 -53 basemark 0
AnchorPoint: "LM" 88 -53 basemark 0
AnchorPoint: "L" 88 -53 basemark 0
AnchorPoint: "BDM" -393 -53 basemark 0
AnchorPoint: "BSM" -393 -53 mark 0
AnchorPoint: "BDM" -393 -53 mark 0
LayerCount: 2
Fore
SplineSet
-56 -267 m 0
 -56 -369 -138 -450 -236 -450 c 0
 -255 -450 -273 -447 -290 -438 c 0
 -273 -402 l 0
 -261 -408 -248 -410 -236 -410 c 0
 -159 -410 -95 -345 -95 -267 c 0
 -95 -189 -159 -125 -236 -125 c 0
 -312 -125 -377 -210 -377 -290 c 0
 -377 -372 -410 -416 -452 -450 c 0
 -476 -417 l 0
 -440 -383 -417 -341 -417 -282 c 0
 -417 -186 -482 -125 -560 -125 c 0
 -639 -125 -704 -186 -704 -282 c 0
 -704 -341 -678 -383 -644 -417 c 0
 -668 -450 l 0
 -711 -414 -743 -368 -743 -282 c 0
 -743 -167 -662 -86 -560 -86 c 0
 -486 -86 -422 -126 -393 -197 c 0
 -362 -132 -303 -86 -236 -86 c 0
 -138 -86 -56 -165 -56 -267 c 0
EndSplineSet
Ligature2: "LigatureSubstitutionlookup179 subtable" u1000.med u102D
Ligature2: "LigatureSubstitutionlookup179 subtable" u1000.med u102E
Ligature2: "LigatureSubstitutionlookup179 subtable" u1000.med u1032
Ligature2: "LigatureSubstitutionlookup179 subtable" u1000.med u103A
Ligature2: "LigatureSubstitutionlookup171 subtable" u1000.med u103C u1031
Ligature2: "LigatureSubstitutionlookup159 subtable" u1000.med u1031
Ligature2: "LigatureSubstitutionlookup159 subtable" u1000.med u103C
Ligature2: "sub_ligature_cligmymr_0 subtable" u1039 u1000
MultipleSubs2: "MultipleSubstitutionlookup138 subtable" u1039 u1000.med
Comment: "GDL_order: 2+AAoA-mark: 80+AAoA" 
EndChar

StartChar: u1000_u1001_u103B
Encoding: 101 -1 99
Width: 1147
VWidth: 0
GlyphClass: 2
Flags: HW
AnchorPoint: "R" 0 0 mark 0
AnchorPoint: "BS" 1236 -53 basechar 0
AnchorPoint: "LL" 394 -53 basechar 0
AnchorPoint: "L" 1236 -53 basechar 0
AnchorPoint: "U" 940 495 basechar 0
AnchorPoint: "BD" 1236 -53 basechar 0
LayerCount: 2
Fore
SplineSet
1092 -450 m 0
 838 -384 l 0
 807 -416 762 -435 714 -435 c 0
 595 -435 538 -341 538 -305 c 0
 581 -279 619 -264 660 -264 c 0
 715 -264 787 -304 814 -353 c 0
 843 -324 856 -291 856 -252 c 0
 856 -174 793 -110 714 -110 c 0
 660 -110 606 -140 577 -195 c 0
 544 -174 l 0
 573 -107 648 -69 714 -69 c 0
 814 -69 895 -150 895 -252 c 0
 895 -284 888 -314 873 -339 c 0
 1041 -384 l 0
 1041 444 l 0
 1092 444 l 0
 1092 -450 l 0
946 222 m 0
 946 91 841 -15 714 -15 c 0
 690 -15 666 -8 643 0 c 0
 663 46 l 0
 679 42 697 36 714 36 c 0
 814 36 895 120 895 222 c 0
 895 324 814 408 714 408 c 0
 615 408 530 294 529 192 c 0
 527 87 487 28 432 -15 c 0
 402 28 l 0
 447 70 478 126 478 202 c 0
 478 324 394 406 292 406 c 0
 190 406 106 324 106 202 c 0
 106 126 138 70 183 28 c 0
 153 -15 l 0
 97 30 55 91 55 202 c 0
 55 355 162 457 292 457 c 0
 388 457 469 402 508 313 c 0
 549 394 627 459 714 459 c 0
 841 459 946 351 946 222 c 0
787 -377 m 0
 762 -331 712 -300 657 -300 c 0
 631 -300 606 -308 582 -321 c 0
 604 -369 661 -395 714 -395 c 0
 739 -395 765 -387 787 -377 c 0
EndSplineSet
Ligature2: "sub_ligature_cligmymr_4 subtable" u1000 u1001.med u103B
Comment: "GDL_order: 1+AAoA-mark: 80+AAoA" 
EndChar

StartChar: u1000_u103B_u1015_u103A
Encoding: 102 -1 100
Width: 1716
VWidth: 0
GlyphClass: 2
Flags: HW
AnchorPoint: "R" 0 0 mark 0
LayerCount: 2
Fore
SplineSet
1092 -450 m 0
 778 -369 l 0
 778 -6 l 0
 757 -12 736 -15 714 -15 c 0
 690 -15 666 -11 643 0 c 0
 663 46 l 0
 679 39 697 36 714 36 c 0
 814 36 895 120 895 222 c 0
 895 324 814 408 714 408 c 0
 615 408 529 294 529 192 c 0
 528 85 487 28 432 -15 c 0
 402 28 l 0
 448 70 478 126 478 202 c 0
 478 322 394 406 292 406 c 0
 190 406 106 322 106 202 c 0
 106 126 136 70 183 28 c 0
 153 -15 l 0
 97 31 55 90 55 202 c 0
 55 355 162 457 292 457 c 0
 388 457 468 403 508 313 c 0
 549 396 625 459 714 459 c 0
 840 459 946 351 946 222 c 0
 946 132 900 57 829 16 c 0
 829 -329 l 0
 1041 -384 l 0
 1041 444 l 0
 1092 444 l 0
 1092 -450 l 0
1660 240 m 0
 1660 87 1554 -15 1423 -15 c 0
 1293 -15 1186 87 1186 240 c 0
 1186 349 1225 411 1284 457 c 0
 1314 414 l 0
 1267 372 1237 316 1237 240 c 0
 1237 120 1321 36 1423 36 c 0
 1525 36 1609 120 1609 240 c 0
 1609 316 1579 372 1533 414 c 0
 1563 457 l 0
 1618 411 1660 349 1660 240 c 0
1645 826 m 0
 1617 802 l 0
 1587 849 1543 864 1509 864 c 0
 1443 864 1369 808 1369 720 c 0
 1369 610 1482 571 1513 571 c 0
 1513 532 l 0
 1440 532 1330 598 1330 720 c 0
 1330 828 1417 903 1509 903 c 0
 1569 903 1623 873 1645 826 c 0
EndSplineSet
Comment: "GDL_order: 1+AAoA-mark: 80+AAoA" 
EndChar

StartChar: u1001
Encoding: 103 4097 101
Width: 576
VWidth: 0
GlyphClass: 2
Flags: HW
AnchorPoint: "R" 0 0 mark 0
AnchorPoint: "BS" 283 -53 basechar 0
AnchorPoint: "L" 283 -53 basechar 0
AnchorPoint: "U" 283 495 basechar 0
AnchorPoint: "BD" 283 -53 basechar 0
LayerCount: 2
Fore
SplineSet
520 222 m 0
 520 91 414 -15 283 -15 c 0
 169 -15 72 54 55 153 c 0
 111 187 167 204 210 204 c 0
 303 204 383 147 417 91 c 0
 449 126 469 170 469 222 c 0
 469 323 386 408 283 408 c 0
 214 408 140 366 106 297 c 0
 63 322 l 0
 98 406 191 459 283 459 c 0
 414 459 520 351 520 222 c 0
374 59 m 0
 345 114 278 153 213 153 c 0
 185 153 148 145 115 127 c 0
 151 66 215 36 283 36 c 0
 318 36 346 44 374 59 c 0
EndSplineSet
Position2: "SinglePositioninglookup48 per glyph data 0" dx=100 dy=0 dh=50 dv=0
PairPos2: "PairwisePositioningkerninglooku subtable" uAA60.med.kham dx=-90 dy=0 dh=0 dv=0 dx=0 dy=0 dh=90 dv=0
PairPos2: "PairwisePositioningkerninglooku subtable" uAA60.med dx=-90 dy=0 dh=0 dv=0 dx=0 dy=0 dh=90 dv=0
PairPos2: "PairwisePositioningkerninglooku subtable" u1021.med dx=-90 dy=0 dh=0 dv=0 dx=0 dy=0 dh=90 dv=0
PairPos2: "PairwisePositioningkerninglooku subtable" u101E.med dx=-90 dy=0 dh=0 dv=0 dx=0 dy=0 dh=90 dv=0
PairPos2: "PairwisePositioningkerninglooku subtable" u101C.med dx=-90 dy=0 dh=0 dv=0 dx=0 dy=0 dh=90 dv=0
PairPos2: "PairwisePositioningkerninglooku subtable" u101A.med dx=-90 dy=0 dh=0 dv=0 dx=0 dy=0 dh=90 dv=0
PairPos2: "PairwisePositioningkerninglooku subtable" u1018.med dx=-90 dy=0 dh=0 dv=0 dx=0 dy=0 dh=90 dv=0
PairPos2: "PairwisePositioningkerninglooku subtable" u1011.med dx=-90 dy=0 dh=0 dv=0 dx=0 dy=0 dh=90 dv=0
PairPos2: "PairwisePositioningkerninglooku subtable" u1010.med dx=-90 dy=0 dh=0 dv=0 dx=0 dy=0 dh=90 dv=0
PairPos2: "PairwisePositioningkerninglooku subtable" u100F.med dx=-90 dy=0 dh=0 dv=0 dx=0 dy=0 dh=90 dv=0
PairPos2: "PairwisePositioningkerninglooku subtable" u100C.med dx=-90 dy=0 dh=0 dv=0 dx=0 dy=0 dh=90 dv=0
PairPos2: "PairwisePositioningkerninglooku subtable" u100A.med dx=-90 dy=0 dh=0 dv=0 dx=0 dy=0 dh=90 dv=0
PairPos2: "PairwisePositioningkerninglooku subtable" u1006.med dx=-90 dy=0 dh=0 dv=0 dx=0 dy=0 dh=90 dv=0
PairPos2: "PairwisePositioningkerninglooku subtable" u1003.med dx=-90 dy=0 dh=0 dv=0 dx=0 dy=0 dh=90 dv=0
PairPos2: "PairwisePositioningkerninglooku subtable" u1000.med dx=-90 dy=0 dh=0 dv=0 dx=0 dy=0 dh=90 dv=0
Position2: "SinglePositioninglookup30 subtable" dx=140 dy=0 dh=140 dv=0
Ligature2: "LigatureSubstitutionlookup169 subtable" u1001 u103C
Ligature2: "LigatureSubstitutionlookup167 subtable" u1001 u103C u1031
Ligature2: "LigatureSubstitutionlookup167 subtable" u1001 u103C.wide u1031
Ligature2: "LigatureSubstitutionlookup167 subtable" u1001 u103C_u103D.narr u1031
Ligature2: "LigatureSubstitutionlookup167 subtable" u1001 u103C_u103D.wide u1031
Ligature2: "LigatureSubstitutionlookup165 subtable" u1001 u103C
Ligature2: "LigatureSubstitutionlookup165 subtable" u1001 u103C_u103D.narr
Ligature2: "LigatureSubstitutionlookup165 subtable" u1001 u103C_u102F.narr
Ligature2: "LigatureSubstitutionlookup163 subtable" u1001 u1031
Ligature2: "LigatureSubstitutionlookup163 subtable" u1001 u1084
Ligature2: "LigatureSubstitutionlookup162 subtable" u1001 u103D
Ligature2: "LigatureSubstitutionlookup162 subtable" u1001 u103E
Ligature2: "LigatureSubstitutionlookup162 subtable" u1001 u103D_u103E
Ligature2: "LigatureSubstitutionlookup162 subtable" u1001
Ligature2: "LigatureSubstitutionlookup162 subtable" u1001 u105F
Ligature2: "LigatureSubstitutionlookup162 subtable" u1001 u1060
Ligature2: "LigatureSubstitutionlookup162 subtable" u1001 u1082
Ligature2: "LigatureSubstitutionlookup158 subtable" u1001 u1039
Ligature2: "LigatureSubstitutionlookup130 subtable" u1004.kinzi u200D u1001
Ligature2: "LigatureSubstitutionlookup130 subtable" u101B.kinzi u200D u1001
Ligature2: "LigatureSubstitutionlookup127 subtable" u1004.kinzi u200D u1001
Ligature2: "LigatureSubstitutionlookup127 subtable" u101B.kinzi u200D u1001
Ligature2: "LigatureSubstitutionlookup124 subtable" u1004.kinzi u200D u1001
Ligature2: "LigatureSubstitutionlookup124 subtable" u101B.kinzi u200D u1001
MultipleSubs2: "MultipleSubstitutionlookup139 subtable" u200C u1031 u1001
MultipleSubs2: "MultipleSubstitutionlookup137 subtable" u200C u1084 u1001
MultipleSubs2: "MultipleSubstitutionlookup136 subtable" u200C u103C_u103D.narr u1001
MultipleSubs2: "MultipleSubstitutionlookup135 subtable" u200C u103C_u102F.narr u1001
MultipleSubs2: "MultipleSubstitutionlookup134 subtable" u200C u103C u1001
MultipleSubs2: "MultipleSubstitutionlookup129 subtable" u1001 u101B.kinzi
MultipleSubs2: "MultipleSubstitutionlookup128 subtable" u1001 u1004.kinzi
Comment: "GDL_order: 1+AAoA-mark: 80+AAoA" 
EndChar

StartChar: u1001.med
Encoding: 104 -1 102
Width: 0
VWidth: 0
GlyphClass: 4
Flags: W
HStem: -450 40<-315.207 -165.783> -315 35<-362.016 -225.878> -125 41<-311.255 -166.297>
VStem: -95 39<-339.102 -195.941>
AnchorPoint: "BS" -237 -53 mark 0
AnchorPoint: "LLM" -557 -53 basemark 0
AnchorPoint: "LL" -557 -53 basemark 0
AnchorPoint: "BSM" -237 -53 mark 0
AnchorPoint: "LM" 88 -53 basemark 0
AnchorPoint: "L" 88 -53 basemark 0
AnchorPoint: "BSM" -237 -53 basemark 0
LayerCount: 2
Fore
SplineSet
-56 -267 m 0
 -56 -369 -137 -450 -237 -450 c 0
 -349 -450 -413 -364 -413 -320 c 0
 -375 -296 -335 -280 -291 -280 c 0
 -234 -280 -168 -315 -137 -368 c 0
 -108 -339 -95 -306 -95 -267 c 0
 -95 -189 -158 -125 -237 -125 c 0
 -291 -125 -345 -155 -374 -210 c 0
 -407 -189 l 0
 -378 -122 -303 -84 -237 -84 c 0
 -137 -84 -56 -165 -56 -267 c 0
-164 -392 m 0
 -189 -346 -239 -315 -294 -315 c 0
 -320 -315 -345 -323 -369 -336 c 0
 -347 -384 -290 -410 -237 -410 c 0
 -212 -410 -186 -402 -164 -392 c 0
EndSplineSet
Ligature2: "LigatureSubstitutionlookup179 subtable" u1001.med u102D
Ligature2: "LigatureSubstitutionlookup179 subtable" u1001.med u102E
Ligature2: "LigatureSubstitutionlookup179 subtable" u1001.med u1032
Ligature2: "LigatureSubstitutionlookup179 subtable" u1001.med u103A
Ligature2: "LigatureSubstitutionlookup171 subtable" u1001.med u103C u1031
Ligature2: "LigatureSubstitutionlookup159 subtable" u1001.med u1031
Ligature2: "LigatureSubstitutionlookup159 subtable" u1001.med u103C
Ligature2: "sub_ligature_cligmymr_0 subtable" u1039 u1001
MultipleSubs2: "MultipleSubstitutionlookup138 subtable" u1039 u1001.med
Comment: "GDL_order: 2+AAoA-mark: 80+AAoA" 
EndChar

StartChar: u1002
Encoding: 105 4098 103
Width: 585
VWidth: 0
GlyphClass: 2
Flags: W
HStem: 406 51<206.554 377.652>
VStem: 55 51<99.7477 299.309> 478 51<99.7477 299.309>
AnchorPoint: "R" 0 0 mark 0
AnchorPoint: "BS" 292 -53 basechar 0
AnchorPoint: "L" 292 -53 basechar 0
AnchorPoint: "U" 292 495 basechar 0
AnchorPoint: "BD" 292 -53 basechar 0
LayerCount: 2
Fore
SplineSet
529 202 m 0
 529 90 490 31 432 -15 c 0
 402 28 l 0
 448 70 478 126 478 202 c 0
 478 322 394 406 292 406 c 0
 190 406 106 322 106 202 c 0
 106 126 136 70 183 28 c 0
 153 -15 l 0
 97 31 55 90 55 202 c 0
 55 355 162 457 292 457 c 0
 423 457 529 355 529 202 c 0
EndSplineSet
Position2: "SinglePositioninglookup48 per glyph data 0" dx=100 dy=0 dh=50 dv=0
Position2: "SinglePositioninglookup30 subtable" dx=140 dy=0 dh=140 dv=0
PairPos2: "PairwisePositioningkerninglooku subtable" uAA60.med.kham dx=-90 dy=0 dh=0 dv=0 dx=0 dy=0 dh=90 dv=0
PairPos2: "PairwisePositioningkerninglooku subtable" uAA60.med dx=-90 dy=0 dh=0 dv=0 dx=0 dy=0 dh=90 dv=0
PairPos2: "PairwisePositioningkerninglooku subtable" u1021.med dx=-90 dy=0 dh=0 dv=0 dx=0 dy=0 dh=90 dv=0
PairPos2: "PairwisePositioningkerninglooku subtable" u101E.med dx=-90 dy=0 dh=0 dv=0 dx=0 dy=0 dh=90 dv=0
PairPos2: "PairwisePositioningkerninglooku subtable" u101C.med dx=-90 dy=0 dh=0 dv=0 dx=0 dy=0 dh=90 dv=0
PairPos2: "PairwisePositioningkerninglooku subtable" u101A.med dx=-90 dy=0 dh=0 dv=0 dx=0 dy=0 dh=90 dv=0
PairPos2: "PairwisePositioningkerninglooku subtable" u1018.med dx=-90 dy=0 dh=0 dv=0 dx=0 dy=0 dh=90 dv=0
PairPos2: "PairwisePositioningkerninglooku subtable" u1011.med dx=-90 dy=0 dh=0 dv=0 dx=0 dy=0 dh=90 dv=0
PairPos2: "PairwisePositioningkerninglooku subtable" u1010.med dx=-90 dy=0 dh=0 dv=0 dx=0 dy=0 dh=90 dv=0
PairPos2: "PairwisePositioningkerninglooku subtable" u100F.med dx=-90 dy=0 dh=0 dv=0 dx=0 dy=0 dh=90 dv=0
PairPos2: "PairwisePositioningkerninglooku subtable" u100C.med dx=-90 dy=0 dh=0 dv=0 dx=0 dy=0 dh=90 dv=0
PairPos2: "PairwisePositioningkerninglooku subtable" u100A.med dx=-90 dy=0 dh=0 dv=0 dx=0 dy=0 dh=90 dv=0
PairPos2: "PairwisePositioningkerninglooku subtable" u1006.med dx=-90 dy=0 dh=0 dv=0 dx=0 dy=0 dh=90 dv=0
PairPos2: "PairwisePositioningkerninglooku subtable" u1003.med dx=-90 dy=0 dh=0 dv=0 dx=0 dy=0 dh=90 dv=0
PairPos2: "PairwisePositioningkerninglooku subtable" u1000.med dx=-90 dy=0 dh=0 dv=0 dx=0 dy=0 dh=90 dv=0
Substitution2: "sub_single_cligmymr_2 subtable" u1002.kham
Ligature2: "LigatureSubstitutionlookup169 subtable" u1002 u103C
Ligature2: "LigatureSubstitutionlookup167 subtable" u1002 u103C u1031
Ligature2: "LigatureSubstitutionlookup167 subtable" u1002 u103C.wide u1031
Ligature2: "LigatureSubstitutionlookup167 subtable" u1002 u103C_u103D.narr u1031
Ligature2: "LigatureSubstitutionlookup167 subtable" u1002 u103C_u103D.wide u1031
Ligature2: "LigatureSubstitutionlookup165 subtable" u1002 u103C
Ligature2: "LigatureSubstitutionlookup165 subtable" u1002 u103C_u103D.narr
Ligature2: "LigatureSubstitutionlookup165 subtable" u1002 u103C_u102F.narr
Ligature2: "LigatureSubstitutionlookup163 subtable" u1002 u1031
Ligature2: "LigatureSubstitutionlookup163 subtable" u1002 u1084
Ligature2: "LigatureSubstitutionlookup162 subtable" u1002 u103D
Ligature2: "LigatureSubstitutionlookup162 subtable" u1002 u103E
Ligature2: "LigatureSubstitutionlookup162 subtable" u1002 u103D_u103E
Ligature2: "LigatureSubstitutionlookup162 subtable" u1002
Ligature2: "LigatureSubstitutionlookup162 subtable" u1002 u105F
Ligature2: "LigatureSubstitutionlookup162 subtable" u1002 u1060
Ligature2: "LigatureSubstitutionlookup162 subtable" u1002 u1082
Ligature2: "LigatureSubstitutionlookup158 subtable" u1002 u1039
Ligature2: "LigatureSubstitutionlookup130 subtable" u1004.kinzi u200D u1002
Ligature2: "LigatureSubstitutionlookup130 subtable" u101B.kinzi u200D u1002
Ligature2: "LigatureSubstitutionlookup127 subtable" u1004.kinzi u200D u1002
Ligature2: "LigatureSubstitutionlookup127 subtable" u101B.kinzi u200D u1002
Ligature2: "LigatureSubstitutionlookup124 subtable" u1004.kinzi u200D u1002
Ligature2: "LigatureSubstitutionlookup124 subtable" u101B.kinzi u200D u1002
MultipleSubs2: "MultipleSubstitutionlookup139 subtable" u200C u1031 u1002
MultipleSubs2: "MultipleSubstitutionlookup137 subtable" u200C u1084 u1002
MultipleSubs2: "MultipleSubstitutionlookup136 subtable" u200C u103C_u103D.narr u1002
MultipleSubs2: "MultipleSubstitutionlookup135 subtable" u200C u103C_u102F.narr u1002
MultipleSubs2: "MultipleSubstitutionlookup134 subtable" u200C u103C u1002
MultipleSubs2: "MultipleSubstitutionlookup129 subtable" u1002 u101B.kinzi
MultipleSubs2: "MultipleSubstitutionlookup128 subtable" u1002 u1004.kinzi
Comment: "GDL_order: 1+AAoA-mark: 80+AAoA" 
EndChar

StartChar: u1002.med
Encoding: 106 -1 104
Width: 0
VWidth: 0
GlyphClass: 4
Flags: W
HStem: -125 39<-310.629 -168.21>
VStem: -422 40<-363.414 -199.595> -96 40<-366.058 -201.603>
AnchorPoint: "BS" -239 -53 mark 0
AnchorPoint: "LLM" -566 -53 basemark 0
AnchorPoint: "BSM" -239 -53 mark 0
AnchorPoint: "LM" 88 -53 basemark 0
AnchorPoint: "BS" 238 -53 basemark 0
AnchorPoint: "BSM" 565 -53 basemark 0
LayerCount: 2
Fore
SplineSet
-56 -282 m 0
 -56 -369 -87 -414 -131 -450 c 0
 -155 -417 l 0
 -119 -384 -96 -341 -96 -282 c 0
 -96 -202 -149 -125 -239 -125 c 0
 -319 -125 -382 -189 -382 -281 c 0
 -382 -340 -356 -384 -323 -417 c 0
 -347 -450 l 0
 -391 -414 -422 -369 -422 -282 c 0
 -422 -167 -341 -86 -239 -86 c 0
 -137 -86 -56 -167 -56 -282 c 0
EndSplineSet
Ligature2: "LigatureSubstitutionlookup179 subtable" u1002.med u102D
Ligature2: "LigatureSubstitutionlookup179 subtable" u1002.med u102E
Ligature2: "LigatureSubstitutionlookup179 subtable" u1002.med u1032
Ligature2: "LigatureSubstitutionlookup179 subtable" u1002.med u103A
Ligature2: "LigatureSubstitutionlookup171 subtable" u1002.med u103C u1031
Ligature2: "LigatureSubstitutionlookup159 subtable" u1002.med u1031
Ligature2: "LigatureSubstitutionlookup159 subtable" u1002.med u103C
Ligature2: "sub_ligature_cligmymr_0 subtable" u1039 u1002
MultipleSubs2: "MultipleSubstitutionlookup138 subtable" u1039 u1002.med
Comment: "GDL_order: 2+AAoA-mark: 80+AAoA" 
EndChar

StartChar: u1003
Encoding: 107 4099 105
Width: 999
VWidth: 0
GlyphClass: 2
Flags: HW
AnchorPoint: "R" 0 0 mark 0
AnchorPoint: "BS" 712 -53 basechar 0
AnchorPoint: "L" 712 -53 basechar 0
AnchorPoint: "BD" 495 -53 basechar 0
AnchorPoint: "U" 712 495 basechar 0
LayerCount: 2
Fore
SplineSet
943 222 m 0
 943 91 837 -15 711 -15 c 0
 622 -15 543 46 501 130 c 0
 463 40 381 -15 285 -15 c 0
 144 -15 55 88 55 168 c 0
 55 294 195 285 195 339 c 0
 195 388 166 405 142 405 c 0
 118 405 100 382 99 375 c 0
 55 402 l 0
 61 422 106 456 142 456 c 0
 196 456 246 415 246 339 c 0
 246 243 106 255 106 168 c 0
 106 144 156 36 285 36 c 0
 403 36 471 135 471 252 c 0
 471 321 434 380 394 414 c 0
 424 457 l 0
 480 412 522 347 522 240 c 0
 522 148 616 36 711 36 c 0
 811 36 892 120 892 222 c 0
 892 324 811 408 711 408 c 0
 694 408 676 405 660 397 c 0
 640 444 l 0
 663 454 687 459 711 459 c 0
 837 459 943 351 943 222 c 0
EndSplineSet
Ligature2: "LigatureSubstitutionlookup169 subtable" u1003 u103C
Ligature2: "LigatureSubstitutionlookup167 subtable" u1003 u103C u1031
Ligature2: "LigatureSubstitutionlookup167 subtable" u1003 u103C.wide u1031
Ligature2: "LigatureSubstitutionlookup167 subtable" u1003 u103C_u103D.narr u1031
Ligature2: "LigatureSubstitutionlookup167 subtable" u1003 u103C_u103D.wide u1031
Ligature2: "LigatureSubstitutionlookup165 subtable" u1003 u103C
Ligature2: "LigatureSubstitutionlookup165 subtable" u1003 u103C_u103D.narr
Ligature2: "LigatureSubstitutionlookup165 subtable" u1003 u103C_u102F.narr
Ligature2: "LigatureSubstitutionlookup163 subtable" u1003 u1031
Ligature2: "LigatureSubstitutionlookup163 subtable" u1003 u1084
Ligature2: "LigatureSubstitutionlookup162 subtable" u1003 u103D
Ligature2: "LigatureSubstitutionlookup162 subtable" u1003 u103E
Ligature2: "LigatureSubstitutionlookup162 subtable" u1003 u103D_u103E
Ligature2: "LigatureSubstitutionlookup162 subtable" u1003
Ligature2: "LigatureSubstitutionlookup162 subtable" u1003 u105F
Ligature2: "LigatureSubstitutionlookup162 subtable" u1003 u1060
Ligature2: "LigatureSubstitutionlookup162 subtable" u1003 u1082
Ligature2: "LigatureSubstitutionlookup158 subtable" u1003 u1039
Ligature2: "LigatureSubstitutionlookup130 subtable" u1004.kinzi u200D u1003
Ligature2: "LigatureSubstitutionlookup130 subtable" u101B.kinzi u200D u1003
Ligature2: "LigatureSubstitutionlookup127 subtable" u1004.kinzi u200D u1003
Ligature2: "LigatureSubstitutionlookup127 subtable" u101B.kinzi u200D u1003
Ligature2: "LigatureSubstitutionlookup124 subtable" u1004.kinzi u200D u1003
Ligature2: "LigatureSubstitutionlookup124 subtable" u101B.kinzi u200D u1003
MultipleSubs2: "MultipleSubstitutionlookup139 subtable" u200C u1031 u1003
MultipleSubs2: "MultipleSubstitutionlookup137 subtable" u200C u1084 u1003
MultipleSubs2: "MultipleSubstitutionlookup136 subtable" u200C u103C_u103D.wide u1003
MultipleSubs2: "MultipleSubstitutionlookup135 subtable" u200C u103C_u102F.wide u1003
MultipleSubs2: "MultipleSubstitutionlookup134 subtable" u200C u103C.wide u1003
MultipleSubs2: "MultipleSubstitutionlookup129 subtable" u1003 u101B.kinzi
MultipleSubs2: "MultipleSubstitutionlookup128 subtable" u1003 u1004.kinzi
Comment: "GDL_order: 1+AAoA-mark: 80+AAoA" 
EndChar

StartChar: u1003.med
Encoding: 108 -1 106
Width: 0
VWidth: 0
GlyphClass: 4
Flags: W
HStem: -450 40<-639.782 -491.706 -296.975 -165.209> -126 39<-714.761 -638.324 -277.825 -165.209>
VStem: -740 39<-351.11 -267.764 -133.344 -127.296> -632 39<-201.185 -131.851> -420 42<-325.359 -171.286> -95 39<-338.185 -196.097>
AnchorPoint: "LLM" -884 -53 basemark 0
AnchorPoint: "BD" -401 -53 mark 0
AnchorPoint: "BSM" 88 -53 basemark 0
AnchorPoint: "LM" 88 -53 basemark 0
AnchorPoint: "BSM" -401 -53 mark 0
AnchorPoint: "BDM" -401 -53 mark 0
AnchorPoint: "BDM" -401 -53 basemark 0
LayerCount: 2
Fore
SplineSet
-56 -267 m 0
 -56 -369 -137 -450 -234 -450 c 0
 -300 -450 -362 -402 -396 -338 c 0
 -425 -408 -489 -450 -563 -450 c 0
 -671 -450 -740 -369 -740 -309 c 0
 -740 -213 -632 -220 -632 -172 c 0
 -632 -137 -654 -126 -672 -126 c 0
 -692 -126 -705 -138 -707 -149 c 0
 -740 -129 l 0
 -737 -111 -704 -87 -672 -87 c 0
 -630 -87 -593 -119 -593 -177 c 0
 -593 -250 -701 -240 -701 -309 c 0
 -701 -329 -663 -410 -563 -410 c 0
 -471 -410 -420 -335 -420 -245 c 0
 -420 -197 -452 -144 -479 -119 c 0
 -455 -86 l 0
 -411 -122 -378 -170 -378 -254 c 0
 -378 -326 -308 -410 -234 -410 c 0
 -158 -410 -95 -345 -95 -267 c 0
 -95 -189 -158 -125 -234 -125 c 0
 -246 -125 -260 -128 -272 -135 c 0
 -288 -98 l 0
 -272 -87 -254 -86 -234 -86 c 0
 -137 -86 -56 -165 -56 -267 c 0
EndSplineSet
Ligature2: "LigatureSubstitutionlookup179 subtable" u1003.med u102D
Ligature2: "LigatureSubstitutionlookup179 subtable" u1003.med u102E
Ligature2: "LigatureSubstitutionlookup179 subtable" u1003.med u1032
Ligature2: "LigatureSubstitutionlookup179 subtable" u1003.med u103A
Ligature2: "LigatureSubstitutionlookup171 subtable" u1003.med u103C u1031
Ligature2: "LigatureSubstitutionlookup159 subtable" u1003.med u1031
Ligature2: "LigatureSubstitutionlookup159 subtable" u1003.med u103C
Ligature2: "sub_ligature_cligmymr_0 subtable" u1039 u1003
MultipleSubs2: "MultipleSubstitutionlookup138 subtable" u1039 u1003.med
Comment: "GDL_order: 2+AAoA-mark: 80+AAoA" 
EndChar

StartChar: u1004
Encoding: 109 4100 107
Width: 568
VWidth: 0
GlyphClass: 2
Flags: HW
AnchorPoint: "R" 0 0 mark 0
AnchorPoint: "BS" 292 -53 basechar 0
AnchorPoint: "L" 292 -53 basechar 0
AnchorPoint: "U" 292 495 basechar 0
AnchorPoint: "BD" 292 -53 basechar 0
LayerCount: 2
Fore
SplineSet
513 121 m 0
 475 31 381 -15 292 -15 c 0
 162 -15 55 91 55 222 c 0
 55 351 162 459 292 459 c 0
 381 459 475 412 513 322 c 0
 469 297 l 0
 432 367 363 408 292 408 c 0
 190 408 106 324 106 222 c 0
 106 120 190 36 292 36 c 0
 363 36 432 76 469 147 c 0
 513 121 l 0
EndSplineSet
Position2: "SinglePositioninglookup48 per glyph data 0" dx=100 dy=0 dh=50 dv=0
Position2: "SinglePositioninglookup30 subtable" dx=140 dy=0 dh=140 dv=0
PairPos2: "PairwisePositioningkerninglooku subtable" uAA60.med.kham dx=-90 dy=0 dh=0 dv=0 dx=0 dy=0 dh=90 dv=0
PairPos2: "PairwisePositioningkerninglooku subtable" uAA60.med dx=-90 dy=0 dh=0 dv=0 dx=0 dy=0 dh=90 dv=0
PairPos2: "PairwisePositioningkerninglooku subtable" u1021.med dx=-90 dy=0 dh=0 dv=0 dx=0 dy=0 dh=90 dv=0
PairPos2: "PairwisePositioningkerninglooku subtable" u101E.med dx=-90 dy=0 dh=0 dv=0 dx=0 dy=0 dh=90 dv=0
PairPos2: "PairwisePositioningkerninglooku subtable" u101C.med dx=-90 dy=0 dh=0 dv=0 dx=0 dy=0 dh=90 dv=0
PairPos2: "PairwisePositioningkerninglooku subtable" u101A.med dx=-90 dy=0 dh=0 dv=0 dx=0 dy=0 dh=90 dv=0
PairPos2: "PairwisePositioningkerninglooku subtable" u1018.med dx=-90 dy=0 dh=0 dv=0 dx=0 dy=0 dh=90 dv=0
PairPos2: "PairwisePositioningkerninglooku subtable" u1011.med dx=-90 dy=0 dh=0 dv=0 dx=0 dy=0 dh=90 dv=0
PairPos2: "PairwisePositioningkerninglooku subtable" u1010.med dx=-90 dy=0 dh=0 dv=0 dx=0 dy=0 dh=90 dv=0
PairPos2: "PairwisePositioningkerninglooku subtable" u100F.med dx=-90 dy=0 dh=0 dv=0 dx=0 dy=0 dh=90 dv=0
PairPos2: "PairwisePositioningkerninglooku subtable" u100C.med dx=-90 dy=0 dh=0 dv=0 dx=0 dy=0 dh=90 dv=0
PairPos2: "PairwisePositioningkerninglooku subtable" u100A.med dx=-90 dy=0 dh=0 dv=0 dx=0 dy=0 dh=90 dv=0
PairPos2: "PairwisePositioningkerninglooku subtable" u1006.med dx=-90 dy=0 dh=0 dv=0 dx=0 dy=0 dh=90 dv=0
PairPos2: "PairwisePositioningkerninglooku subtable" u1003.med dx=-90 dy=0 dh=0 dv=0 dx=0 dy=0 dh=90 dv=0
PairPos2: "PairwisePositioningkerninglooku subtable" u1000.med dx=-90 dy=0 dh=0 dv=0 dx=0 dy=0 dh=90 dv=0
Substitution2: "sub_single_cligmymr_2 subtable" u1004.kham
Ligature2: "LigatureSubstitutionlookup169 subtable" u1004 u103C
Ligature2: "LigatureSubstitutionlookup167 subtable" u1004 u103C u1031
Ligature2: "LigatureSubstitutionlookup167 subtable" u1004 u103C.wide u1031
Ligature2: "LigatureSubstitutionlookup167 subtable" u1004 u103C_u103D.narr u1031
Ligature2: "LigatureSubstitutionlookup167 subtable" u1004 u103C_u103D.wide u1031
Ligature2: "LigatureSubstitutionlookup165 subtable" u1004 u103C
Ligature2: "LigatureSubstitutionlookup165 subtable" u1004 u103C_u103D.narr
Ligature2: "LigatureSubstitutionlookup165 subtable" u1004 u103C_u102F.narr
Ligature2: "LigatureSubstitutionlookup163 subtable" u1004 u1031
Ligature2: "LigatureSubstitutionlookup163 subtable" u1004 u1084
Ligature2: "LigatureSubstitutionlookup162 subtable" u1004 u103D
Ligature2: "LigatureSubstitutionlookup162 subtable" u1004 u103E
Ligature2: "LigatureSubstitutionlookup162 subtable" u1004 u103D_u103E
Ligature2: "LigatureSubstitutionlookup162 subtable" u1004
Ligature2: "LigatureSubstitutionlookup162 subtable" u1004 u105F
Ligature2: "LigatureSubstitutionlookup162 subtable" u1004 u1060
Ligature2: "LigatureSubstitutionlookup162 subtable" u1004 u1082
Ligature2: "LigatureSubstitutionlookup158 subtable" u1004 u1039
Ligature2: "LigatureSubstitutionlookup130 subtable" u1004.kinzi u200D u1004
Ligature2: "LigatureSubstitutionlookup130 subtable" u101B.kinzi u200D u1004
Ligature2: "LigatureSubstitutionlookup127 subtable" u1004.kinzi u200D u1004
Ligature2: "LigatureSubstitutionlookup127 subtable" u101B.kinzi u200D u1004
Ligature2: "LigatureSubstitutionlookup124 subtable" u1004.kinzi u200D u1004
Ligature2: "LigatureSubstitutionlookup124 subtable" u101B.kinzi u200D u1004
MultipleSubs2: "MultipleSubstitutionlookup139 subtable" u200C u1031 u1004
MultipleSubs2: "MultipleSubstitutionlookup137 subtable" u200C u1084 u1004
MultipleSubs2: "MultipleSubstitutionlookup136 subtable" u200C u103C_u103D.narr u1004
MultipleSubs2: "MultipleSubstitutionlookup135 subtable" u200C u103C_u102F.narr u1004
MultipleSubs2: "MultipleSubstitutionlookup134 subtable" u200C u103C u1004
MultipleSubs2: "MultipleSubstitutionlookup129 subtable" u1004 u101B.kinzi
MultipleSubs2: "MultipleSubstitutionlookup128 subtable" u1004 u1004.kinzi
Comment: "GDL_order: 1+AAoA-mark: 80+AAoA" 
EndChar

StartChar: u1004.med
Encoding: 110 -1 108
Width: 0
VWidth: 0
GlyphClass: 4
Flags: HW
AnchorPoint: "BS" -216 -53 mark 0
AnchorPoint: "LLM" -495 -53 basemark 0
AnchorPoint: "BSM" -216 -53 mark 0
AnchorPoint: "LM" 69 -53 basemark 0
AnchorPoint: "BS" -174 -53 basemark 0
AnchorPoint: "BSM" 111 -53 basemark 0
LayerCount: 2
Fore
SplineSet
-46 -345 m 0
 -75 -414 -148 -450 -216 -450 c 0
 -316 -450 -399 -367 -399 -267 c 0
 -399 -167 -316 -85 -216 -85 c 0
 -148 -85 -75 -121 -46 -190 c 0
 -80 -209 l 0
 -108 -156 -161 -124 -216 -124 c 0
 -295 -124 -359 -188 -359 -267 c 0
 -359 -346 -295 -410 -216 -410 c 0
 -161 -410 -108 -380 -80 -325 c 0
 -46 -345 l 0
EndSplineSet
Ligature2: "LigatureSubstitutionlookup179 subtable" u1004.med u102D
Ligature2: "LigatureSubstitutionlookup179 subtable" u1004.med u102E
Ligature2: "LigatureSubstitutionlookup179 subtable" u1004.med u1032
Ligature2: "LigatureSubstitutionlookup179 subtable" u1004.med u103A
Ligature2: "LigatureSubstitutionlookup171 subtable" u1004.med u103C u1031
Ligature2: "LigatureSubstitutionlookup159 subtable" u1004.med u1031
Ligature2: "LigatureSubstitutionlookup159 subtable" u1004.med u103C
Ligature2: "sub_ligature_cligmymr_0 subtable" u1039 u1004
MultipleSubs2: "MultipleSubstitutionlookup138 subtable" u1039 u1004.med
Comment: "GDL_order: 2+AAoA-mark: 80+AAoA" 
EndChar

StartChar: u1004.kinzi
Encoding: 111 -1 109
Width: 55
VWidth: 0
GlyphClass: 4
Flags: W
HStem: 534 39<-134.019 -44.9182> 697 38<-130.757 -46.5414> 865 39<-136.259 -51.4743>
VStem: -192 39<591.923 677.245 756.346 848.186>
AnchorPoint: "Y" -20 495 mark 0
AnchorPoint: "U" -92 495 mark 0
AnchorPoint: "UM" -92 495 basemark 0
LayerCount: 2
Fore
SplineSet
0 586 m 0
 -18 552 -51 534 -92 534 c 0
 -144 534 -192 582 -192 634 c 0
 -192 675 -173 701 -146 718 c 0
 -174 738 -192 762 -192 804 c 0
 -192 856 -149 904 -93 904 c 0
 -47 904 -24 882 -11 853 c 0
 -42 831 l 0
 -54 853 -66 865 -93 865 c 0
 -125 865 -153 838 -153 804 c 0
 -153 768 -121 735 -93 735 c 0
 -50 735 -18 712 0 682 c 0
 -33 664 l 0
 -50 684 -66 697 -92 697 c 0
 -120 697 -153 669 -153 634 c 0
 -153 600 -120 573 -92 573 c 0
 -66 573 -50 585 -33 604 c 0
 0 586 l 0
EndSplineSet
Substitution2: "SingleSubstitutionlookup177 subtable" u1004.kinzi_u1036
Substitution2: "SingleSubstitutionlookup176 subtable" u1004.kinzi_u103A
Substitution2: "SingleSubstitutionlookup175 subtable" u1004.kinzi_u1032
Substitution2: "Single Substitution lookup 151 subtable" u1004.kinzi_u102E
Substitution2: "SingleSubstitutionlookup173 subtable" u1004.kinzi_u102D
Ligature2: "LigatureSubstitutionlookup118 subtable" circledash u1004.kinzi
Ligature2: "cligContextualLigaturesinMyanma subtable" u1004 u103A u1039
Ligature2: "cligContextualLigaturesinMyanma subtable" u105A u103A u1039
MultipleSubs2: "MultipleSubstitutionlookup121 subtable" u1004.kinzi u200D
MultipleSubs2: "sub_mult_cligmymr_0 subtable" circledash u1004.kinzi
Comment: "GDL_order: 8+AAoA-mark: 80+AAoA" 
EndChar

StartChar: u1004.kinzi_u102D
Encoding: 112 -1 110
Width: 55
VWidth: 0
GlyphClass: 4
Flags: HW
AnchorPoint: "Y" -20 495 mark 0
AnchorPoint: "U" -296 495 mark 0
AnchorPoint: "UM" -296 495 basemark 0
LayerCount: 2
Fore
SplineSet
0 720 m 0
 0 619 -80 537 -179 537 c 0
 -276 537 -357 619 -357 720 c 0
 -357 820 -276 903 -179 903 c 0
 -80 903 0 820 0 720 c 0
-39 720 m 0
 -39 798 -102 862 -179 862 c 0
 -255 862 -318 798 -318 720 c 0
 -318 642 -255 577 -179 577 c 0
 -102 577 -39 642 -39 720 c 0
-395 586 m 0
 -413 552 -446 534 -487 534 c 0
 -539 534 -587 582 -587 634 c 0
 -587 675 -568 701 -541 718 c 0
 -569 738 -587 762 -587 804 c 0
 -587 856 -544 904 -488 904 c 0
 -442 904 -419 882 -406 853 c 0
 -437 831 l 0
 -449 853 -461 865 -488 865 c 0
 -520 865 -548 838 -548 804 c 0
 -548 768 -516 735 -488 735 c 0
 -445 735 -413 712 -395 682 c 0
 -428 664 l 0
 -445 684 -461 697 -487 697 c 0
 -515 697 -548 669 -548 634 c 0
 -548 600 -515 573 -487 573 c 0
 -461 573 -445 585 -428 604 c 0
 -395 586 l 0
EndSplineSet
Position2: "Single Positioning lookup 43 subtable" dx=180 dy=0 dh=0 dv=0
Ligature2: "LigatureSubstitutionlookup182 subtable" u1004.kinzi_u102D u102F
Ligature2: "sub_ligature_cligmymr_8 subtable" u1004.kinzi u102D
Ligature2: "sub_ligature_cligmymr_6 subtable" u1004.kinzi_u102D u200C u102D
Comment: "GDL_order: 8+AAoA-mark: 80+AAoA" 
EndChar

StartChar: u1004.kinzi_u102E
Encoding: 113 -1 111
Width: 55
VWidth: 0
GlyphClass: 4
Flags: HW
AnchorPoint: "Y" -20 495 mark 0
AnchorPoint: "U" -296 495 mark 0
AnchorPoint: "UM" -296 495 basemark 0
LayerCount: 2
Fore
SplineSet
0 717 m 0
 0 616 -80 537 -179 537 c 0
 -276 537 -357 618 -357 720 c 0
 -357 822 -276 903 -179 903 c 0
 -80 903 0 817 0 717 c 0
-48 667 m 0
 -42 684 -39 700 -39 720 c 0
 -39 798 -102 862 -179 862 c 0
 -255 862 -318 798 -318 720 c 0
 -318 703 -315 687 -308 667 c 0
 -267 708 -221 720 -179 720 c 0
 -137 720 -86 708 -48 667 c 0
-65 634 m 0
 -102 676 -155 685 -179 685 c 0
 -203 685 -249 676 -290 634 c 0
 -267 603 -222 577 -179 577 c 0
 -132 577 -90 597 -65 634 c 0
-395 586 m 0
 -413 552 -446 534 -487 534 c 0
 -539 534 -587 582 -587 634 c 0
 -587 675 -568 701 -541 718 c 0
 -569 738 -587 762 -587 804 c 0
 -587 856 -544 904 -488 904 c 0
 -442 904 -419 882 -406 853 c 0
 -437 831 l 0
 -449 853 -461 865 -488 865 c 0
 -520 865 -548 838 -548 804 c 0
 -548 768 -514 735 -488 735 c 0
 -445 735 -413 712 -395 682 c 0
 -428 664 l 0
 -445 684 -461 697 -487 697 c 0
 -515 697 -548 669 -548 634 c 0
 -548 600 -515 573 -487 573 c 0
 -461 573 -445 585 -428 604 c 0
 -395 586 l 0
EndSplineSet
Position2: "Single Positioning lookup 43 subtable" dx=180 dy=0 dh=0 dv=0
Ligature2: "sub_ligature_cligmymr_8 subtable" u1004.kinzi u102E
Ligature2: "sub_ligature_cligmymr_6 subtable" u1004.kinzi_u102E u200C u102E
Comment: "GDL_order: 8+AAoA-mark: 80+AAoA" 
EndChar

StartChar: u1004.kinzi_u1032
Encoding: 114 -1 112
Width: 55
VWidth: 0
GlyphClass: 4
Flags: HW
AnchorPoint: "U" -296 495 mark 0
AnchorPoint: "UM" -296 495 basemark 0
LayerCount: 2
Fore
SplineSet
0 643 m 0
 -23 610 l 0
 -321 847 l 0
 -299 880 l 0
 0 643 l 0
-395 586 m 0
 -413 552 -446 534 -487 534 c 0
 -539 534 -587 582 -587 634 c 0
 -587 675 -568 701 -541 718 c 0
 -569 738 -587 762 -587 804 c 0
 -587 856 -544 904 -488 904 c 0
 -442 904 -419 882 -406 853 c 0
 -437 831 l 0
 -449 853 -461 865 -488 865 c 0
 -520 865 -548 838 -548 804 c 0
 -548 768 -513 735 -488 735 c 0
 -445 735 -413 712 -395 682 c 0
 -428 664 l 0
 -445 684 -461 697 -487 697 c 0
 -515 697 -548 669 -548 634 c 0
 -548 600 -515 573 -487 573 c 0
 -461 573 -445 585 -428 604 c 0
 -395 586 l 0
EndSplineSet
Ligature2: "sub_ligature_cligmymr_8 subtable" u1004.kinzi u1032
Comment: "GDL_order: 8+AAoA-mark: 80+AAoA" 
EndChar

StartChar: u1004.kinzi_u1033
Encoding: 115 -1 113
Width: 55
VWidth: 0
GlyphClass: 4
Flags: HW
AnchorPoint: "Y" -20 495 mark 0
AnchorPoint: "U" -296 495 mark 0
AnchorPoint: "UM" -296 495 basemark 0
LayerCount: 2
Fore
SplineSet
0 720 m 0
 0 619 -79 537 -177 537 c 0
 -278 537 -358 619 -358 720 c 0
 -358 819 -279 902 -180 902 c 0
 -79 902 0 819 0 720 c 0
-39 720 m 0
 -39 797 -101 863 -177 863 c 0
 -256 863 -318 797 -318 720 c 0
 -318 640 -256 577 -180 577 c 0
 -101 577 -39 640 -39 720 c 0
-102 720 m 0
 -102 679 -137 643 -177 643 c 0
 -218 643 -252 679 -252 720 c 0
 -252 760 -218 795 -177 795 c 0
 -137 795 -102 760 -102 720 c 0
-131 720 m 0
 -131 745 -152 766 -177 766 c 0
 -204 766 -224 745 -224 720 c 0
 -224 693 -204 672 -177 672 c 0
 -152 672 -131 693 -131 720 c 0
-395 586 m 0
 -413 552 -446 534 -487 534 c 0
 -539 534 -587 582 -587 634 c 0
 -587 675 -568 701 -541 718 c 0
 -569 738 -587 762 -587 804 c 0
 -587 856 -544 904 -488 904 c 0
 -442 904 -419 882 -406 853 c 0
 -437 831 l 0
 -449 853 -461 865 -488 865 c 0
 -520 865 -548 838 -548 804 c 0
 -548 768 -515 735 -488 735 c 0
 -445 735 -413 712 -395 682 c 0
 -428 664 l 0
 -445 684 -461 697 -487 697 c 0
 -515 697 -548 669 -548 634 c 0
 -548 600 -515 573 -487 573 c 0
 -461 573 -445 585 -428 604 c 0
 -395 586 l 0
EndSplineSet
Position2: "Single Positioning lookup 43 subtable" dx=180 dy=0 dh=0 dv=0
Ligature2: "sub_ligature_cligmymr_8 subtable" u1004.kinzi u1033
Comment: "GDL_order: 8+AAoA-mark: 80+AAoA" 
EndChar

StartChar: u1004.kinzi_u1036
Encoding: 116 -1 114
Width: 55
VWidth: 0
GlyphClass: 4
Flags: HW
AnchorPoint: "U" -258 495 mark 0
AnchorPoint: "UM" -258 495 basemark 0
LayerCount: 2
Fore
SplineSet
0 675 m 0
 0 632 -35 598 -75 598 c 0
 -116 598 -150 632 -150 675 c 0
 -150 715 -116 750 -75 750 c 0
 -35 750 0 715 0 675 c 0
-29 675 m 0
 -29 700 -50 720 -75 720 c 0
 -102 720 -122 700 -122 675 c 0
 -122 646 -102 627 -75 627 c 0
 -50 627 -29 646 -29 675 c 0
-165 586 m 0
 -183 552 -216 534 -257 534 c 0
 -309 534 -357 582 -357 634 c 0
 -357 675 -338 701 -311 718 c 0
 -339 738 -357 762 -357 804 c 0
 -357 856 -314 904 -258 904 c 0
 -212 904 -189 882 -176 853 c 0
 -207 831 l 0
 -219 853 -231 865 -258 865 c 0
 -290 865 -318 838 -318 804 c 0
 -318 768 -286 735 -258 735 c 0
 -215 735 -183 712 -165 682 c 0
 -198 664 l 0
 -215 684 -231 697 -257 697 c 0
 -285 697 -318 669 -318 634 c 0
 -318 600 -285 573 -257 573 c 0
 -231 573 -215 585 -198 604 c 0
 -165 586 l 0
EndSplineSet
Position2: "Single Positioning lookup 43 subtable" dx=180 dy=0 dh=0 dv=0
Ligature2: "sub_ligature_cligmymr_8 subtable" u1004.kinzi u1036
Ligature2: "sub_ligature_cligmymr_6 subtable" u1004.kinzi_u1036 u200C u1036
Comment: "GDL_order: 10+AAoA-mark: 80+AAoA" 
EndChar

StartChar: u1004.kinzi_u103A
Encoding: 117 -1 115
Width: 55
VWidth: 0
GlyphClass: 4
Flags: HW
AnchorPoint: "Y" -20 495 mark 0
AnchorPoint: "U" -296 495 mark 0
AnchorPoint: "UM" -296 495 basemark 0
LayerCount: 2
Fore
SplineSet
0 826 m 0
 -29 802 l 0
 -57 849 -102 864 -137 864 c 0
 -204 864 -276 809 -276 720 c 0
 -276 610 -168 571 -132 571 c 0
 -132 532 l 0
 -205 532 -315 598 -315 720 c 0
 -315 828 -228 903 -138 903 c 0
 -77 903 -23 873 0 826 c 0
-395 586 m 0
 -413 552 -446 534 -487 534 c 0
 -539 534 -587 582 -587 634 c 0
 -587 675 -568 701 -541 718 c 0
 -569 738 -587 762 -587 804 c 0
 -587 856 -544 904 -488 904 c 0
 -442 904 -419 882 -406 853 c 0
 -437 831 l 0
 -449 853 -461 865 -488 865 c 0
 -520 865 -548 838 -548 804 c 0
 -548 768 -516 735 -488 735 c 0
 -445 735 -413 712 -395 682 c 0
 -428 664 l 0
 -445 684 -461 697 -487 697 c 0
 -515 697 -548 669 -548 634 c 0
 -548 600 -515 573 -487 573 c 0
 -461 573 -445 585 -428 604 c 0
 -395 586 l 0
EndSplineSet
Position2: "Single Positioning lookup 43 subtable" dx=180 dy=0 dh=0 dv=0
Ligature2: "sub_ligature_cligmymr_8 subtable" u1004.kinzi u103A
Comment: "GDL_order: 8+AAoA-mark: 80+AAoA" 
EndChar

StartChar: u1004.kinzi_u102D_u1036
Encoding: 118 -1 116
Width: 55
VWidth: 0
GlyphClass: 4
Flags: HW
AnchorPoint: "Y" -185 495 mark 0
AnchorPoint: "U" -376 495 mark 0
AnchorPoint: "UM" -376 495 basemark 0
LayerCount: 2
Fore
SplineSet
-165 720 m 0
 -165 619 -245 537 -344 537 c 0
 -441 537 -522 619 -522 720 c 0
 -522 820 -441 903 -344 903 c 0
 -245 903 -165 820 -165 720 c 0
-204 720 m 0
 -204 798 -267 862 -344 862 c 0
 -420 862 -483 798 -483 720 c 0
 -483 642 -420 577 -344 577 c 0
 -267 577 -204 642 -204 720 c 0
0 630 m 0
 0 587 -35 553 -75 553 c 0
 -116 553 -150 587 -150 630 c 0
 -150 670 -116 705 -75 705 c 0
 -35 705 0 670 0 630 c 0
-29 630 m 0
 -29 655 -50 675 -75 675 c 0
 -102 675 -122 655 -122 630 c 0
 -122 601 -102 582 -75 582 c 0
 -50 582 -29 601 -29 630 c 0
-560 586 m 0
 -578 552 -611 534 -652 534 c 0
 -704 534 -752 582 -752 634 c 0
 -752 675 -733 701 -706 718 c 0
 -734 738 -752 762 -752 804 c 0
 -752 856 -709 904 -653 904 c 0
 -607 904 -584 882 -571 853 c 0
 -602 831 l 0
 -614 853 -626 865 -653 865 c 0
 -685 865 -713 838 -713 804 c 0
 -713 767 -679 735 -652 735 c 0
 -609 735 -578 712 -560 682 c 0
 -593 664 l 0
 -610 684 -626 697 -652 697 c 0
 -680 697 -713 669 -713 634 c 0
 -713 600 -680 573 -652 573 c 0
 -626 573 -610 585 -593 604 c 0
 -560 586 l 0
EndSplineSet
Ligature2: "sub_ligature_cligmymr_8 subtable" u1004.kinzi u102D_u1036
Comment: "GDL_order: 8+AAoA-mark: 80+AAoA" 
EndChar

StartChar: u1005
Encoding: 119 4101 117
Width: 576
VWidth: 0
GlyphClass: 2
Flags: HW
AnchorPoint: "R" 0 0 mark 0
AnchorPoint: "BS" 288 -53 basechar 0
AnchorPoint: "L" 288 -53 basechar 0
AnchorPoint: "U" 288 495 basechar 0
AnchorPoint: "BD" 288 -53 basechar 0
LayerCount: 2
Fore
SplineSet
520 222 m 0
 520 91 417 -15 289 -15 c 0
 157 -15 55 91 55 222 c 0
 55 351 158 459 286 459 c 0
 418 459 520 351 520 222 c 0
469 222 m 0
 469 323 388 408 289 408 c 0
 265 408 242 403 220 394 c 0
 275 341 292 278 292 222 c 0
 292 166 275 104 220 49 c 0
 243 41 265 36 286 36 c 0
 388 36 469 119 469 222 c 0
241 222 m 0
 241 255 227 315 175 367 c 0
 134 334 106 279 106 222 c 0
 106 163 131 111 174 78 c 0
 226 130 241 187 241 222 c 0
EndSplineSet
Position2: "SinglePositioninglookup48 per glyph data 0" dx=100 dy=0 dh=50 dv=0
Position2: "SinglePositioninglookup30 subtable" dx=140 dy=0 dh=140 dv=0
PairPos2: "PairwisePositioningkerninglooku subtable" uAA60.med.kham dx=-90 dy=0 dh=0 dv=0 dx=0 dy=0 dh=90 dv=0
PairPos2: "PairwisePositioningkerninglooku subtable" uAA60.med dx=-90 dy=0 dh=0 dv=0 dx=0 dy=0 dh=90 dv=0
PairPos2: "PairwisePositioningkerninglooku subtable" u1021.med dx=-90 dy=0 dh=0 dv=0 dx=0 dy=0 dh=90 dv=0
PairPos2: "PairwisePositioningkerninglooku subtable" u101E.med dx=-90 dy=0 dh=0 dv=0 dx=0 dy=0 dh=90 dv=0
PairPos2: "PairwisePositioningkerninglooku subtable" u101C.med dx=-90 dy=0 dh=0 dv=0 dx=0 dy=0 dh=90 dv=0
PairPos2: "PairwisePositioningkerninglooku subtable" u101A.med dx=-90 dy=0 dh=0 dv=0 dx=0 dy=0 dh=90 dv=0
PairPos2: "PairwisePositioningkerninglooku subtable" u1018.med dx=-90 dy=0 dh=0 dv=0 dx=0 dy=0 dh=90 dv=0
PairPos2: "PairwisePositioningkerninglooku subtable" u1011.med dx=-90 dy=0 dh=0 dv=0 dx=0 dy=0 dh=90 dv=0
PairPos2: "PairwisePositioningkerninglooku subtable" u1010.med dx=-90 dy=0 dh=0 dv=0 dx=0 dy=0 dh=90 dv=0
PairPos2: "PairwisePositioningkerninglooku subtable" u100F.med dx=-90 dy=0 dh=0 dv=0 dx=0 dy=0 dh=90 dv=0
PairPos2: "PairwisePositioningkerninglooku subtable" u100C.med dx=-90 dy=0 dh=0 dv=0 dx=0 dy=0 dh=90 dv=0
PairPos2: "PairwisePositioningkerninglooku subtable" u100A.med dx=-90 dy=0 dh=0 dv=0 dx=0 dy=0 dh=90 dv=0
PairPos2: "PairwisePositioningkerninglooku subtable" u1006.med dx=-90 dy=0 dh=0 dv=0 dx=0 dy=0 dh=90 dv=0
PairPos2: "PairwisePositioningkerninglooku subtable" u1003.med dx=-90 dy=0 dh=0 dv=0 dx=0 dy=0 dh=90 dv=0
PairPos2: "PairwisePositioningkerninglooku subtable" u1000.med dx=-90 dy=0 dh=0 dv=0 dx=0 dy=0 dh=90 dv=0
Ligature2: "LigatureSubstitutionlookup169 subtable" u1005 u103C
Ligature2: "LigatureSubstitutionlookup167 subtable" u1005 u103C u1031
Ligature2: "LigatureSubstitutionlookup167 subtable" u1005 u103C.wide u1031
Ligature2: "LigatureSubstitutionlookup167 subtable" u1005 u103C_u103D.narr u1031
Ligature2: "LigatureSubstitutionlookup167 subtable" u1005 u103C_u103D.wide u1031
Ligature2: "LigatureSubstitutionlookup165 subtable" u1005 u103C
Ligature2: "LigatureSubstitutionlookup165 subtable" u1005 u103C_u103D.narr
Ligature2: "LigatureSubstitutionlookup165 subtable" u1005 u103C_u102F.narr
Ligature2: "LigatureSubstitutionlookup163 subtable" u1005 u1031
Ligature2: "LigatureSubstitutionlookup163 subtable" u1005 u1084
Ligature2: "LigatureSubstitutionlookup162 subtable" u1005 u103D
Ligature2: "LigatureSubstitutionlookup162 subtable" u1005 u103E
Ligature2: "LigatureSubstitutionlookup162 subtable" u1005 u103D_u103E
Ligature2: "LigatureSubstitutionlookup162 subtable" u1005
Ligature2: "LigatureSubstitutionlookup162 subtable" u1005 u105F
Ligature2: "LigatureSubstitutionlookup162 subtable" u1005 u1060
Ligature2: "LigatureSubstitutionlookup162 subtable" u1005 u1082
Ligature2: "LigatureSubstitutionlookup158 subtable" u1005 u1039
Ligature2: "LigatureSubstitutionlookup130 subtable" u1004.kinzi u200D u1005
Ligature2: "LigatureSubstitutionlookup130 subtable" u101B.kinzi u200D u1005
Ligature2: "LigatureSubstitutionlookup127 subtable" u1004.kinzi u200D u1005
Ligature2: "LigatureSubstitutionlookup127 subtable" u101B.kinzi u200D u1005
Ligature2: "LigatureSubstitutionlookup124 subtable" u1004.kinzi u200D u1005
Ligature2: "LigatureSubstitutionlookup124 subtable" u101B.kinzi u200D u1005
MultipleSubs2: "MultipleSubstitutionlookup139 subtable" u200C u1031 u1005
MultipleSubs2: "MultipleSubstitutionlookup137 subtable" u200C u1084 u1005
MultipleSubs2: "MultipleSubstitutionlookup136 subtable" u200C u103C_u103D.narr u1005
MultipleSubs2: "MultipleSubstitutionlookup135 subtable" u200C u103C_u102F.narr u1005
MultipleSubs2: "MultipleSubstitutionlookup134 subtable" u200C u103C u1005
MultipleSubs2: "MultipleSubstitutionlookup129 subtable" u1005 u101B.kinzi
MultipleSubs2: "MultipleSubstitutionlookup128 subtable" u1005 u1004.kinzi
Comment: "GDL_order: 1+AAoA-mark: 80+AAoA" 
EndChar

StartChar: u1005.med
Encoding: 120 -1 118
Width: 0
VWidth: 0
GlyphClass: 4
Flags: HW
AnchorPoint: "BS" -234 -53 mark 0
AnchorPoint: "LLM" -557 -53 basemark 0
AnchorPoint: "BSM" -234 -53 mark 0
AnchorPoint: "LM" 88 -53 basemark 0
AnchorPoint: "BS" 234 -53 basemark 0
AnchorPoint: "BSM" 556 -53 basemark 0
LayerCount: 2
Fore
SplineSet
-56 -267 m 0
 -56 -369 -137 -450 -234 -450 c 0
 -333 -450 -413 -369 -413 -267 c 0
 -413 -165 -333 -84 -234 -84 c 0
 -137 -84 -56 -165 -56 -267 c 0
-95 -267 m 0
 -95 -189 -158 -125 -234 -125 c 0
 -254 -125 -270 -128 -285 -134 c 0
 -243 -176 -231 -225 -231 -267 c 0
 -231 -311 -246 -360 -287 -401 c 0
 -270 -407 -254 -410 -234 -410 c 0
 -158 -410 -95 -345 -95 -267 c 0
-266 -267 m 0
 -266 -242 -276 -194 -317 -153 c 0
 -351 -177 -374 -221 -374 -267 c 0
 -374 -314 -353 -357 -318 -380 c 0
 -278 -339 -266 -296 -266 -267 c 0
EndSplineSet
Ligature2: "LigatureSubstitutionlookup179 subtable" u1005.med u102D
Ligature2: "LigatureSubstitutionlookup179 subtable" u1005.med u102E
Ligature2: "LigatureSubstitutionlookup179 subtable" u1005.med u1032
Ligature2: "LigatureSubstitutionlookup179 subtable" u1005.med u103A
Ligature2: "LigatureSubstitutionlookup171 subtable" u1005.med u103C u1031
Ligature2: "LigatureSubstitutionlookup159 subtable" u1005.med u1031
Ligature2: "LigatureSubstitutionlookup159 subtable" u1005.med u103C
Ligature2: "sub_ligature_cligmymr_0 subtable" u1039 u1005
MultipleSubs2: "MultipleSubstitutionlookup138 subtable" u1039 u1005.med
Comment: "GDL_order: 2+AAoA-mark: 80+AAoA" 
EndChar

StartChar: u1006
Encoding: 121 4102 119
Width: 990
VWidth: 0
GlyphClass: 2
Flags: HW
AnchorPoint: "R" 0 0 mark 0
AnchorPoint: "BS" 702 -53 basechar 0
AnchorPoint: "L" 702 -53 basechar 0
AnchorPoint: "BD" 495 -53 basechar 0
AnchorPoint: "U" 702 495 basechar 0
LayerCount: 2
Fore
SplineSet
934 222 m 0
 934 91 828 -15 702 -15 c 0
 611 -15 532 38 495 114 c 0
 455 38 375 -15 283 -15 c 0
 178 -15 68 53 55 153 c 0
 111 182 155 204 210 204 c 0
 291 204 368 159 417 91 c 0
 449 126 469 170 469 222 c 0
 469 323 386 408 283 408 c 0
 214 408 145 366 106 297 c 0
 63 322 l 0
 98 407 189 459 283 459 c 0
 375 459 455 406 495 330 c 0
 532 406 611 459 702 459 c 0
 828 459 934 351 934 222 c 0
883 222 m 0
 883 323 802 408 702 408 c 0
 602 408 520 323 520 222 c 0
 520 119 602 36 702 36 c 0
 802 36 883 119 883 222 c 0
373 58 m 0
 341 113 282 153 214 153 c 0
 181 153 150 142 115 126 c 0
 151 63 215 36 283 36 c 0
 318 36 345 45 373 58 c 0
EndSplineSet
Ligature2: "LigatureSubstitutionlookup169 subtable" u1006 u103C
Ligature2: "LigatureSubstitutionlookup167 subtable" u1006 u103C u1031
Ligature2: "LigatureSubstitutionlookup167 subtable" u1006 u103C.wide u1031
Ligature2: "LigatureSubstitutionlookup167 subtable" u1006 u103C_u103D.narr u1031
Ligature2: "LigatureSubstitutionlookup167 subtable" u1006 u103C_u103D.wide u1031
Ligature2: "LigatureSubstitutionlookup165 subtable" u1006 u103C
Ligature2: "LigatureSubstitutionlookup165 subtable" u1006 u103C_u103D.narr
Ligature2: "LigatureSubstitutionlookup165 subtable" u1006 u103C_u102F.narr
Ligature2: "LigatureSubstitutionlookup163 subtable" u1006 u1031
Ligature2: "LigatureSubstitutionlookup163 subtable" u1006 u1084
Ligature2: "LigatureSubstitutionlookup162 subtable" u1006 u103D
Ligature2: "LigatureSubstitutionlookup162 subtable" u1006 u103E
Ligature2: "LigatureSubstitutionlookup162 subtable" u1006 u103D_u103E
Ligature2: "LigatureSubstitutionlookup162 subtable" u1006
Ligature2: "LigatureSubstitutionlookup162 subtable" u1006 u105F
Ligature2: "LigatureSubstitutionlookup162 subtable" u1006 u1060
Ligature2: "LigatureSubstitutionlookup162 subtable" u1006 u1082
Ligature2: "LigatureSubstitutionlookup158 subtable" u1006 u1039
Ligature2: "LigatureSubstitutionlookup130 subtable" u1004.kinzi u200D u1006
Ligature2: "LigatureSubstitutionlookup130 subtable" u101B.kinzi u200D u1006
Ligature2: "LigatureSubstitutionlookup127 subtable" u1004.kinzi u200D u1006
Ligature2: "LigatureSubstitutionlookup127 subtable" u101B.kinzi u200D u1006
Ligature2: "LigatureSubstitutionlookup124 subtable" u1004.kinzi u200D u1006
Ligature2: "LigatureSubstitutionlookup124 subtable" u101B.kinzi u200D u1006
MultipleSubs2: "MultipleSubstitutionlookup139 subtable" u200C u1031 u1006
MultipleSubs2: "MultipleSubstitutionlookup137 subtable" u200C u1084 u1006
MultipleSubs2: "MultipleSubstitutionlookup136 subtable" u200C u103C_u103D.wide u1006
MultipleSubs2: "MultipleSubstitutionlookup135 subtable" u200C u103C_u102F.wide u1006
MultipleSubs2: "MultipleSubstitutionlookup134 subtable" u200C u103C.wide u1006
MultipleSubs2: "MultipleSubstitutionlookup129 subtable" u1006 u101B.kinzi
MultipleSubs2: "MultipleSubstitutionlookup128 subtable" u1006 u1004.kinzi
Comment: "GDL_order: 1+AAoA-mark: 80+AAoA" 
EndChar

StartChar: u1006.med
Encoding: 122 -1 120
Width: 0
VWidth: 0
GlyphClass: 4
Flags: HW
AnchorPoint: "LLM" -878 -53 basemark 0
AnchorPoint: "BD" -395 -53 mark 0
AnchorPoint: "BSM" 88 -53 basemark 0
AnchorPoint: "LM" 88 -53 basemark 0
AnchorPoint: "BSM" 877 -53 mark 0
AnchorPoint: "BDM" -395 -53 mark 0
AnchorPoint: "BDM" -395 -53 basemark 0
LayerCount: 2
Fore
SplineSet
-56 -267 m 0
 -56 -369 -138 -450 -236 -450 c 0
 -306 -450 -365 -408 -395 -350 c 0
 -425 -408 -488 -450 -558 -450 c 0
 -639 -450 -722 -396 -734 -320 c 0
 -690 -297 -654 -279 -614 -279 c 0
 -554 -279 -484 -318 -456 -368 c 0
 -428 -339 -414 -306 -414 -267 c 0
 -414 -189 -479 -125 -558 -125 c 0
 -612 -125 -663 -155 -692 -210 c 0
 -728 -189 l 0
 -699 -122 -624 -84 -558 -84 c 0
 -488 -84 -425 -126 -395 -185 c 0
 -365 -126 -306 -84 -236 -84 c 0
 -138 -84 -56 -165 -56 -267 c 0
-95 -267 m 0
 -95 -189 -159 -125 -236 -125 c 0
 -314 -125 -375 -189 -375 -267 c 0
 -375 -345 -314 -410 -236 -410 c 0
 -159 -410 -95 -345 -95 -267 c 0
-483 -392 m 0
 -505 -348 -558 -315 -614 -315 c 0
 -639 -315 -665 -323 -689 -336 c 0
 -666 -385 -609 -410 -557 -410 c 0
 -531 -410 -506 -402 -483 -392 c 0
EndSplineSet
Ligature2: "LigatureSubstitutionlookup179 subtable" u1006.med u102D
Ligature2: "LigatureSubstitutionlookup179 subtable" u1006.med u102E
Ligature2: "LigatureSubstitutionlookup179 subtable" u1006.med u1032
Ligature2: "LigatureSubstitutionlookup179 subtable" u1006.med u103A
Ligature2: "LigatureSubstitutionlookup171 subtable" u1006.med u103C u1031
Ligature2: "LigatureSubstitutionlookup159 subtable" u1006.med u1031
Ligature2: "LigatureSubstitutionlookup159 subtable" u1006.med u103C
Ligature2: "sub_ligature_cligmymr_0 subtable" u1039 u1006
MultipleSubs2: "MultipleSubstitutionlookup138 subtable" u1039 u1006.med
LCarets2: 2 0 0 
Comment: "GDL_order: 2+AAoA-mark: 80+AAoA" 
EndChar

StartChar: u1007
Encoding: 123 4103 121
Width: 609
VWidth: 0
GlyphClass: 2
Flags: HW
AnchorPoint: "R" 0 0 mark 0
AnchorPoint: "BS" 286 -53 basechar 0
AnchorPoint: "L" 286 -53 basechar 0
AnchorPoint: "U" 288 495 basechar 0
AnchorPoint: "BD" 286 -53 basechar 0
LayerCount: 2
Fore
SplineSet
568 156 m 0
 528 127 l 0
 513 153 495 186 474 214 c 0
 451 174 405 153 361 153 c 0
 307 153 259 181 259 240 c 0
 259 298 297 340 361 340 c 0
 381 340 402 336 424 325 c 0
 408 367 367 408 289 408 c 0
 184 408 106 319 106 222 c 0
 106 115 184 36 286 36 c 0
 345 36 382 55 429 97 c 0
 462 57 l 0
 408 10 363 -15 286 -15 c 0
 151 -15 55 91 55 222 c 0
 55 349 159 459 286 459 c 0
 408 459 483 376 487 283 c 0
 511 255 549 192 568 156 c 0
436 261 m 0
 414 279 391 289 361 289 c 0
 331 289 310 274 310 240 c 0
 310 217 333 204 361 204 c 0
 393 204 432 217 436 261 c 0
EndSplineSet
Position2: "SinglePositioninglookup48 per glyph data 0" dx=100 dy=0 dh=50 dv=0
Position2: "SinglePositioninglookup30 subtable" dx=140 dy=0 dh=140 dv=0
PairPos2: "PairwisePositioningkerninglooku subtable" uAA60.med.kham dx=-90 dy=0 dh=0 dv=0 dx=0 dy=0 dh=90 dv=0
PairPos2: "PairwisePositioningkerninglooku subtable" uAA60.med dx=-90 dy=0 dh=0 dv=0 dx=0 dy=0 dh=90 dv=0
PairPos2: "PairwisePositioningkerninglooku subtable" u1021.med dx=-90 dy=0 dh=0 dv=0 dx=0 dy=0 dh=90 dv=0
PairPos2: "PairwisePositioningkerninglooku subtable" u101E.med dx=-90 dy=0 dh=0 dv=0 dx=0 dy=0 dh=90 dv=0
PairPos2: "PairwisePositioningkerninglooku subtable" u101C.med dx=-90 dy=0 dh=0 dv=0 dx=0 dy=0 dh=90 dv=0
PairPos2: "PairwisePositioningkerninglooku subtable" u101A.med dx=-90 dy=0 dh=0 dv=0 dx=0 dy=0 dh=90 dv=0
PairPos2: "PairwisePositioningkerninglooku subtable" u1018.med dx=-90 dy=0 dh=0 dv=0 dx=0 dy=0 dh=90 dv=0
PairPos2: "PairwisePositioningkerninglooku subtable" u1011.med dx=-90 dy=0 dh=0 dv=0 dx=0 dy=0 dh=90 dv=0
PairPos2: "PairwisePositioningkerninglooku subtable" u1010.med dx=-90 dy=0 dh=0 dv=0 dx=0 dy=0 dh=90 dv=0
PairPos2: "PairwisePositioningkerninglooku subtable" u100F.med dx=-90 dy=0 dh=0 dv=0 dx=0 dy=0 dh=90 dv=0
PairPos2: "PairwisePositioningkerninglooku subtable" u100C.med dx=-90 dy=0 dh=0 dv=0 dx=0 dy=0 dh=90 dv=0
PairPos2: "PairwisePositioningkerninglooku subtable" u100A.med dx=-90 dy=0 dh=0 dv=0 dx=0 dy=0 dh=90 dv=0
PairPos2: "PairwisePositioningkerninglooku subtable" u1006.med dx=-90 dy=0 dh=0 dv=0 dx=0 dy=0 dh=90 dv=0
PairPos2: "PairwisePositioningkerninglooku subtable" u1003.med dx=-90 dy=0 dh=0 dv=0 dx=0 dy=0 dh=90 dv=0
PairPos2: "PairwisePositioningkerninglooku subtable" u1000.med dx=-90 dy=0 dh=0 dv=0 dx=0 dy=0 dh=90 dv=0
Ligature2: "LigatureSubstitutionlookup169 subtable" u1007 u103C
Ligature2: "LigatureSubstitutionlookup167 subtable" u1007 u103C u1031
Ligature2: "LigatureSubstitutionlookup167 subtable" u1007 u103C.wide u1031
Ligature2: "LigatureSubstitutionlookup167 subtable" u1007 u103C_u103D.narr u1031
Ligature2: "LigatureSubstitutionlookup167 subtable" u1007 u103C_u103D.wide u1031
Ligature2: "LigatureSubstitutionlookup165 subtable" u1007 u103C
Ligature2: "LigatureSubstitutionlookup165 subtable" u1007 u103C_u103D.narr
Ligature2: "LigatureSubstitutionlookup165 subtable" u1007 u103C_u102F.narr
Ligature2: "LigatureSubstitutionlookup163 subtable" u1007 u1031
Ligature2: "LigatureSubstitutionlookup163 subtable" u1007 u1084
Ligature2: "LigatureSubstitutionlookup162 subtable" u1007 u103D
Ligature2: "LigatureSubstitutionlookup162 subtable" u1007 u103E
Ligature2: "LigatureSubstitutionlookup162 subtable" u1007 u103D_u103E
Ligature2: "LigatureSubstitutionlookup162 subtable" u1007
Ligature2: "LigatureSubstitutionlookup162 subtable" u1007 u105F
Ligature2: "LigatureSubstitutionlookup162 subtable" u1007 u1060
Ligature2: "LigatureSubstitutionlookup162 subtable" u1007 u1082
Ligature2: "LigatureSubstitutionlookup158 subtable" u1007 u1039
Ligature2: "LigatureSubstitutionlookup130 subtable" u1004.kinzi u200D u1007
Ligature2: "LigatureSubstitutionlookup130 subtable" u101B.kinzi u200D u1007
Ligature2: "LigatureSubstitutionlookup127 subtable" u1004.kinzi u200D u1007
Ligature2: "LigatureSubstitutionlookup127 subtable" u101B.kinzi u200D u1007
Ligature2: "LigatureSubstitutionlookup124 subtable" u1004.kinzi u200D u1007
Ligature2: "LigatureSubstitutionlookup124 subtable" u101B.kinzi u200D u1007
MultipleSubs2: "MultipleSubstitutionlookup139 subtable" u200C u1031 u1007
MultipleSubs2: "MultipleSubstitutionlookup137 subtable" u200C u1084 u1007
MultipleSubs2: "MultipleSubstitutionlookup136 subtable" u200C u103C_u103D.narr u1007
MultipleSubs2: "MultipleSubstitutionlookup135 subtable" u200C u103C_u102F.narr u1007
MultipleSubs2: "MultipleSubstitutionlookup134 subtable" u200C u103C u1007
MultipleSubs2: "MultipleSubstitutionlookup129 subtable" u1007 u101B.kinzi
MultipleSubs2: "MultipleSubstitutionlookup128 subtable" u1007 u1004.kinzi
Comment: "GDL_order: 1+AAoA-mark: 80+AAoA" 
EndChar

StartChar: u1007.med
Encoding: 124 -1 122
Width: 0
VWidth: 0
GlyphClass: 4
Flags: HW
AnchorPoint: "BS" -283 -53 mark 0
AnchorPoint: "LLM" -596 -53 basemark 0
AnchorPoint: "BSM" -283 -53 mark 0
AnchorPoint: "LM" 25 -53 basemark 0
AnchorPoint: "BSM" 532 -53 basemark 0
LayerCount: 2
Fore
SplineSet
-56 -318 m 0
 -87 -341 l 0
 -98 -322 -118 -290 -129 -273 c 0
 -147 -303 -182 -320 -216 -320 c 0
 -257 -320 -294 -300 -294 -254 c 0
 -294 -207 -266 -176 -216 -176 c 0
 -200 -176 -183 -180 -167 -188 c 0
 -179 -156 -210 -125 -272 -125 c 0
 -353 -125 -413 -192 -413 -267 c 0
 -413 -350 -353 -410 -273 -410 c 0
 -227 -410 -200 -396 -164 -365 c 0
 -138 -395 l 0
 -179 -431 -215 -450 -273 -450 c 0
 -377 -450 -452 -369 -452 -267 c 0
 -452 -168 -371 -84 -272 -84 c 0
 -177 -84 -120 -146 -119 -225 c 0
 -93 -254 -72 -290 -56 -318 c 0
-159 -237 m 0
 -176 -221 -194 -215 -216 -215 c 0
 -242 -215 -255 -228 -255 -254 c 0
 -255 -270 -239 -281 -216 -281 c 0
 -192 -281 -164 -269 -159 -237 c 0
EndSplineSet
Ligature2: "LigatureSubstitutionlookup179 subtable" u1007.med u102D
Ligature2: "LigatureSubstitutionlookup179 subtable" u1007.med u102E
Ligature2: "LigatureSubstitutionlookup179 subtable" u1007.med u1032
Ligature2: "LigatureSubstitutionlookup179 subtable" u1007.med u103A
Ligature2: "LigatureSubstitutionlookup171 subtable" u1007.med u103C u1031
Ligature2: "LigatureSubstitutionlookup159 subtable" u1007.med u1031
Ligature2: "LigatureSubstitutionlookup159 subtable" u1007.med u103C
Ligature2: "sub_ligature_cligmymr_0 subtable" u1039 u1007
MultipleSubs2: "MultipleSubstitutionlookup138 subtable" u1039 u1007.med
Comment: "GDL_order: 2+AAoA-mark: 80+AAoA" 
EndChar

StartChar: u1008
Encoding: 125 4104 123
Width: 721
VWidth: 0
GlyphClass: 2
Flags: W
HStem: -15 51<222.45 349.678> 408 51<222.998 371.853> 424 20G<615 666>
VStem: 55 51<134.453 309.251> 241 51<139.95 307.617> 351 52<-329 -6> 469 51<134.217 309.23> 615 51<-384 444>
DStem2: 403 -329 351 -369 0.968493 -0.249041<0 219.018>
AnchorPoint: "R" 0 0 mark 0
AnchorPoint: "BS" 810 -53 basechar 0
AnchorPoint: "LL" 208 -53 basechar 0
AnchorPoint: "L" 810 -53 basechar 0
AnchorPoint: "U" 549 486 basechar 0
AnchorPoint: "BD" 810 -53 basechar 0
LayerCount: 2
Fore
SplineSet
666 -450 m 0xbf
 351 -369 l 0
 351 -6 l 0
 331 -12 310 -15 289 -15 c 0
 157 -15 55 91 55 222 c 0
 55 351 159 459 286 459 c 0xdf
 418 459 520 351 520 222 c 0
 520 132 474 55 403 15 c 0
 403 -329 l 0
 615 -384 l 0
 615 444 l 0
 666 444 l 0
 666 -450 l 0xbf
469 222 m 0
 469 324 388 408 289 408 c 0
 265 408 244 402 222 394 c 0
 274 340 292 276 292 222 c 0
 292 166 274 103 220 49 c 0
 240 40 261 36 286 36 c 0
 388 36 469 120 469 222 c 0
241 222 m 0
 241 256 229 315 175 367 c 0
 133 333 106 280 106 222 c 0
 106 163 132 112 172 78 c 0
 226 130 241 187 241 222 c 0
EndSplineSet
Ligature2: "LigatureSubstitutionlookup169 subtable" u1008 u103C
Ligature2: "LigatureSubstitutionlookup167 subtable" u1008 u103C u1031
Ligature2: "LigatureSubstitutionlookup167 subtable" u1008 u103C.wide u1031
Ligature2: "LigatureSubstitutionlookup167 subtable" u1008 u103C_u103D.narr u1031
Ligature2: "LigatureSubstitutionlookup167 subtable" u1008 u103C_u103D.wide u1031
Ligature2: "LigatureSubstitutionlookup165 subtable" u1008 u103C
Ligature2: "LigatureSubstitutionlookup165 subtable" u1008 u103C_u103D.narr
Ligature2: "LigatureSubstitutionlookup165 subtable" u1008 u103C_u102F.narr
Ligature2: "LigatureSubstitutionlookup163 subtable" u1008 u1031
Ligature2: "LigatureSubstitutionlookup163 subtable" u1008 u1084
Ligature2: "LigatureSubstitutionlookup162 subtable" u1008 u103D
Ligature2: "LigatureSubstitutionlookup162 subtable" u1008 u103E
Ligature2: "LigatureSubstitutionlookup162 subtable" u1008 u103D_u103E
Ligature2: "LigatureSubstitutionlookup162 subtable" u1008
Ligature2: "LigatureSubstitutionlookup162 subtable" u1008 u105F
Ligature2: "LigatureSubstitutionlookup162 subtable" u1008 u1060
Ligature2: "LigatureSubstitutionlookup162 subtable" u1008 u1082
Ligature2: "LigatureSubstitutionlookup158 subtable" u1008 u1039
Ligature2: "LigatureSubstitutionlookup130 subtable" u1004.kinzi u200D u1008
Ligature2: "LigatureSubstitutionlookup130 subtable" u101B.kinzi u200D u1008
Ligature2: "LigatureSubstitutionlookup127 subtable" u1004.kinzi u200D u1008
Ligature2: "LigatureSubstitutionlookup127 subtable" u101B.kinzi u200D u1008
Ligature2: "LigatureSubstitutionlookup124 subtable" u1004.kinzi u200D u1008
Ligature2: "LigatureSubstitutionlookup124 subtable" u101B.kinzi u200D u1008
MultipleSubs2: "MultipleSubstitutionlookup139 subtable" u200C u1031 u1008
MultipleSubs2: "MultipleSubstitutionlookup137 subtable" u200C u1084 u1008
MultipleSubs2: "MultipleSubstitutionlookup129 subtable" u1008 u101B.kinzi
MultipleSubs2: "MultipleSubstitutionlookup128 subtable" u1008 u1004.kinzi
Comment: "GDL_order: 1+AAoA-mark: 80+AAoA" 
EndChar

StartChar: u1008.med
Encoding: 126 -1 124
Width: 162
VWidth: 0
GlyphClass: 2
Flags: W
HStem: -435 40<-268.135 -148.251> -110 41<-267.635 -148.572> 424 20G<55 106>
VStem: -396 39<-323.514 -180.341> -249 34<-314.857 -186.992> -78 39<-323.117 -180.941> 55 51<-384 444>
DStem2: -68 -351 -107 -395 0.968242 -0.250015<0 127.344>
AnchorPoint: "BS" 250 -53 basechar 0
AnchorPoint: "L" 250 -53 basechar 0
AnchorPoint: "dot" -218 -53 basechar 0
AnchorPoint: "U" 0 495 basechar 0
LayerCount: 2
Fore
SplineSet
106 -450 m 0
 -107 -395 l 0
 -138 -419 -176 -435 -218 -435 c 0
 -317 -435 -396 -351 -396 -252 c 0
 -396 -150 -317 -69 -218 -69 c 0
 -120 -69 -39 -150 -39 -252 c 0
 -39 -288 -48 -321 -68 -351 c 0
 55 -384 l 0
 55 444 l 0
 106 444 l 0
 106 -450 l 0
-78 -252 m 0
 -78 -174 -141 -110 -218 -110 c 0
 -237 -110 -254 -113 -269 -119 c 0
 -227 -159 -215 -209 -215 -252 c 0
 -215 -296 -228 -344 -270 -386 c 0
 -255 -392 -237 -395 -218 -395 c 0
 -141 -395 -78 -330 -78 -252 c 0
-249 -252 m 0
 -249 -227 -260 -179 -300 -138 c 0
 -336 -164 -357 -206 -357 -252 c 0
 -357 -299 -336 -342 -302 -365 c 0
 -261 -324 -249 -278 -249 -252 c 0
EndSplineSet
Ligature2: "LigatureSubstitutionlookup179 subtable" u1008.med u102D
Ligature2: "LigatureSubstitutionlookup179 subtable" u1008.med u102E
Ligature2: "LigatureSubstitutionlookup179 subtable" u1008.med u1032
Ligature2: "LigatureSubstitutionlookup179 subtable" u1008.med u103A
Ligature2: "LigatureSubstitutionlookup171 subtable" u1008.med u103C u1031
Ligature2: "LigatureSubstitutionlookup159 subtable" u1008.med u1031
Ligature2: "LigatureSubstitutionlookup159 subtable" u1008.med u103C
Ligature2: "sub_ligature_cligmymr_0 subtable" u1039 u1008
MultipleSubs2: "MultipleSubstitutionlookup138 subtable" u1039 u1008.med
Comment: "GDL_order: 2+AAoA-mark: 80+AAoA" 
EndChar

StartChar: u1009
Encoding: 127 4105 125
Width: 568
VWidth: 0
GlyphClass: 2
Flags: HW
AnchorPoint: "R" 0 0 mark 0
AnchorPoint: "BS" 450 -53 basechar 0
AnchorPoint: "LL" 724 -53 basechar 0
AnchorPoint: "L" 276 -53 basechar 0
AnchorPoint: "U" 276 495 basechar 0
AnchorPoint: "BD" 450 -53 basechar 0
LayerCount: 2
Fore
SplineSet
919 -302 m 0
 919 -347 l 0
 919 -392 914 -410 903 -423 c 0
 889 -440 874 -450 835 -450 c 0
 321 -450 l 0
 227 -450 169 -430 121 -381 c 0
 72 -331 55 -271 55 -185 c 0
 55 121 l 0
 100 147 l 0
 136 76 205 36 276 36 c 0
 378 36 462 120 462 222 c 0
 462 324 378 408 276 408 c 0
 205 408 136 367 100 297 c 0
 55 322 l 0
 93 412 187 459 276 459 c 0
 406 459 513 351 513 222 c 0
 513 91 406 -15 276 -15 c 0
 216 -15 153 7 106 49 c 0
 106 -167 l 0
 106 -244 116 -304 159 -347 c 0
 202 -391 264 -399 337 -399 c 0
 810 -399 l 0
 864 -399 868 -393 868 -338 c 0
 868 -302 l 0
 919 -302 l 0
EndSplineSet
Substitution2: "SingleSubstitutionlookup146 subtable" u1025
Ligature2: "LigatureSubstitutionlookup169 subtable" u1009 u103C
Ligature2: "LigatureSubstitutionlookup167 subtable" u1009 u103C u1031
Ligature2: "LigatureSubstitutionlookup167 subtable" u1009 u103C.wide u1031
Ligature2: "LigatureSubstitutionlookup167 subtable" u1009 u103C_u103D.narr u1031
Ligature2: "LigatureSubstitutionlookup167 subtable" u1009 u103C_u103D.wide u1031
Ligature2: "LigatureSubstitutionlookup165 subtable" u1009 u103C
Ligature2: "LigatureSubstitutionlookup165 subtable" u1009 u103C_u103D.narr
Ligature2: "LigatureSubstitutionlookup165 subtable" u1009 u103C_u102F.narr
Ligature2: "LigatureSubstitutionlookup163 subtable" u1009 u1031
Ligature2: "LigatureSubstitutionlookup163 subtable" u1009 u1084
Ligature2: "LigatureSubstitutionlookup162 subtable" u1009 u103D
Ligature2: "LigatureSubstitutionlookup162 subtable" u1009 u103E
Ligature2: "LigatureSubstitutionlookup162 subtable" u1009 u103D_u103E
Ligature2: "LigatureSubstitutionlookup162 subtable" u1009
Ligature2: "LigatureSubstitutionlookup162 subtable" u1009 u105F
Ligature2: "LigatureSubstitutionlookup162 subtable" u1009 u1060
Ligature2: "LigatureSubstitutionlookup162 subtable" u1009 u1082
Ligature2: "LigatureSubstitutionlookup158 subtable" u1009 u1039
Ligature2: "LigatureSubstitutionlookup130 subtable" u1004.kinzi u200D u1009
Ligature2: "LigatureSubstitutionlookup130 subtable" u101B.kinzi u200D u1009
Ligature2: "LigatureSubstitutionlookup127 subtable" u1004.kinzi u200D u1009
Ligature2: "LigatureSubstitutionlookup127 subtable" u101B.kinzi u200D u1009
Ligature2: "LigatureSubstitutionlookup124 subtable" u1004.kinzi u200D u1009
Ligature2: "LigatureSubstitutionlookup124 subtable" u101B.kinzi u200D u1009
MultipleSubs2: "MultipleSubstitutionlookup139 subtable" u200C u1031 u1009
MultipleSubs2: "MultipleSubstitutionlookup137 subtable" u200C u1084 u1009
MultipleSubs2: "MultipleSubstitutionlookup129 subtable" u1009 u101B.kinzi
MultipleSubs2: "MultipleSubstitutionlookup128 subtable" u1009 u1004.kinzi
Comment: "GDL_order: 1+AAoA-mark: 80+AAoA" 
EndChar

StartChar: u1009_u102C
Encoding: 128 -1 126
Width: 990
VWidth: 0
GlyphClass: 2
Flags: HW
AnchorPoint: "R" 0 0 mark 0
AnchorPoint: "BS" 1063 -53 basechar 0
AnchorPoint: "L" 702 -53 basechar 0
AnchorPoint: "U" 702 495 basechar 0
AnchorPoint: "BD" 1063 -53 basechar 0
LayerCount: 2
Fore
SplineSet
934 222 m 0
 934 91 828 -15 702 -15 c 0
 678 -15 654 -9 631 0 c 0
 651 46 l 0
 667 39 685 36 702 36 c 0
 802 36 883 120 883 222 c 0
 883 324 802 408 702 408 c 0
 610 408 521 304 513 214 c 0
 511 192 l 0
 502 97 412 -15 276 -15 c 0
 216 -15 153 7 106 49 c 0
 106 -167 l 0
 106 -244 116 -304 159 -347 c 0
 202 -391 264 -399 337 -399 c 0
 810 -399 l 0
 864 -399 868 -393 868 -338 c 0
 868 -302 l 0
 919 -302 l 0
 919 -347 l 0
 919 -392 914 -410 903 -423 c 0
 889 -440 874 -450 835 -450 c 0
 321 -450 l 0
 227 -450 169 -430 121 -381 c 0
 72 -331 55 -271 55 -185 c 0
 55 121 l 0
 100 147 l 0
 136 76 205 36 276 36 c 0
 372 36 462 116 462 222 c 0
 462 324 378 408 276 408 c 0
 205 408 136 367 100 297 c 0
 55 322 l 0
 93 412 187 459 276 459 c 0
 372 459 456 399 492 315 c 0
 535 397 613 459 702 459 c 0
 828 459 934 351 934 222 c 0
EndSplineSet
Ligature2: "sub_ligature_cligmymr_4 subtable" u1009 u102C
Comment: "GDL_order: 1+AAoA-mark: 80+AAoA" 
EndChar

StartChar: u100A
Encoding: 129 4106 127
Width: 990
VWidth: 0
GlyphClass: 2
Flags: HW
AnchorPoint: "R" 0 0 mark 0
AnchorPoint: "BS" 1063 -53 basechar 0
AnchorPoint: "L" 702 -53 basechar 0
AnchorPoint: "U" 702 495 basechar 0
AnchorPoint: "BD" 1063 -53 basechar 0
LayerCount: 2
Fore
SplineSet
934 222 m 0
 934 91 828 -15 702 -15 c 0
 613 -15 535 45 493 127 c 0
 456 43 372 -15 276 -15 c 0
 216 -15 153 7 106 49 c 0
 106 -167 l 0
 106 -244 116 -304 159 -347 c 0
 202 -391 264 -399 337 -399 c 0
 810 -399 l 0
 864 -399 868 -393 868 -338 c 0
 868 -302 l 0
 919 -302 l 0
 919 -347 l 0
 919 -392 914 -410 903 -423 c 0
 889 -440 874 -450 835 -450 c 0
 321 -450 l 0
 227 -450 169 -430 121 -381 c 0
 72 -331 55 -271 55 -185 c 0
 55 121 l 0
 100 147 l 0
 136 76 205 36 276 36 c 0
 378 36 462 119 462 219 c 0
 462 309 385 408 276 408 c 0
 203 408 138 371 100 297 c 0
 55 322 l 0
 93 412 187 459 276 459 c 0
 402 459 508 352 513 228 c 0
 525 132 610 36 702 36 c 0
 802 36 883 120 883 222 c 0
 883 324 802 408 702 408 c 0
 687 408 666 403 651 397 c 0
 631 444 l 0
 654 452 681 459 702 459 c 0
 828 459 934 351 934 222 c 0
EndSplineSet
Substitution2: "SingleSubstitutionlookup143 subtable" u100A.alt
Ligature2: "LigatureSubstitutionlookup169 subtable" u100A u103C
Ligature2: "LigatureSubstitutionlookup167 subtable" u100A u103C u1031
Ligature2: "LigatureSubstitutionlookup167 subtable" u100A u103C.wide u1031
Ligature2: "LigatureSubstitutionlookup167 subtable" u100A u103C_u103D.narr u1031
Ligature2: "LigatureSubstitutionlookup167 subtable" u100A u103C_u103D.wide u1031
Ligature2: "LigatureSubstitutionlookup165 subtable" u100A u103C
Ligature2: "LigatureSubstitutionlookup165 subtable" u100A u103C_u103D.narr
Ligature2: "LigatureSubstitutionlookup165 subtable" u100A u103C_u102F.narr
Ligature2: "LigatureSubstitutionlookup163 subtable" u100A u1031
Ligature2: "LigatureSubstitutionlookup163 subtable" u100A u1084
Ligature2: "LigatureSubstitutionlookup162 subtable" u100A u103D
Ligature2: "LigatureSubstitutionlookup162 subtable" u100A u103E
Ligature2: "LigatureSubstitutionlookup162 subtable" u100A u103D_u103E
Ligature2: "LigatureSubstitutionlookup162 subtable" u100A
Ligature2: "LigatureSubstitutionlookup162 subtable" u100A u105F
Ligature2: "LigatureSubstitutionlookup162 subtable" u100A u1060
Ligature2: "LigatureSubstitutionlookup162 subtable" u100A u1082
Ligature2: "LigatureSubstitutionlookup158 subtable" u100A u1039
Ligature2: "LigatureSubstitutionlookup130 subtable" u1004.kinzi u200D u100A
Ligature2: "LigatureSubstitutionlookup130 subtable" u101B.kinzi u200D u100A
Ligature2: "LigatureSubstitutionlookup127 subtable" u1004.kinzi u200D u100A
Ligature2: "LigatureSubstitutionlookup127 subtable" u101B.kinzi u200D u100A
Ligature2: "LigatureSubstitutionlookup124 subtable" u1004.kinzi u200D u100A
Ligature2: "LigatureSubstitutionlookup124 subtable" u101B.kinzi u200D u100A
MultipleSubs2: "MultipleSubstitutionlookup139 subtable" u200C u1031 u100A
MultipleSubs2: "MultipleSubstitutionlookup137 subtable" u200C u1084 u100A
MultipleSubs2: "MultipleSubstitutionlookup136 subtable" u200C u103C_u103D.wide u100A
MultipleSubs2: "MultipleSubstitutionlookup135 subtable" u200C u103C_u102F.wide u100A
MultipleSubs2: "MultipleSubstitutionlookup134 subtable" u200C u103C.wide u100A
MultipleSubs2: "MultipleSubstitutionlookup129 subtable" u100A u101B.kinzi
MultipleSubs2: "MultipleSubstitutionlookup128 subtable" u100A u1004.kinzi
Comment: "GDL_order: 1+AAoA-mark: 80+AAoA" 
EndChar

StartChar: u100A.alt
Encoding: 130 -1 128
Width: 990
VWidth: 0
GlyphClass: 2
Flags: HW
AnchorPoint: "R" 0 0 mark 0
AnchorPoint: "BS" 702 -53 basechar 0
AnchorPoint: "L" 702 -53 basechar 0
AnchorPoint: "BD" 486 -53 basechar 0
AnchorPoint: "U" 702 495 basechar 0
LayerCount: 2
Fore
SplineSet
934 222 m 0
 934 91 828 -15 702 -15 c 0
 613 -15 535 45 493 127 c 0
 456 43 372 -15 276 -15 c 0
 216 -15 153 7 106 49 c 0
 106 -260 l 0
 106 -308 120 -337 144 -361 c 0
 170 -387 202 -399 231 -399 c 0
 289 -399 l 0
 289 -450 l 0
 231 -450 l 0
 192 -450 142 -431 106 -395 c 0
 73 -362 55 -317 55 -272 c 0
 55 121 l 0
 100 147 l 0
 136 76 205 36 276 36 c 0
 378 36 462 119 462 219 c 0
 462 309 385 408 276 408 c 0
 203 408 138 371 100 297 c 0
 55 322 l 0
 93 412 187 459 276 459 c 0
 402 459 508 352 513 228 c 0
 525 132 610 36 702 36 c 0
 802 36 883 120 883 222 c 0
 883 324 802 408 702 408 c 0
 687 408 666 403 651 397 c 0
 631 444 l 0
 654 452 681 459 702 459 c 0
 828 459 934 351 934 222 c 0
EndSplineSet
Ligature2: "LigatureSubstitutionlookup169 subtable" u100A.alt u103C
Ligature2: "LigatureSubstitutionlookup167 subtable" u100A.alt u103C u1031
Ligature2: "LigatureSubstitutionlookup167 subtable" u100A.alt u103C.wide u1031
Ligature2: "LigatureSubstitutionlookup167 subtable" u100A.alt u103C_u103D.narr u1031
Ligature2: "LigatureSubstitutionlookup167 subtable" u100A.alt u103C_u103D.wide u1031
Ligature2: "LigatureSubstitutionlookup165 subtable" u100A.alt u103C
Ligature2: "LigatureSubstitutionlookup165 subtable" u100A.alt u103C_u103D.narr
Ligature2: "LigatureSubstitutionlookup165 subtable" u100A.alt u103C_u102F.narr
Ligature2: "LigatureSubstitutionlookup163 subtable" u100A.alt u1031
Ligature2: "LigatureSubstitutionlookup163 subtable" u100A.alt u1084
Ligature2: "LigatureSubstitutionlookup162 subtable" u100A.alt u103D
Ligature2: "LigatureSubstitutionlookup162 subtable" u100A.alt u103E
Ligature2: "LigatureSubstitutionlookup162 subtable" u100A.alt u103D_u103E
Ligature2: "LigatureSubstitutionlookup162 subtable" u100A.alt
Ligature2: "LigatureSubstitutionlookup162 subtable" u100A.alt u105F
Ligature2: "LigatureSubstitutionlookup162 subtable" u100A.alt u1060
Ligature2: "LigatureSubstitutionlookup162 subtable" u100A.alt u1082
Ligature2: "LigatureSubstitutionlookup158 subtable" u100A.alt u1039
Ligature2: "LigatureSubstitutionlookup130 subtable" u1004.kinzi u200D u100A.alt
Ligature2: "LigatureSubstitutionlookup130 subtable" u101B.kinzi u200D u100A.alt
Ligature2: "LigatureSubstitutionlookup127 subtable" u1004.kinzi u200D u100A.alt
Ligature2: "LigatureSubstitutionlookup127 subtable" u101B.kinzi u200D u100A.alt
Ligature2: "LigatureSubstitutionlookup124 subtable" u1004.kinzi u200D u100A.alt
Ligature2: "LigatureSubstitutionlookup124 subtable" u101B.kinzi u200D u100A.alt
MultipleSubs2: "MultipleSubstitutionlookup139 subtable" u200C u1031 u100A.alt
MultipleSubs2: "MultipleSubstitutionlookup137 subtable" u200C u1084 u100A.alt
MultipleSubs2: "MultipleSubstitutionlookup136 subtable" u200C u103C_u103D.wide u100A.alt
MultipleSubs2: "MultipleSubstitutionlookup135 subtable" u200C u103C_u102F.wide u100A.alt
MultipleSubs2: "MultipleSubstitutionlookup134 subtable" u200C u103C.wide u100A.alt
MultipleSubs2: "MultipleSubstitutionlookup129 subtable" u100A.alt u101B.kinzi
MultipleSubs2: "MultipleSubstitutionlookup128 subtable" u100A.alt u1004.kinzi
Comment: "GDL_order: 1+AAoA-mark: 80+AAoA" 
EndChar

StartChar: u100A.med
Encoding: 131 -1 129
Width: 0
VWidth: 0
GlyphClass: 4
Flags: HW
AnchorPoint: "LLM" -832 -53 basemark 0
AnchorPoint: "BD" -368 -53 mark 0
AnchorPoint: "BSM" 110 -53 basemark 0
AnchorPoint: "LM" 110 -53 basemark 0
AnchorPoint: "BSM" 839 -53 mark 0
AnchorPoint: "BDM" -368 -53 mark 0
AnchorPoint: "BDM" 110 -53 basemark 0
LayerCount: 2
Fore
SplineSet
-55 -226 m 0
 -55 -317 -116 -359 -213 -359 c 0
 -276 -359 -312 -346 -358 -295 c 0
 -393 -346 -438 -359 -507 -359 c 0
 -554 -359 -596 -346 -631 -306 c 0
 -631 -384 -577 -410 -532 -410 c 0
 -136 -410 l 0
 -113 -410 -106 -405 -106 -378 c 0
 -106 -356 l 0
 -66 -356 l 0
 -66 -378 l 0
 -66 -429 -85 -450 -134 -450 c 0
 -533 -450 l 0
 -618 -450 -671 -391 -671 -302 c 0
 -671 -290 -670 -277 -668 -264 c 0
 -633 -244 l 0
 -605 -288 -563 -319 -507 -319 c 0
 -429 -319 -378 -284 -378 -226 c 0
 -378 -181 -411 -123 -507 -123 c 0
 -552 -123 -594 -143 -624 -187 c 0
 -651 -155 l 0
 -627 -119 -575 -84 -507 -84 c 0
 -410 -84 -339 -137 -339 -227 c 0
 -339 -281 -284 -319 -213 -319 c 0
 -136 -319 -94 -285 -94 -226 c 0
 -94 -158 -136 -123 -203 -123 c 0
 -219 -123 -241 -130 -253 -136 c 0
 -268 -100 l 0
 -250 -91 -219 -84 -203 -84 c 0
 -116 -84 -55 -137 -55 -226 c 0
EndSplineSet
Ligature2: "LigatureSubstitutionlookup179 subtable" u100A.med u102D
Ligature2: "LigatureSubstitutionlookup179 subtable" u100A.med u102E
Ligature2: "LigatureSubstitutionlookup179 subtable" u100A.med u1032
Ligature2: "LigatureSubstitutionlookup179 subtable" u100A.med u103A
Ligature2: "LigatureSubstitutionlookup171 subtable" u100A.med u103C u1031
Ligature2: "LigatureSubstitutionlookup159 subtable" u100A.med u1031
Ligature2: "LigatureSubstitutionlookup159 subtable" u100A.med u103C
Ligature2: "sub_ligature_cligmymr_0 subtable" u1039 u100A
MultipleSubs2: "MultipleSubstitutionlookup138 subtable" u1039 u100A.med
Comment: "GDL_order: 2+AAoA-mark: 80+AAoA" 
EndChar

StartChar: u100A_u100A
Encoding: 132 -1 130
Width: 1410
VWidth: 0
GlyphClass: 2
Flags: HW
AnchorPoint: "R" 0 0 mark 0
AnchorPoint: "BS" 1063 -53 basechar 0
AnchorPoint: "L" 702 -53 basechar 0
AnchorPoint: "U" 702 495 basechar 0
AnchorPoint: "BD" 1063 -53 basechar 0
LayerCount: 2
Fore
SplineSet
1355 222 m 0
 1355 91 1249 -15 1123 -15 c 0
 1034 -15 956 45 914 127 c 0
 878 43 796 -15 702 -15 c 0
 613 -15 535 45 493 127 c 0
 456 43 372 -15 276 -15 c 0
 216 -15 153 7 106 49 c 0
 106 -167 l 0
 106 -244 116 -304 159 -347 c 0
 202 -391 264 -399 337 -399 c 0
 1231 -399 l 0
 1285 -399 1289 -393 1289 -338 c 0
 1289 -302 l 0
 1340 -302 l 0
 1340 -347 l 0
 1340 -392 1335 -410 1324 -423 c 0
 1310 -440 1295 -450 1256 -450 c 0
 321 -450 l 0
 227 -450 169 -430 121 -381 c 0
 72 -331 55 -271 55 -185 c 0
 55 121 l 0
 100 147 l 0
 136 76 205 36 276 36 c 0
 378 36 462 119 462 219 c 0
 462 309 385 408 276 408 c 0
 203 408 138 371 100 297 c 0
 55 322 l 0
 93 412 187 459 276 459 c 0
 402 459 508 352 513 228 c 0
 525 132 610 36 702 36 c 0
 802 36 883 120 883 222 c 0
 883 324 802 408 702 408 c 0
 687 408 666 403 651 397 c 0
 631 444 l 0
 654 452 681 459 702 459 c 0
 825 459 934 353 934 228 c 0
 946 132 1031 36 1123 36 c 0
 1223 36 1304 120 1304 222 c 0
 1304 324 1223 408 1123 408 c 0
 1108 408 1087 403 1072 397 c 0
 1052 444 l 0
 1075 452 1102 459 1123 459 c 0
 1249 459 1355 351 1355 222 c 0
EndSplineSet
Ligature2: "LigatureSubstitutionlookup169 subtable" u100A_u100A u103C
Ligature2: "LigatureSubstitutionlookup167 subtable" u100A_u100A u103C u1031
Ligature2: "LigatureSubstitutionlookup167 subtable" u100A_u100A u103C.wide u1031
Ligature2: "LigatureSubstitutionlookup167 subtable" u100A_u100A u103C_u103D.narr u1031
Ligature2: "LigatureSubstitutionlookup167 subtable" u100A_u100A u103C_u103D.wide u1031
Ligature2: "LigatureSubstitutionlookup165 subtable" u100A_u100A u103C
Ligature2: "LigatureSubstitutionlookup165 subtable" u100A_u100A u103C_u103D.narr
Ligature2: "LigatureSubstitutionlookup165 subtable" u100A_u100A u103C_u102F.narr
Ligature2: "LigatureSubstitutionlookup163 subtable" u100A_u100A u1031
Ligature2: "LigatureSubstitutionlookup163 subtable" u100A_u100A u1084
Ligature2: "LigatureSubstitutionlookup162 subtable" u100A_u100A u103D
Ligature2: "LigatureSubstitutionlookup162 subtable" u100A_u100A u103E
Ligature2: "LigatureSubstitutionlookup162 subtable" u100A_u100A u103D_u103E
Ligature2: "LigatureSubstitutionlookup162 subtable" u100A_u100A
Ligature2: "LigatureSubstitutionlookup162 subtable" u100A_u100A u105F
Ligature2: "LigatureSubstitutionlookup162 subtable" u100A_u100A u1060
Ligature2: "LigatureSubstitutionlookup162 subtable" u100A_u100A u1082
Ligature2: "LigatureSubstitutionlookup158 subtable" u100A_u100A u1039
Ligature2: "LigatureSubstitutionlookup130 subtable" u1004.kinzi u200D u100A_u100A
Ligature2: "LigatureSubstitutionlookup130 subtable" u101B.kinzi u200D u100A_u100A
Ligature2: "LigatureSubstitutionlookup127 subtable" u1004.kinzi u200D u100A_u100A
Ligature2: "LigatureSubstitutionlookup127 subtable" u101B.kinzi u200D u100A_u100A
Ligature2: "LigatureSubstitutionlookup124 subtable" u1004.kinzi u200D u100A_u100A
Ligature2: "LigatureSubstitutionlookup124 subtable" u101B.kinzi u200D u100A_u100A
Ligature2: "sub_ligature_cligmymr_4 subtable" u100A u100A.med
MultipleSubs2: "MultipleSubstitutionlookup139 subtable" u200C u1031 u100A_u100A
MultipleSubs2: "MultipleSubstitutionlookup137 subtable" u200C u1084 u100A_u100A
MultipleSubs2: "MultipleSubstitutionlookup129 subtable" u100A_u100A u101B.kinzi
MultipleSubs2: "MultipleSubstitutionlookup128 subtable" u100A_u100A u1004.kinzi
Comment: "GDL_order: 1+AAoA-mark: 80+AAoA" 
EndChar

StartChar: u100B
Encoding: 133 4107 131
Width: 568
VWidth: 0
GlyphClass: 2
Flags: W
HStem: -450 55<513.652 584.739> -293 51<172.435 429.548> -158 51<173.01 407.455> -15 51<206.554 381.513> 408 51<206.554 378.804>
VStem: 55 51<136.348 307.24> 85 51<-214.144 -125> 462 51<-394.645 -263 -70.3457 49>
AnchorPoint: "R" 0 0 mark 0
AnchorPoint: "BS" 657 -53 basechar 0
AnchorPoint: "L" 657 -53 basechar 0
AnchorPoint: "U" 292 495 basechar 0
AnchorPoint: "BD" 657 -53 basechar 0
LayerCount: 2
Fore
SplineSet
597 -423 m 0xfb
 571 -435 538 -450 520 -450 c 0
 478 -450 462 -419 462 -378 c 0
 462 -263 l 0
 409 -285 351 -293 292 -293 c 0
 219 -293 144 -275 85 -233 c 0
 85 -41 l 0xfb
 148 -80 213 -107 292 -107 c 0
 351 -107 408 -89 462 -60 c 0
 462 49 l 0
 415 7 351 -15 292 -15 c 0
 162 -15 55 91 55 222 c 0
 55 351 162 459 292 459 c 0
 381 459 475 412 513 322 c 0
 469 297 l 0
 432 367 363 408 292 408 c 0
 190 408 106 324 106 222 c 0xfd
 106 120 190 36 292 36 c 0
 363 36 432 76 469 147 c 0
 513 121 l 0
 513 -89 l 0
 445 -132 372 -158 292 -158 c 0
 238 -158 184 -147 136 -125 c 0
 136 -204 l 0
 186 -230 238 -242 292 -242 c 0
 369 -242 437 -223 513 -186 c 0
 513 -369 l 0
 513 -388 515 -395 525 -395 c 0
 538 -395 573 -380 583 -374 c 0
 597 -423 l 0xfb
EndSplineSet
Ligature2: "LigatureSubstitutionlookup169 subtable" u100B u103C
Ligature2: "LigatureSubstitutionlookup167 subtable" u100B u103C u1031
Ligature2: "LigatureSubstitutionlookup167 subtable" u100B u103C.wide u1031
Ligature2: "LigatureSubstitutionlookup167 subtable" u100B u103C_u103D.narr u1031
Ligature2: "LigatureSubstitutionlookup167 subtable" u100B u103C_u103D.wide u1031
Ligature2: "LigatureSubstitutionlookup165 subtable" u100B u103C
Ligature2: "LigatureSubstitutionlookup165 subtable" u100B u103C_u103D.narr
Ligature2: "LigatureSubstitutionlookup165 subtable" u100B u103C_u102F.narr
Ligature2: "LigatureSubstitutionlookup163 subtable" u100B u1031
Ligature2: "LigatureSubstitutionlookup163 subtable" u100B u1084
Ligature2: "LigatureSubstitutionlookup162 subtable" u100B u103D
Ligature2: "LigatureSubstitutionlookup162 subtable" u100B u103E
Ligature2: "LigatureSubstitutionlookup162 subtable" u100B u103D_u103E
Ligature2: "LigatureSubstitutionlookup162 subtable" u100B
Ligature2: "LigatureSubstitutionlookup162 subtable" u100B u105F
Ligature2: "LigatureSubstitutionlookup162 subtable" u100B u1060
Ligature2: "LigatureSubstitutionlookup162 subtable" u100B u1082
Ligature2: "LigatureSubstitutionlookup158 subtable" u100B u1039
Ligature2: "LigatureSubstitutionlookup130 subtable" u1004.kinzi u200D u100B
Ligature2: "LigatureSubstitutionlookup130 subtable" u101B.kinzi u200D u100B
Ligature2: "LigatureSubstitutionlookup127 subtable" u1004.kinzi u200D u100B
Ligature2: "LigatureSubstitutionlookup127 subtable" u101B.kinzi u200D u100B
Ligature2: "LigatureSubstitutionlookup124 subtable" u1004.kinzi u200D u100B
Ligature2: "LigatureSubstitutionlookup124 subtable" u101B.kinzi u200D u100B
MultipleSubs2: "MultipleSubstitutionlookup139 subtable" u200C u1031 u100B
MultipleSubs2: "MultipleSubstitutionlookup137 subtable" u200C u1084 u100B
MultipleSubs2: "MultipleSubstitutionlookup129 subtable" u100B u101B.kinzi
MultipleSubs2: "MultipleSubstitutionlookup128 subtable" u100B u1004.kinzi
Comment: "GDL_order: 1+AAoA-mark: 80+AAoA" 
EndChar

StartChar: u100B.alt
Encoding: 134 -1 132
Width: 568
VWidth: 0
GlyphClass: 2
Flags: HW
AnchorPoint: "R" 0 0 mark 0
AnchorPoint: "BS" 207 -173 basechar 0
AnchorPoint: "LL" 292 -53 basechar 0
AnchorPoint: "L" 642 -53 basechar 0
AnchorPoint: "BD" 60 -173 basechar 0
AnchorPoint: "U" 292 495 basechar 0
LayerCount: 2
Fore
SplineSet
513 121 m 0
 475 31 381 -15 292 -15 c 0
 162 -15 55 91 55 222 c 0
 55 351 162 459 292 459 c 0
 381 459 475 412 513 322 c 0
 469 297 l 0
 432 367 363 408 292 408 c 0
 190 408 106 324 106 222 c 0
 106 120 190 36 292 36 c 0
 363 36 432 76 469 147 c 0
 513 121 l 0
574 -450 m 0
 447 -450 l 0
 447 -123 l 0
 397 -146 351 -158 292 -158 c 0
 219 -158 147 -138 85 -98 c 0
 85 -41 l 0
 148 -80 213 -107 292 -107 c 0
 370 -107 424 -83 498 -42 c 0
 498 -399 l 0
 574 -399 l 0
 574 -450 l 0
EndSplineSet
Comment: "GDL_order: 1+AAoA-mark: 80+AAoA" 
EndChar

StartChar: u100B.med
Encoding: 135 -1 133
Width: 0
VWidth: 0
GlyphClass: 4
Flags: HW
AnchorPoint: "BS" -161 -53 mark 0
AnchorPoint: "LLM" -416 -53 basemark 0
AnchorPoint: "BSM" -161 -53 mark 0
AnchorPoint: "LM" 88 -53 basemark 0
AnchorPoint: "BSM" 166 -53 basemark 0
LayerCount: 2
Fore
SplineSet
-26 -450 m 0
 -116 -450 l 0
 -116 -379 l 0
 -126 -380 -146 -381 -158 -381 c 0
 -199 -381 -272 -365 -272 -293 c 0
 -272 -223 -199 -204 -151 -204 c 0
 -116 -204 -83 -209 -56 -227 c 0
 -77 -260 l 0
 -99 -246 -118 -243 -151 -243 c 0
 -184 -243 -233 -257 -233 -293 c 0
 -233 -329 -184 -342 -158 -342 c 0
 -124 -342 -101 -338 -77 -329 c 0
 -77 -411 l 0
 -26 -411 l 0
 -26 -450 l 0
EndSplineSet
Ligature2: "LigatureSubstitutionlookup179 subtable" u100B.med u102D
Ligature2: "LigatureSubstitutionlookup179 subtable" u100B.med u102E
Ligature2: "LigatureSubstitutionlookup179 subtable" u100B.med u1032
Ligature2: "LigatureSubstitutionlookup179 subtable" u100B.med u103A
Ligature2: "LigatureSubstitutionlookup171 subtable" u100B.med u103C u1031
Ligature2: "LigatureSubstitutionlookup159 subtable" u100B.med u1031
Ligature2: "LigatureSubstitutionlookup159 subtable" u100B.med u103C
Ligature2: "sub_ligature_cligmymr_0 subtable" u1039 u100B
MultipleSubs2: "MultipleSubstitutionlookup138 subtable" u1039 u100B.med
Comment: "GDL_order: 2+AAoA-mark: 80+AAoA" 
EndChar

StartChar: u100B_u100B
Encoding: 136 -1 134
Width: 568
VWidth: 0
GlyphClass: 2
Flags: HW
AnchorPoint: "R" 0 0 mark 0
AnchorPoint: "BS" 657 -53 basechar 0
AnchorPoint: "L" 657 -53 basechar 0
AnchorPoint: "U" 292 495 basechar 0
AnchorPoint: "BD" 657 -53 basechar 0
LayerCount: 2
Fore
SplineSet
513 121 m 0
 475 31 381 -15 292 -15 c 0
 162 -15 55 91 55 222 c 0
 55 351 162 459 292 459 c 0
 381 459 475 412 513 322 c 0
 469 297 l 0
 432 367 363 408 292 408 c 0
 190 408 106 324 106 222 c 0
 106 120 190 36 292 36 c 0
 363 36 432 76 469 147 c 0
 513 121 l 0
595 -450 m 0
 462 -450 l 0
 462 -117 l 0
 408 -143 351 -158 292 -158 c 0
 219 -158 147 -138 85 -98 c 0
 85 -41 l 0
 148 -80 213 -107 292 -107 c 0
 370 -107 442 -74 513 -30 c 0
 513 -399 l 0
 595 -399 l 0
 595 -450 l 0
397 -450 m 0
 307 -450 l 0
 307 -378 l 0
 297 -380 276 -381 262 -381 c 0
 243 -381 151 -371 151 -293 c 0
 151 -226 222 -204 272 -204 c 0
 301 -204 337 -206 367 -227 c 0
 346 -260 l 0
 319 -245 298 -243 272 -243 c 0
 240 -243 190 -253 190 -293 c 0
 190 -334 244 -342 262 -342 c 0
 301 -342 318 -338 346 -329 c 0
 346 -411 l 0
 397 -411 l 0
 397 -450 l 0
EndSplineSet
Ligature2: "LigatureSubstitutionlookup169 subtable" u100B_u100B u103C
Ligature2: "LigatureSubstitutionlookup167 subtable" u100B_u100B u103C u1031
Ligature2: "LigatureSubstitutionlookup167 subtable" u100B_u100B u103C.wide u1031
Ligature2: "LigatureSubstitutionlookup167 subtable" u100B_u100B u103C_u103D.narr u1031
Ligature2: "LigatureSubstitutionlookup167 subtable" u100B_u100B u103C_u103D.wide u1031
Ligature2: "LigatureSubstitutionlookup165 subtable" u100B_u100B u103C
Ligature2: "LigatureSubstitutionlookup165 subtable" u100B_u100B u103C_u103D.narr
Ligature2: "LigatureSubstitutionlookup165 subtable" u100B_u100B u103C_u102F.narr
Ligature2: "LigatureSubstitutionlookup163 subtable" u100B_u100B u1031
Ligature2: "LigatureSubstitutionlookup163 subtable" u100B_u100B u1084
Ligature2: "LigatureSubstitutionlookup162 subtable" u100B_u100B u103D
Ligature2: "LigatureSubstitutionlookup162 subtable" u100B_u100B u103E
Ligature2: "LigatureSubstitutionlookup162 subtable" u100B_u100B u103D_u103E
Ligature2: "LigatureSubstitutionlookup162 subtable" u100B_u100B
Ligature2: "LigatureSubstitutionlookup162 subtable" u100B_u100B u105F
Ligature2: "LigatureSubstitutionlookup162 subtable" u100B_u100B u1060
Ligature2: "LigatureSubstitutionlookup162 subtable" u100B_u100B u1082
Ligature2: "LigatureSubstitutionlookup158 subtable" u100B_u100B u1039
Ligature2: "LigatureSubstitutionlookup130 subtable" u1004.kinzi u200D u100B_u100B
Ligature2: "LigatureSubstitutionlookup130 subtable" u101B.kinzi u200D u100B_u100B
Ligature2: "LigatureSubstitutionlookup127 subtable" u1004.kinzi u200D u100B_u100B
Ligature2: "LigatureSubstitutionlookup127 subtable" u101B.kinzi u200D u100B_u100B
Ligature2: "LigatureSubstitutionlookup124 subtable" u1004.kinzi u200D u100B_u100B
Ligature2: "LigatureSubstitutionlookup124 subtable" u101B.kinzi u200D u100B_u100B
Ligature2: "sub_ligature_cligmymr_4 subtable" u100B u100B.med
MultipleSubs2: "MultipleSubstitutionlookup139 subtable" u200C u1031 u100B_u100B
MultipleSubs2: "MultipleSubstitutionlookup137 subtable" u200C u1084 u100B_u100B
MultipleSubs2: "MultipleSubstitutionlookup129 subtable" u100B_u100B u101B.kinzi
MultipleSubs2: "MultipleSubstitutionlookup128 subtable" u100B_u100B u1004.kinzi
Comment: "GDL_order: 1+AAoA-mark: 80+AAoA" 
EndChar

StartChar: u100B_u100C
Encoding: 137 -1 135
Width: 556
VWidth: 0
GlyphClass: 2
Flags: W
HStem: -450 51<114.754 388.189> -296 51<115.08 208.79> -158 51<172.176 409.751> -15 51<206.554 380.298> 408 51<206.554 378.804>
VStem: 55 51<-390.306 -305.358 136.348 307.24> 447 51<-341.906 -123>
AnchorPoint: "R" 0 0 mark 0
AnchorPoint: "BS" 642 -53 basechar 0
AnchorPoint: "L" 642 -53 basechar 0
AnchorPoint: "U" 292 495 basechar 0
AnchorPoint: "BD" 642 -53 basechar 0
LayerCount: 2
Fore
SplineSet
498 -42 m 0
 498 -275 l 0
 498 -327 470 -372 447 -395 c 0
 420 -423 375 -450 322 -450 c 0
 156 -450 l 0
 90 -450 55 -399 55 -347 c 0
 55 -297 94 -245 166 -245 c 0
 193 -245 214 -252 229 -267 c 0
 195 -306 l 0
 184 -299 175 -296 166 -296 c 0
 126 -296 106 -318 106 -347 c 0
 106 -371 121 -399 156 -399 c 0
 292 -399 l 0
 358 -399 372 -392 406 -362 c 0
 435 -338 447 -302 447 -264 c 0
 447 -123 l 0
 399 -146 351 -158 292 -158 c 0
 219 -158 147 -138 85 -98 c 0
 85 -41 l 0
 148 -80 213 -107 292 -107 c 0
 370 -107 424 -83 498 -42 c 0
513 121 m 0
 475 31 381 -15 292 -15 c 0
 162 -15 55 91 55 222 c 0
 55 351 162 459 292 459 c 0
 381 459 475 412 513 322 c 0
 469 297 l 0
 432 367 363 408 292 408 c 0
 190 408 106 324 106 222 c 0
 106 120 190 36 292 36 c 0
 363 36 432 76 469 147 c 0
 513 121 l 0
EndSplineSet
Ligature2: "LigatureSubstitutionlookup169 subtable" u100B_u100C u103C
Ligature2: "LigatureSubstitutionlookup167 subtable" u100B_u100C u103C u1031
Ligature2: "LigatureSubstitutionlookup167 subtable" u100B_u100C u103C.wide u1031
Ligature2: "LigatureSubstitutionlookup167 subtable" u100B_u100C u103C_u103D.narr u1031
Ligature2: "LigatureSubstitutionlookup167 subtable" u100B_u100C u103C_u103D.wide u1031
Ligature2: "LigatureSubstitutionlookup165 subtable" u100B_u100C u103C
Ligature2: "LigatureSubstitutionlookup165 subtable" u100B_u100C u103C_u103D.narr
Ligature2: "LigatureSubstitutionlookup165 subtable" u100B_u100C u103C_u102F.narr
Ligature2: "LigatureSubstitutionlookup163 subtable" u100B_u100C u1031
Ligature2: "LigatureSubstitutionlookup163 subtable" u100B_u100C u1084
Ligature2: "LigatureSubstitutionlookup162 subtable" u100B_u100C u103D
Ligature2: "LigatureSubstitutionlookup162 subtable" u100B_u100C u103E
Ligature2: "LigatureSubstitutionlookup162 subtable" u100B_u100C u103D_u103E
Ligature2: "LigatureSubstitutionlookup162 subtable" u100B_u100C
Ligature2: "LigatureSubstitutionlookup162 subtable" u100B_u100C u105F
Ligature2: "LigatureSubstitutionlookup162 subtable" u100B_u100C u1060
Ligature2: "LigatureSubstitutionlookup162 subtable" u100B_u100C u1082
Ligature2: "LigatureSubstitutionlookup158 subtable" u100B_u100C u1039
Ligature2: "LigatureSubstitutionlookup130 subtable" u1004.kinzi u200D u100B_u100C
Ligature2: "LigatureSubstitutionlookup130 subtable" u101B.kinzi u200D u100B_u100C
Ligature2: "LigatureSubstitutionlookup127 subtable" u1004.kinzi u200D u100B_u100C
Ligature2: "LigatureSubstitutionlookup127 subtable" u101B.kinzi u200D u100B_u100C
Ligature2: "LigatureSubstitutionlookup124 subtable" u1004.kinzi u200D u100B_u100C
Ligature2: "LigatureSubstitutionlookup124 subtable" u101B.kinzi u200D u100B_u100C
Ligature2: "sub_ligature_cligmymr_4 subtable" u100B u100C.med
MultipleSubs2: "MultipleSubstitutionlookup139 subtable" u200C u1031 u100B_u100C
MultipleSubs2: "MultipleSubstitutionlookup137 subtable" u200C u1084 u100B_u100C
MultipleSubs2: "MultipleSubstitutionlookup129 subtable" u100B_u100C u101B.kinzi
MultipleSubs2: "MultipleSubstitutionlookup128 subtable" u100B_u100C u1004.kinzi
Comment: "GDL_order: 1+AAoA-mark: 80+AAoA" 
EndChar

StartChar: u100C
Encoding: 138 4108 136
Width: 568
VWidth: 0
GlyphClass: 2
Flags: HW
AnchorPoint: "R" 0 0 mark 0
AnchorPoint: "BS" 657 -53 basechar 0
AnchorPoint: "L" 657 -53 basechar 0
AnchorPoint: "U" 292 495 basechar 0
AnchorPoint: "BD" 657 -53 basechar 0
LayerCount: 2
Fore
SplineSet
513 121 m 0
 513 -275 l 0
 513 -327 488 -369 462 -395 c 0
 432 -425 390 -450 337 -450 c 0
 171 -450 l 0
 106 -450 70 -399 70 -347 c 0
 70 -297 111 -245 181 -245 c 0
 208 -245 229 -252 244 -267 c 0
 210 -306 l 0
 199 -299 190 -296 181 -296 c 0
 141 -296 121 -318 121 -347 c 0
 121 -371 141 -399 171 -399 c 0
 307 -399 l 0
 369 -399 389 -394 423 -362 c 0
 448 -339 462 -300 462 -264 c 0
 462 49 l 0
 415 7 351 -15 292 -15 c 0
 162 -15 55 91 55 222 c 0
 55 351 162 459 292 459 c 0
 381 459 475 412 513 322 c 0
 469 297 l 0
 432 367 363 408 292 408 c 0
 190 408 106 324 106 222 c 0
 106 120 190 36 292 36 c 0
 363 36 432 76 469 147 c 0
 513 121 l 0
EndSplineSet
Ligature2: "LigatureSubstitutionlookup169 subtable" u100C u103C
Ligature2: "LigatureSubstitutionlookup167 subtable" u100C u103C u1031
Ligature2: "LigatureSubstitutionlookup167 subtable" u100C u103C.wide u1031
Ligature2: "LigatureSubstitutionlookup167 subtable" u100C u103C_u103D.narr u1031
Ligature2: "LigatureSubstitutionlookup167 subtable" u100C u103C_u103D.wide u1031
Ligature2: "LigatureSubstitutionlookup165 subtable" u100C u103C
Ligature2: "LigatureSubstitutionlookup165 subtable" u100C u103C_u103D.narr
Ligature2: "LigatureSubstitutionlookup165 subtable" u100C u103C_u102F.narr
Ligature2: "LigatureSubstitutionlookup163 subtable" u100C u1031
Ligature2: "LigatureSubstitutionlookup163 subtable" u100C u1084
Ligature2: "LigatureSubstitutionlookup162 subtable" u100C u103D
Ligature2: "LigatureSubstitutionlookup162 subtable" u100C u103E
Ligature2: "LigatureSubstitutionlookup162 subtable" u100C u103D_u103E
Ligature2: "LigatureSubstitutionlookup162 subtable" u100C
Ligature2: "LigatureSubstitutionlookup162 subtable" u100C u105F
Ligature2: "LigatureSubstitutionlookup162 subtable" u100C u1060
Ligature2: "LigatureSubstitutionlookup162 subtable" u100C u1082
Ligature2: "LigatureSubstitutionlookup158 subtable" u100C u1039
Ligature2: "LigatureSubstitutionlookup130 subtable" u1004.kinzi u200D u100C
Ligature2: "LigatureSubstitutionlookup130 subtable" u101B.kinzi u200D u100C
Ligature2: "LigatureSubstitutionlookup127 subtable" u1004.kinzi u200D u100C
Ligature2: "LigatureSubstitutionlookup127 subtable" u101B.kinzi u200D u100C
Ligature2: "LigatureSubstitutionlookup124 subtable" u1004.kinzi u200D u100C
Ligature2: "LigatureSubstitutionlookup124 subtable" u101B.kinzi u200D u100C
MultipleSubs2: "MultipleSubstitutionlookup139 subtable" u200C u1031 u100C
MultipleSubs2: "MultipleSubstitutionlookup137 subtable" u200C u1084 u100C
MultipleSubs2: "MultipleSubstitutionlookup129 subtable" u100C u101B.kinzi
MultipleSubs2: "MultipleSubstitutionlookup128 subtable" u100C u1004.kinzi
Comment: "GDL_order: 1+AAoA-mark: 80+AAoA" 
EndChar

StartChar: u100C.med
Encoding: 139 -1 137
Width: 0
VWidth: 0
GlyphClass: 4
Flags: W
HStem: -450 39<-674.242 -370> -149 39<-710.146 -643.201> -138 39<-308.896 -166.689>
VStem: -756 39<-367.503 -156.546> -636 39<-230.452 -156.316> -420 39<-351.91 -209.66> -94 39<-352.516 -209.66>
AnchorPoint: "LLM" -900 -53 basemark 0
AnchorPoint: "BD" -405 -53 mark 0
AnchorPoint: "BSM" 89 -53 basemark 0
AnchorPoint: "LM" 89 -53 basemark 0
AnchorPoint: "BSM" 900 -53 mark 0
AnchorPoint: "BDM" -405 -53 mark 0
AnchorPoint: "BDM" 406 -53 basemark 0
LayerCount: 2
Fore
SplineSet
-55 -281 m 0xbe
 -55 -347 -93 -422 -160 -450 c 0
 -180 -417 l 0
 -126 -389 -94 -335 -94 -281 c 0
 -94 -201 -160 -138 -238 -138 c 0xbe
 -316 -138 -381 -201 -381 -281 c 0
 -381 -335 -349 -389 -295 -417 c 0
 -315 -450 l 0
 -621 -450 l 0
 -661 -450 -696 -431 -714 -413 c 0
 -734 -393 -756 -361 -756 -315 c 0
 -756 -188 l 0
 -756 -138 -718 -110 -676 -110 c 0
 -636 -110 -597 -141 -597 -195 c 0
 -597 -216 -603 -233 -615 -245 c 0
 -645 -218 l 0
 -637 -210 -636 -201 -636 -195 c 0
 -636 -165 -657 -149 -676 -149 c 0xde
 -694 -149 -717 -165 -717 -188 c 0
 -717 -293 l 0
 -717 -344 -711 -354 -687 -381 c 0
 -669 -401 -640 -411 -612 -411 c 0
 -370 -411 l 0
 -405 -375 -420 -327 -420 -281 c 0
 -420 -180 -339 -99 -238 -99 c 0
 -136 -99 -55 -180 -55 -281 c 0xbe
EndSplineSet
Ligature2: "LigatureSubstitutionlookup179 subtable" u100C.med u102D
Ligature2: "LigatureSubstitutionlookup179 subtable" u100C.med u102E
Ligature2: "LigatureSubstitutionlookup179 subtable" u100C.med u1032
Ligature2: "LigatureSubstitutionlookup179 subtable" u100C.med u103A
Ligature2: "LigatureSubstitutionlookup171 subtable" u100C.med u103C u1031
Ligature2: "LigatureSubstitutionlookup159 subtable" u100C.med u1031
Ligature2: "LigatureSubstitutionlookup159 subtable" u100C.med u103C
Ligature2: "sub_ligature_cligmymr_0 subtable" u1039 u100C
MultipleSubs2: "MultipleSubstitutionlookup138 subtable" u1039 u100C.med
Comment: "GDL_order: 2+AAoA-mark: 80+AAoA" 
EndChar

StartChar: u100D
Encoding: 140 4109 138
Width: 568
VWidth: 0
GlyphClass: 2
Flags: HW
AnchorPoint: "R" 0 0 mark 0
AnchorPoint: "BS" 168 -173 basechar 0
AnchorPoint: "LL" 280 -51 basechar 0
AnchorPoint: "L" 612 -53 basechar 0
AnchorPoint: "BD" 30 -173 basechar 0
AnchorPoint: "U" 276 495 basechar 0
LayerCount: 2
Fore
SplineSet
547 -450 m 0
 417 -450 l 0
 417 -131 l 0
 370 -149 328 -158 276 -158 c 0
 196 -158 123 -132 55 -89 c 0
 55 121 l 0
 100 147 l 0
 136 76 205 36 276 36 c 0
 378 36 462 120 462 222 c 0
 462 324 378 408 276 408 c 0
 205 408 136 367 100 297 c 0
 55 322 l 0
 93 412 187 459 276 459 c 0
 406 459 513 351 513 222 c 0
 513 91 406 -15 276 -15 c 0
 216 -15 153 7 106 49 c 0
 106 -60 l 0
 160 -89 216 -107 276 -107 c 0
 352 -107 415 -80 468 -51 c 0
 468 -399 l 0
 547 -399 l 0
 547 -450 l 0
EndSplineSet
Ligature2: "LigatureSubstitutionlookup169 subtable" u100D u103C
Ligature2: "LigatureSubstitutionlookup167 subtable" u100D u103C u1031
Ligature2: "LigatureSubstitutionlookup167 subtable" u100D u103C.wide u1031
Ligature2: "LigatureSubstitutionlookup167 subtable" u100D u103C_u103D.narr u1031
Ligature2: "LigatureSubstitutionlookup167 subtable" u100D u103C_u103D.wide u1031
Ligature2: "LigatureSubstitutionlookup165 subtable" u100D u103C
Ligature2: "LigatureSubstitutionlookup165 subtable" u100D u103C_u103D.narr
Ligature2: "LigatureSubstitutionlookup165 subtable" u100D u103C_u102F.narr
Ligature2: "LigatureSubstitutionlookup163 subtable" u100D u1031
Ligature2: "LigatureSubstitutionlookup163 subtable" u100D u1084
Ligature2: "LigatureSubstitutionlookup162 subtable" u100D u103D
Ligature2: "LigatureSubstitutionlookup162 subtable" u100D u103E
Ligature2: "LigatureSubstitutionlookup162 subtable" u100D u103D_u103E
Ligature2: "LigatureSubstitutionlookup162 subtable" u100D
Ligature2: "LigatureSubstitutionlookup162 subtable" u100D u105F
Ligature2: "LigatureSubstitutionlookup162 subtable" u100D u1060
Ligature2: "LigatureSubstitutionlookup162 subtable" u100D u1082
Ligature2: "LigatureSubstitutionlookup158 subtable" u100D u1039
Ligature2: "LigatureSubstitutionlookup130 subtable" u1004.kinzi u200D u100D
Ligature2: "LigatureSubstitutionlookup130 subtable" u101B.kinzi u200D u100D
Ligature2: "LigatureSubstitutionlookup127 subtable" u1004.kinzi u200D u100D
Ligature2: "LigatureSubstitutionlookup127 subtable" u101B.kinzi u200D u100D
Ligature2: "LigatureSubstitutionlookup124 subtable" u1004.kinzi u200D u100D
Ligature2: "LigatureSubstitutionlookup124 subtable" u101B.kinzi u200D u100D
MultipleSubs2: "MultipleSubstitutionlookup139 subtable" u200C u1031 u100D
MultipleSubs2: "MultipleSubstitutionlookup137 subtable" u200C u1084 u100D
MultipleSubs2: "MultipleSubstitutionlookup129 subtable" u100D u101B.kinzi
MultipleSubs2: "MultipleSubstitutionlookup128 subtable" u100D u1004.kinzi
Comment: "GDL_order: 1+AAoA-mark: 80+AAoA" 
EndChar

StartChar: u100D.med
Encoding: 141 -1 139
Width: 0
VWidth: 0
GlyphClass: 4
Flags: HW
AnchorPoint: "BS" -204 -53 mark 0
AnchorPoint: "LLM" -465 -53 basemark 0
AnchorPoint: "BSM" -204 -53 mark 0
AnchorPoint: "LM" 50 -53 basemark 0
AnchorPoint: "BSM" 172 -53 basemark 0
LayerCount: 2
Fore
SplineSet
-55 -440 m 0
 -130 -440 l 0
 -130 -383 l 0
 -149 -391 -164 -395 -203 -395 c 0
 -227 -395 -284 -388 -307 -380 c 0
 -307 -280 l 0
 -272 -292 -238 -293 -203 -293 c 0
 -173 -293 -126 -277 -126 -251 c 0
 -126 -226 -169 -209 -203 -209 c 0
 -255 -209 -277 -212 -307 -223 c 0
 -320 -196 l 0
 -290 -184 -255 -178 -203 -178 c 0
 -161 -178 -94 -197 -94 -251 c 0
 -94 -306 -166 -325 -203 -325 c 0
 -231 -325 -261 -322 -278 -317 c 0
 -278 -355 l 0
 -262 -359 -231 -364 -203 -364 c 0
 -155 -364 -126 -352 -100 -337 c 0
 -100 -410 l 0
 -55 -410 l 0
 -55 -440 l 0
EndSplineSet
Ligature2: "LigatureSubstitutionlookup179 subtable" u100D.med u102D
Ligature2: "LigatureSubstitutionlookup179 subtable" u100D.med u102E
Ligature2: "LigatureSubstitutionlookup179 subtable" u100D.med u1032
Ligature2: "LigatureSubstitutionlookup179 subtable" u100D.med u103A
Ligature2: "LigatureSubstitutionlookup171 subtable" u100D.med u103C u1031
Ligature2: "LigatureSubstitutionlookup159 subtable" u100D.med u1031
Ligature2: "LigatureSubstitutionlookup159 subtable" u100D.med u103C
Ligature2: "sub_ligature_cligmymr_0 subtable" u1039 u100D
MultipleSubs2: "MultipleSubstitutionlookup138 subtable" u1039 u100D.med
Comment: "GDL_order: 2+AAoA-mark: 80+AAoA" 
EndChar

StartChar: u100D_u100D
Encoding: 142 -1 140
Width: 568
VWidth: 0
GlyphClass: 2
Flags: HW
AnchorPoint: "R" 0 0 mark 0
AnchorPoint: "BS" 627 -53 basechar 0
AnchorPoint: "L" 627 -53 basechar 0
AnchorPoint: "U" 276 495 basechar 0
AnchorPoint: "BD" 627 -53 basechar 0
LayerCount: 2
Fore
SplineSet
565 -450 m 0
 432 -450 l 0
 432 -125 l 0
 382 -147 328 -158 276 -158 c 0
 196 -158 123 -132 55 -89 c 0
 55 121 l 0
 100 147 l 0
 136 76 205 36 276 36 c 0
 378 36 462 120 462 222 c 0
 462 324 378 408 276 408 c 0
 205 408 136 367 100 297 c 0
 55 322 l 0
 93 412 187 459 276 459 c 0
 406 459 513 351 513 222 c 0
 513 91 406 -15 276 -15 c 0
 216 -15 153 7 106 49 c 0
 106 -60 l 0
 160 -89 216 -107 276 -107 c 0
 352 -107 420 -81 483 -41 c 0
 483 -399 l 0
 565 -399 l 0
 565 -450 l 0
382 -450 m 0
 307 -450 l 0
 307 -393 l 0
 288 -401 273 -405 234 -405 c 0
 210 -405 153 -398 130 -390 c 0
 130 -290 l 0
 165 -302 199 -303 234 -303 c 0
 264 -303 311 -287 311 -261 c 0
 311 -236 268 -219 234 -219 c 0
 182 -219 160 -222 130 -233 c 0
 117 -206 l 0
 147 -194 182 -188 234 -188 c 0
 276 -188 343 -207 343 -261 c 0
 343 -316 271 -335 234 -335 c 0
 206 -335 176 -332 159 -327 c 0
 159 -365 l 0
 175 -369 206 -374 234 -374 c 0
 282 -374 311 -362 337 -347 c 0
 337 -420 l 0
 382 -420 l 0
 382 -450 l 0
EndSplineSet
Ligature2: "LigatureSubstitutionlookup169 subtable" u100D_u100D u103C
Ligature2: "LigatureSubstitutionlookup167 subtable" u100D_u100D u103C u1031
Ligature2: "LigatureSubstitutionlookup167 subtable" u100D_u100D u103C.wide u1031
Ligature2: "LigatureSubstitutionlookup167 subtable" u100D_u100D u103C_u103D.narr u1031
Ligature2: "LigatureSubstitutionlookup167 subtable" u100D_u100D u103C_u103D.wide u1031
Ligature2: "LigatureSubstitutionlookup165 subtable" u100D_u100D u103C
Ligature2: "LigatureSubstitutionlookup165 subtable" u100D_u100D u103C_u103D.narr
Ligature2: "LigatureSubstitutionlookup165 subtable" u100D_u100D u103C_u102F.narr
Ligature2: "LigatureSubstitutionlookup163 subtable" u100D_u100D u1031
Ligature2: "LigatureSubstitutionlookup163 subtable" u100D_u100D u1084
Ligature2: "LigatureSubstitutionlookup162 subtable" u100D_u100D u103D
Ligature2: "LigatureSubstitutionlookup162 subtable" u100D_u100D u103E
Ligature2: "LigatureSubstitutionlookup162 subtable" u100D_u100D u103D_u103E
Ligature2: "LigatureSubstitutionlookup162 subtable" u100D_u100D
Ligature2: "LigatureSubstitutionlookup162 subtable" u100D_u100D u105F
Ligature2: "LigatureSubstitutionlookup162 subtable" u100D_u100D u1060
Ligature2: "LigatureSubstitutionlookup162 subtable" u100D_u100D u1082
Ligature2: "LigatureSubstitutionlookup158 subtable" u100D_u100D u1039
Ligature2: "LigatureSubstitutionlookup130 subtable" u1004.kinzi u200D u100D_u100D
Ligature2: "LigatureSubstitutionlookup130 subtable" u101B.kinzi u200D u100D_u100D
Ligature2: "LigatureSubstitutionlookup127 subtable" u1004.kinzi u200D u100D_u100D
Ligature2: "LigatureSubstitutionlookup127 subtable" u101B.kinzi u200D u100D_u100D
Ligature2: "LigatureSubstitutionlookup124 subtable" u1004.kinzi u200D u100D_u100D
Ligature2: "LigatureSubstitutionlookup124 subtable" u101B.kinzi u200D u100D_u100D
Ligature2: "sub_ligature_cligmymr_4 subtable" u100D u100D.med
MultipleSubs2: "MultipleSubstitutionlookup139 subtable" u200C u1031 u100D_u100D
MultipleSubs2: "MultipleSubstitutionlookup137 subtable" u200C u1084 u100D_u100D
MultipleSubs2: "MultipleSubstitutionlookup129 subtable" u100D_u100D u101B.kinzi
MultipleSubs2: "MultipleSubstitutionlookup128 subtable" u100D_u100D u1004.kinzi
Comment: "GDL_order: 1+AAoA-mark: 80+AAoA" 
EndChar

StartChar: u100D_u100E
Encoding: 143 -1 141
Width: 577
VWidth: 0
GlyphClass: 2
Flags: HW
AnchorPoint: "R" 0 0 mark 0
AnchorPoint: "BS" 528 -53 basechar 0
AnchorPoint: "LL" 115 -53 basechar 0
AnchorPoint: "L" 468 -53 basechar 0
AnchorPoint: "U" 285 495 basechar 0
AnchorPoint: "BD" 528 -53 basechar 0
LayerCount: 2
Fore
SplineSet
522 240 m 0
 522 96 430 -2 310 -14 c 0
 310 -399 l 0
 393 -399 l 0
 393 -450 l 0
 259 -450 l 0
 259 -14 l 0
 133 -2 55 94 55 168 c 0
 55 286 178 316 178 361 c 0
 178 384 172 405 142 405 c 0
 118 405 100 379 99 375 c 0
 55 402 l 0
 58 423 97 456 142 456 c 0
 201 456 229 414 229 361 c 0
 229 277 106 262 106 168 c 0
 106 132 147 49 259 37 c 0
 258 84 248 106 232 112 c 0
 232 156 l 0
 244 151 261 148 274 148 c 0
 309 148 339 163 339 190 c 0
 339 217 307 232 271 232 c 0
 258 232 244 231 232 226 c 0
 232 267 l 0
 244 274 259 277 276 277 c 0
 327 277 384 250 384 190 c 0
 384 124 318 108 298 108 c 0
 305 95 309 72 310 37 c 0
 400 49 471 127 471 240 c 0
 471 316 441 372 394 414 c 0
 424 457 l 0
 483 411 522 349 522 240 c 0
EndSplineSet
Ligature2: "LigatureSubstitutionlookup169 subtable" u100D_u100E u103C
Ligature2: "LigatureSubstitutionlookup167 subtable" u100D_u100E u103C u1031
Ligature2: "LigatureSubstitutionlookup167 subtable" u100D_u100E u103C.wide u1031
Ligature2: "LigatureSubstitutionlookup167 subtable" u100D_u100E u103C_u103D.narr u1031
Ligature2: "LigatureSubstitutionlookup167 subtable" u100D_u100E u103C_u103D.wide u1031
Ligature2: "LigatureSubstitutionlookup165 subtable" u100D_u100E u103C
Ligature2: "LigatureSubstitutionlookup165 subtable" u100D_u100E u103C_u103D.narr
Ligature2: "LigatureSubstitutionlookup165 subtable" u100D_u100E u103C_u102F.narr
Ligature2: "LigatureSubstitutionlookup163 subtable" u100D_u100E u1031
Ligature2: "LigatureSubstitutionlookup163 subtable" u100D_u100E u1084
Ligature2: "LigatureSubstitutionlookup162 subtable" u100D_u100E u103D
Ligature2: "LigatureSubstitutionlookup162 subtable" u100D_u100E u103E
Ligature2: "LigatureSubstitutionlookup162 subtable" u100D_u100E u103D_u103E
Ligature2: "LigatureSubstitutionlookup162 subtable" u100D_u100E
Ligature2: "LigatureSubstitutionlookup162 subtable" u100D_u100E u105F
Ligature2: "LigatureSubstitutionlookup162 subtable" u100D_u100E u1060
Ligature2: "LigatureSubstitutionlookup162 subtable" u100D_u100E u1082
Ligature2: "LigatureSubstitutionlookup158 subtable" u100D_u100E u1039
Ligature2: "LigatureSubstitutionlookup130 subtable" u1004.kinzi u200D u100D_u100E
Ligature2: "LigatureSubstitutionlookup130 subtable" u101B.kinzi u200D u100D_u100E
Ligature2: "LigatureSubstitutionlookup127 subtable" u1004.kinzi u200D u100D_u100E
Ligature2: "LigatureSubstitutionlookup127 subtable" u101B.kinzi u200D u100D_u100E
Ligature2: "LigatureSubstitutionlookup124 subtable" u1004.kinzi u200D u100D_u100E
Ligature2: "LigatureSubstitutionlookup124 subtable" u101B.kinzi u200D u100D_u100E
Ligature2: "sub_ligature_cligmymr_4 subtable" u100D u100E.med
MultipleSubs2: "MultipleSubstitutionlookup139 subtable" u200C u1031 u100D_u100E
MultipleSubs2: "MultipleSubstitutionlookup137 subtable" u200C u1084 u100D_u100E
MultipleSubs2: "MultipleSubstitutionlookup129 subtable" u100D_u100E u101B.kinzi
MultipleSubs2: "MultipleSubstitutionlookup128 subtable" u100D_u100E u1004.kinzi
Comment: "GDL_order: 1+AAoA-mark: 80+AAoA" 
EndChar

StartChar: u100E
Encoding: 144 4110 142
Width: 577
VWidth: 0
GlyphClass: 2
Flags: HW
AnchorPoint: "R" 0 0 mark 0
AnchorPoint: "BS" 285 -53 basechar 0
AnchorPoint: "L" 285 -53 basechar 0
AnchorPoint: "U" 285 495 basechar 0
AnchorPoint: "BD" 285 -53 basechar 0
LayerCount: 2
Fore
SplineSet
522 240 m 0
 522 87 417 -15 285 -15 c 0
 144 -15 55 88 55 168 c 0
 55 294 195 285 195 339 c 0
 195 388 166 405 142 405 c 0
 118 405 100 382 99 375 c 0
 55 402 l 0
 57 418 97 456 142 456 c 0
 196 456 246 415 246 339 c 0
 246 243 106 255 106 168 c 0
 106 144 156 36 285 36 c 0
 387 36 471 120 471 240 c 0
 471 316 441 372 394 414 c 0
 424 457 l 0
 483 411 522 349 522 240 c 0
EndSplineSet
Position2: "SinglePositioninglookup48 per glyph data 0" dx=100 dy=0 dh=50 dv=0
Position2: "SinglePositioninglookup30 subtable" dx=140 dy=0 dh=140 dv=0
PairPos2: "PairwisePositioningkerninglooku subtable" uAA60.med.kham dx=-90 dy=0 dh=0 dv=0 dx=0 dy=0 dh=90 dv=0
PairPos2: "PairwisePositioningkerninglooku subtable" uAA60.med dx=-90 dy=0 dh=0 dv=0 dx=0 dy=0 dh=90 dv=0
PairPos2: "PairwisePositioningkerninglooku subtable" u1021.med dx=-90 dy=0 dh=0 dv=0 dx=0 dy=0 dh=90 dv=0
PairPos2: "PairwisePositioningkerninglooku subtable" u101E.med dx=-90 dy=0 dh=0 dv=0 dx=0 dy=0 dh=90 dv=0
PairPos2: "PairwisePositioningkerninglooku subtable" u101C.med dx=-90 dy=0 dh=0 dv=0 dx=0 dy=0 dh=90 dv=0
PairPos2: "PairwisePositioningkerninglooku subtable" u101A.med dx=-90 dy=0 dh=0 dv=0 dx=0 dy=0 dh=90 dv=0
PairPos2: "PairwisePositioningkerninglooku subtable" u1018.med dx=-90 dy=0 dh=0 dv=0 dx=0 dy=0 dh=90 dv=0
PairPos2: "PairwisePositioningkerninglooku subtable" u1011.med dx=-90 dy=0 dh=0 dv=0 dx=0 dy=0 dh=90 dv=0
PairPos2: "PairwisePositioningkerninglooku subtable" u1010.med dx=-90 dy=0 dh=0 dv=0 dx=0 dy=0 dh=90 dv=0
PairPos2: "PairwisePositioningkerninglooku subtable" u100F.med dx=-90 dy=0 dh=0 dv=0 dx=0 dy=0 dh=90 dv=0
PairPos2: "PairwisePositioningkerninglooku subtable" u100C.med dx=-90 dy=0 dh=0 dv=0 dx=0 dy=0 dh=90 dv=0
PairPos2: "PairwisePositioningkerninglooku subtable" u100A.med dx=-90 dy=0 dh=0 dv=0 dx=0 dy=0 dh=90 dv=0
PairPos2: "PairwisePositioningkerninglooku subtable" u1006.med dx=-90 dy=0 dh=0 dv=0 dx=0 dy=0 dh=90 dv=0
PairPos2: "PairwisePositioningkerninglooku subtable" u1003.med dx=-90 dy=0 dh=0 dv=0 dx=0 dy=0 dh=90 dv=0
PairPos2: "PairwisePositioningkerninglooku subtable" u1000.med dx=-90 dy=0 dh=0 dv=0 dx=0 dy=0 dh=90 dv=0
Ligature2: "LigatureSubstitutionlookup169 subtable" u100E u103C
Ligature2: "LigatureSubstitutionlookup167 subtable" u100E u103C u1031
Ligature2: "LigatureSubstitutionlookup167 subtable" u100E u103C.wide u1031
Ligature2: "LigatureSubstitutionlookup167 subtable" u100E u103C_u103D.narr u1031
Ligature2: "LigatureSubstitutionlookup167 subtable" u100E u103C_u103D.wide u1031
Ligature2: "LigatureSubstitutionlookup165 subtable" u100E u103C
Ligature2: "LigatureSubstitutionlookup165 subtable" u100E u103C_u103D.narr
Ligature2: "LigatureSubstitutionlookup165 subtable" u100E u103C_u102F.narr
Ligature2: "LigatureSubstitutionlookup163 subtable" u100E u1031
Ligature2: "LigatureSubstitutionlookup163 subtable" u100E u1084
Ligature2: "LigatureSubstitutionlookup162 subtable" u100E u103D
Ligature2: "LigatureSubstitutionlookup162 subtable" u100E u103E
Ligature2: "LigatureSubstitutionlookup162 subtable" u100E u103D_u103E
Ligature2: "LigatureSubstitutionlookup162 subtable" u100E
Ligature2: "LigatureSubstitutionlookup162 subtable" u100E u105F
Ligature2: "LigatureSubstitutionlookup162 subtable" u100E u1060
Ligature2: "LigatureSubstitutionlookup162 subtable" u100E u1082
Ligature2: "LigatureSubstitutionlookup158 subtable" u100E u1039
Ligature2: "LigatureSubstitutionlookup130 subtable" u1004.kinzi u200D u100E
Ligature2: "LigatureSubstitutionlookup130 subtable" u101B.kinzi u200D u100E
Ligature2: "LigatureSubstitutionlookup127 subtable" u1004.kinzi u200D u100E
Ligature2: "LigatureSubstitutionlookup127 subtable" u101B.kinzi u200D u100E
Ligature2: "LigatureSubstitutionlookup124 subtable" u1004.kinzi u200D u100E
Ligature2: "LigatureSubstitutionlookup124 subtable" u101B.kinzi u200D u100E
MultipleSubs2: "MultipleSubstitutionlookup139 subtable" u200C u1031 u100E
MultipleSubs2: "MultipleSubstitutionlookup137 subtable" u200C u1084 u100E
MultipleSubs2: "MultipleSubstitutionlookup136 subtable" u200C u103C_u103D.narr u100E
MultipleSubs2: "MultipleSubstitutionlookup135 subtable" u200C u103C_u102F.narr u100E
MultipleSubs2: "MultipleSubstitutionlookup134 subtable" u200C u103C u100E
MultipleSubs2: "MultipleSubstitutionlookup129 subtable" u100E u101B.kinzi
MultipleSubs2: "MultipleSubstitutionlookup128 subtable" u100E u1004.kinzi
Comment: "GDL_order: 1+AAoA-mark: 80+AAoA" 
EndChar

StartChar: u100E.med
Encoding: 145 -1 143
Width: 0
VWidth: 0
GlyphClass: 4
Flags: HW
AnchorPoint: "BS" -238 -53 mark 0
AnchorPoint: "LLM" -559 -53 basemark 0
AnchorPoint: "BSM" 95 -53 basemark 0
AnchorPoint: "LM" 95 -53 basemark 0
AnchorPoint: "BSM" 232 -53 basemark 0
LayerCount: 2
Fore
SplineSet
-56 -254 m 0
 -56 -392 -158 -450 -238 -450 c 0
 -346 -450 -415 -369 -415 -309 c 0
 -415 -213 -307 -218 -307 -177 c 0
 -307 -137 -328 -126 -347 -126 c 0
 -367 -126 -379 -138 -382 -149 c 0
 -415 -129 l 0
 -412 -110 -379 -87 -347 -87 c 0
 -304 -87 -268 -118 -268 -177 c 0
 -268 -252 -376 -240 -376 -309 c 0
 -376 -329 -338 -410 -238 -410 c 0
 -144 -410 -96 -329 -96 -254 c 0
 -96 -188 -119 -153 -154 -119 c 0
 -130 -86 l 0
 -84 -128 -56 -170 -56 -254 c 0
EndSplineSet
Ligature2: "LigatureSubstitutionlookup179 subtable" u100E.med u102D
Ligature2: "LigatureSubstitutionlookup179 subtable" u100E.med u102E
Ligature2: "LigatureSubstitutionlookup179 subtable" u100E.med u1032
Ligature2: "LigatureSubstitutionlookup179 subtable" u100E.med u103A
Ligature2: "LigatureSubstitutionlookup171 subtable" u100E.med u103C u1031
Ligature2: "LigatureSubstitutionlookup159 subtable" u100E.med u1031
Ligature2: "LigatureSubstitutionlookup159 subtable" u100E.med u103C
Ligature2: "sub_ligature_cligmymr_0 subtable" u1039 u100E
MultipleSubs2: "MultipleSubstitutionlookup138 subtable" u1039 u100E.med
Comment: "GDL_order: 5+AAoA-mark: 80+AAoA" 
EndChar

StartChar: u100F
Encoding: 146 4111 144
Width: 1032
VWidth: 0
GlyphClass: 2
Flags: HW
AnchorPoint: "R" 0 0 mark 0
AnchorPoint: "BS" 759 -53 basechar 0
AnchorPoint: "L" 759 -53 basechar 0
AnchorPoint: "BD" 516 -53 basechar 0
AnchorPoint: "U" 759 495 basechar 0
LayerCount: 2
Fore
SplineSet
976 222 m 0
 976 91 901 -15 774 -15 c 0
 756 -15 733 -11 718 0 c 0
 739 45 l 0
 750 39 762 36 774 36 c 0
 874 36 925 120 925 222 c 0
 925 324 858 408 759 408 c 0
 658 408 609 324 609 222 c 0
 609 163 631 147 631 100 c 0
 631 37 588 -15 516 -15 c 0
 450 -15 400 37 400 100 c 0
 400 147 424 163 424 222 c 0
 424 324 373 408 273 408 c 0
 174 408 106 324 106 222 c 0
 106 120 157 36 258 36 c 0
 276 36 286 39 295 45 c 0
 313 0 l 0
 298 -11 276 -15 258 -15 c 0
 130 -15 55 91 55 222 c 0
 55 351 144 459 273 459 c 0
 319 459 360 444 391 420 c 0
 418 445 454 459 516 459 c 0
 576 459 613 445 640 420 c 0
 673 444 712 459 759 459 c 0
 886 459 976 351 976 222 c 0
603 381 m 0
 580 396 550 408 516 408 c 0
 483 408 451 396 429 381 c 0
 459 337 475 282 475 222 c 0
 475 190 451 123 451 100 c 0
 451 58 481 36 516 36 c 0
 540 36 580 58 580 100 c 0
 580 138 558 190 558 222 c 0
 558 282 573 337 603 381 c 0
EndSplineSet
Ligature2: "LigatureSubstitutionlookup169 subtable" u100F u103C
Ligature2: "LigatureSubstitutionlookup167 subtable" u100F u103C u1031
Ligature2: "LigatureSubstitutionlookup167 subtable" u100F u103C.wide u1031
Ligature2: "LigatureSubstitutionlookup167 subtable" u100F u103C_u103D.narr u1031
Ligature2: "LigatureSubstitutionlookup167 subtable" u100F u103C_u103D.wide u1031
Ligature2: "LigatureSubstitutionlookup165 subtable" u100F u103C
Ligature2: "LigatureSubstitutionlookup165 subtable" u100F u103C_u103D.narr
Ligature2: "LigatureSubstitutionlookup165 subtable" u100F u103C_u102F.narr
Ligature2: "LigatureSubstitutionlookup163 subtable" u100F u1031
Ligature2: "LigatureSubstitutionlookup163 subtable" u100F u1084
Ligature2: "LigatureSubstitutionlookup162 subtable" u100F u103D
Ligature2: "LigatureSubstitutionlookup162 subtable" u100F u103E
Ligature2: "LigatureSubstitutionlookup162 subtable" u100F u103D_u103E
Ligature2: "LigatureSubstitutionlookup162 subtable" u100F
Ligature2: "LigatureSubstitutionlookup162 subtable" u100F u105F
Ligature2: "LigatureSubstitutionlookup162 subtable" u100F u1060
Ligature2: "LigatureSubstitutionlookup162 subtable" u100F u1082
Ligature2: "LigatureSubstitutionlookup158 subtable" u100F u1039
Ligature2: "LigatureSubstitutionlookup130 subtable" u1004.kinzi u200D u100F
Ligature2: "LigatureSubstitutionlookup130 subtable" u101B.kinzi u200D u100F
Ligature2: "LigatureSubstitutionlookup127 subtable" u1004.kinzi u200D u100F
Ligature2: "LigatureSubstitutionlookup127 subtable" u101B.kinzi u200D u100F
Ligature2: "LigatureSubstitutionlookup124 subtable" u1004.kinzi u200D u100F
Ligature2: "LigatureSubstitutionlookup124 subtable" u101B.kinzi u200D u100F
MultipleSubs2: "MultipleSubstitutionlookup139 subtable" u200C u1031 u100F
MultipleSubs2: "MultipleSubstitutionlookup137 subtable" u200C u1084 u100F
MultipleSubs2: "MultipleSubstitutionlookup136 subtable" u200C u103C_u103D.wide u100F
MultipleSubs2: "MultipleSubstitutionlookup135 subtable" u200C u103C_u102F.wide u100F
MultipleSubs2: "MultipleSubstitutionlookup134 subtable" u200C u103C.wide u100F
MultipleSubs2: "MultipleSubstitutionlookup129 subtable" u100F u101B.kinzi
MultipleSubs2: "MultipleSubstitutionlookup128 subtable" u100F u1004.kinzi
Comment: "GDL_order: 1+AAoA-mark: 80+AAoA" 
EndChar

StartChar: u100F.med
Encoding: 147 -1 145
Width: 0
VWidth: 0
GlyphClass: 4
Flags: HW
AnchorPoint: "LLM" -908 -53 basemark 0
AnchorPoint: "BD" -410 -53 mark 0
AnchorPoint: "BSM" 88 -53 basemark 0
AnchorPoint: "LM" 88 -53 basemark 0
AnchorPoint: "BSM" -410 -53 mark 0
AnchorPoint: "BDM" -410 -53 mark 0
AnchorPoint: "BDM" 88 -53 basemark 0
LayerCount: 2
Fore
SplineSet
-56 -267 m 0
 -56 -369 -113 -450 -210 -450 c 0
 -234 -450 -248 -444 -255 -440 c 0
 -239 -404 l 0
 -231 -407 -222 -410 -210 -410 c 0
 -134 -410 -95 -345 -95 -267 c 0
 -95 -189 -144 -125 -222 -125 c 0
 -299 -125 -339 -189 -339 -267 c 0
 -339 -312 -321 -324 -321 -360 c 0
 -321 -408 -354 -450 -410 -450 c 0
 -459 -450 -498 -408 -498 -360 c 0
 -498 -324 -480 -312 -480 -267 c 0
 -480 -189 -519 -125 -597 -125 c 0
 -675 -125 -725 -189 -725 -267 c 0
 -725 -345 -684 -410 -608 -410 c 0
 -598 -410 -587 -407 -581 -404 c 0
 -564 -440 l 0
 -573 -446 -591 -450 -608 -450 c 0
 -705 -450 -764 -369 -764 -267 c 0
 -764 -165 -698 -84 -597 -84 c 0
 -561 -84 -531 -95 -506 -114 c 0
 -483 -95 -456 -84 -410 -84 c 0
 -366 -84 -333 -95 -314 -114 c 0
 -288 -95 -258 -84 -222 -84 c 0
 -122 -84 -56 -165 -56 -267 c 0
-342 -146 m 0
 -360 -134 -381 -125 -410 -125 c 0
 -438 -125 -459 -134 -477 -146 c 0
 -453 -179 -441 -219 -441 -267 c 0
 -441 -291 -459 -344 -459 -360 c 0
 -459 -395 -438 -410 -410 -410 c 0
 -390 -410 -360 -395 -360 -360 c 0
 -360 -330 -378 -293 -378 -267 c 0
 -378 -219 -366 -179 -342 -146 c 0
EndSplineSet
Ligature2: "LigatureSubstitutionlookup179 subtable" u100F.med u102D
Ligature2: "LigatureSubstitutionlookup179 subtable" u100F.med u102E
Ligature2: "LigatureSubstitutionlookup179 subtable" u100F.med u1032
Ligature2: "LigatureSubstitutionlookup179 subtable" u100F.med u103A
Ligature2: "LigatureSubstitutionlookup171 subtable" u100F.med u103C u1031
Ligature2: "LigatureSubstitutionlookup159 subtable" u100F.med u1031
Ligature2: "LigatureSubstitutionlookup159 subtable" u100F.med u103C
Ligature2: "sub_ligature_cligmymr_0 subtable" u1039 u100F
MultipleSubs2: "MultipleSubstitutionlookup138 subtable" u1039 u100F.med
Comment: "GDL_order: 2+AAoA-mark: 80+AAoA" 
EndChar

StartChar: u100F_u100B
Encoding: 148 -1 146
Width: 1032
VWidth: 0
GlyphClass: 2
Flags: HW
AnchorPoint: "R" 0 0 mark 0
AnchorPoint: "BS" 1027 -53 basechar 0
AnchorPoint: "LL" 372 -53 basechar 0
AnchorPoint: "L" 932 -53 basechar 0
AnchorPoint: "U" 759 495 basechar 0
AnchorPoint: "BD" 1027 -53 basechar 0
LayerCount: 2
Fore
SplineSet
879 -450 m 0
 774 -450 l 0
 774 -333 l 0
 744 -341 716 -345 681 -345 c 0
 598 -345 513 -315 513 -215 c 0
 513 -119 592 -87 681 -87 c 0
 724 -87 771 -97 819 -113 c 0
 811 -153 l 0
 771 -139 728 -128 681 -128 c 0
 615 -128 556 -150 556 -216 c 0
 556 -281 610 -305 681 -305 c 0
 727 -305 781 -294 813 -285 c 0
 813 -410 l 0
 879 -410 l 0
 879 -450 l 0
976 222 m 0
 976 91 901 -15 774 -15 c 0
 756 -15 733 -11 718 0 c 0
 739 45 l 0
 750 39 762 36 774 36 c 0
 874 36 925 120 925 222 c 0
 925 324 858 408 759 408 c 0
 658 408 609 324 609 222 c 0
 609 163 631 147 631 100 c 0
 631 37 588 -15 516 -15 c 0
 450 -15 400 37 400 100 c 0
 400 147 424 163 424 222 c 0
 424 324 373 408 273 408 c 0
 174 408 106 324 106 222 c 0
 106 120 157 36 258 36 c 0
 276 36 286 39 295 45 c 0
 313 0 l 0
 298 -11 276 -15 258 -15 c 0
 130 -15 55 91 55 222 c 0
 55 351 144 459 273 459 c 0
 319 459 360 444 391 420 c 0
 418 445 454 459 516 459 c 0
 576 459 613 445 640 420 c 0
 673 444 712 459 759 459 c 0
 886 459 976 351 976 222 c 0
603 381 m 0
 580 396 550 408 516 408 c 0
 483 408 451 396 429 381 c 0
 459 337 475 282 475 222 c 0
 475 190 451 123 451 100 c 0
 451 58 481 36 516 36 c 0
 540 36 580 58 580 100 c 0
 580 138 558 190 558 222 c 0
 558 282 573 337 603 381 c 0
EndSplineSet
Ligature2: "LigatureSubstitutionlookup169 subtable" u100F_u100B u103C
Ligature2: "LigatureSubstitutionlookup167 subtable" u100F_u100B u103C u1031
Ligature2: "LigatureSubstitutionlookup167 subtable" u100F_u100B u103C.wide u1031
Ligature2: "LigatureSubstitutionlookup167 subtable" u100F_u100B u103C_u103D.narr u1031
Ligature2: "LigatureSubstitutionlookup167 subtable" u100F_u100B u103C_u103D.wide u1031
Ligature2: "LigatureSubstitutionlookup165 subtable" u100F_u100B u103C
Ligature2: "LigatureSubstitutionlookup165 subtable" u100F_u100B u103C_u103D.narr
Ligature2: "LigatureSubstitutionlookup165 subtable" u100F_u100B u103C_u102F.narr
Ligature2: "LigatureSubstitutionlookup163 subtable" u100F_u100B u1031
Ligature2: "LigatureSubstitutionlookup163 subtable" u100F_u100B u1084
Ligature2: "LigatureSubstitutionlookup162 subtable" u100F_u100B u103D
Ligature2: "LigatureSubstitutionlookup162 subtable" u100F_u100B u103E
Ligature2: "LigatureSubstitutionlookup162 subtable" u100F_u100B u103D_u103E
Ligature2: "LigatureSubstitutionlookup162 subtable" u100F_u100B
Ligature2: "LigatureSubstitutionlookup162 subtable" u100F_u100B u105F
Ligature2: "LigatureSubstitutionlookup162 subtable" u100F_u100B u1060
Ligature2: "LigatureSubstitutionlookup162 subtable" u100F_u100B u1082
Ligature2: "LigatureSubstitutionlookup158 subtable" u100F_u100B u1039
Ligature2: "LigatureSubstitutionlookup130 subtable" u1004.kinzi u200D u100F_u100B
Ligature2: "LigatureSubstitutionlookup130 subtable" u101B.kinzi u200D u100F_u100B
Ligature2: "LigatureSubstitutionlookup127 subtable" u1004.kinzi u200D u100F_u100B
Ligature2: "LigatureSubstitutionlookup127 subtable" u101B.kinzi u200D u100F_u100B
Ligature2: "LigatureSubstitutionlookup124 subtable" u1004.kinzi u200D u100F_u100B
Ligature2: "LigatureSubstitutionlookup124 subtable" u101B.kinzi u200D u100F_u100B
Ligature2: "sub_ligature_cligmymr_4 subtable" u100F u100B.med
MultipleSubs2: "MultipleSubstitutionlookup139 subtable" u200C u1031 u100F_u100B
MultipleSubs2: "MultipleSubstitutionlookup137 subtable" u200C u1084 u100F_u100B
MultipleSubs2: "MultipleSubstitutionlookup129 subtable" u100F_u100B u101B.kinzi
MultipleSubs2: "MultipleSubstitutionlookup128 subtable" u100F_u100B u1004.kinzi
Comment: "GDL_order: 1+AAoA-mark: 80+AAoA" 
EndChar

StartChar: u100F_u100D
Encoding: 149 -1 147
Width: 1032
VWidth: 0
GlyphClass: 2
Flags: HW
AnchorPoint: "R" 0 0 mark 0
AnchorPoint: "BS" -30 -53 basechar 0
AnchorPoint: "LL" 30 -53 basechar 0
AnchorPoint: "L" 965 -53 basechar 0
AnchorPoint: "U" 759 495 basechar 0
AnchorPoint: "BD" -30 -53 basechar 0
LayerCount: 2
Fore
SplineSet
873 -171 m 0
 628 -171 l 0
 642 -204 648 -240 648 -281 c 0
 648 -342 628 -398 595 -450 c 0
 433 -450 l 0
 414 -417 l 0
 468 -387 499 -335 499 -281 c 0
 499 -201 435 -137 355 -137 c 0
 276 -137 213 -201 213 -281 c 0
 213 -335 244 -387 298 -417 c 0
 279 -450 l 0
 208 -422 174 -347 174 -281 c 0
 174 -179 255 -98 355 -98 c 0
 457 -98 538 -179 538 -281 c 0
 538 -327 523 -375 489 -411 c 0
 573 -411 l 0
 595 -371 609 -327 609 -281 c 0
 609 -227 595 -182 565 -132 c 0
 834 -132 l 0
 834 -77 l 0
 873 -77 l 0
 873 -171 l 0
976 222 m 0
 976 91 901 -15 774 -15 c 0
 756 -15 733 -11 718 0 c 0
 739 45 l 0
 750 39 762 36 774 36 c 0
 874 36 925 120 925 222 c 0
 925 324 858 408 759 408 c 0
 658 408 609 324 609 222 c 0
 609 163 631 147 631 100 c 0
 631 37 588 -15 516 -15 c 0
 450 -15 400 37 400 100 c 0
 400 147 424 163 424 222 c 0
 424 324 373 408 273 408 c 0
 174 408 106 324 106 222 c 0
 106 120 157 36 258 36 c 0
 276 36 286 39 295 45 c 0
 313 0 l 0
 298 -11 276 -15 258 -15 c 0
 130 -15 55 91 55 222 c 0
 55 351 144 459 273 459 c 0
 319 459 360 444 391 420 c 0
 418 445 454 459 516 459 c 0
 576 459 613 445 640 420 c 0
 673 444 712 459 759 459 c 0
 886 459 976 351 976 222 c 0
603 381 m 0
 580 396 550 408 516 408 c 0
 483 408 451 396 429 381 c 0
 459 337 475 282 475 222 c 0
 475 190 451 123 451 100 c 0
 451 58 481 36 516 36 c 0
 540 36 580 58 580 100 c 0
 580 138 558 190 558 222 c 0
 558 282 573 337 603 381 c 0
EndSplineSet
Ligature2: "LigatureSubstitutionlookup169 subtable" u100F_u100D u103C
Ligature2: "LigatureSubstitutionlookup167 subtable" u100F_u100D u103C u1031
Ligature2: "LigatureSubstitutionlookup167 subtable" u100F_u100D u103C.wide u1031
Ligature2: "LigatureSubstitutionlookup167 subtable" u100F_u100D u103C_u103D.narr u1031
Ligature2: "LigatureSubstitutionlookup167 subtable" u100F_u100D u103C_u103D.wide u1031
Ligature2: "LigatureSubstitutionlookup165 subtable" u100F_u100D u103C
Ligature2: "LigatureSubstitutionlookup165 subtable" u100F_u100D u103C_u103D.narr
Ligature2: "LigatureSubstitutionlookup165 subtable" u100F_u100D u103C_u102F.narr
Ligature2: "LigatureSubstitutionlookup163 subtable" u100F_u100D u1031
Ligature2: "LigatureSubstitutionlookup163 subtable" u100F_u100D u1084
Ligature2: "LigatureSubstitutionlookup162 subtable" u100F_u100D u103D
Ligature2: "LigatureSubstitutionlookup162 subtable" u100F_u100D u103E
Ligature2: "LigatureSubstitutionlookup162 subtable" u100F_u100D u103D_u103E
Ligature2: "LigatureSubstitutionlookup162 subtable" u100F_u100D
Ligature2: "LigatureSubstitutionlookup162 subtable" u100F_u100D u105F
Ligature2: "LigatureSubstitutionlookup162 subtable" u100F_u100D u1060
Ligature2: "LigatureSubstitutionlookup162 subtable" u100F_u100D u1082
Ligature2: "LigatureSubstitutionlookup158 subtable" u100F_u100D u1039
Ligature2: "LigatureSubstitutionlookup130 subtable" u1004.kinzi u200D u100F_u100D
Ligature2: "LigatureSubstitutionlookup130 subtable" u101B.kinzi u200D u100F_u100D
Ligature2: "LigatureSubstitutionlookup127 subtable" u1004.kinzi u200D u100F_u100D
Ligature2: "LigatureSubstitutionlookup127 subtable" u101B.kinzi u200D u100F_u100D
Ligature2: "LigatureSubstitutionlookup124 subtable" u1004.kinzi u200D u100F_u100D
Ligature2: "LigatureSubstitutionlookup124 subtable" u101B.kinzi u200D u100F_u100D
Ligature2: "sub_ligature_cligmymr_4 subtable" u100F u100D.med
MultipleSubs2: "MultipleSubstitutionlookup139 subtable" u200C u1031 u100F_u100D
MultipleSubs2: "MultipleSubstitutionlookup137 subtable" u200C u1084 u100F_u100D
MultipleSubs2: "MultipleSubstitutionlookup129 subtable" u100F_u100D u101B.kinzi
MultipleSubs2: "MultipleSubstitutionlookup128 subtable" u100F_u100D u1004.kinzi
Comment: "GDL_order: 1+AAoA-mark: 80+AAoA" 
EndChar

StartChar: u1010
Encoding: 150 4112 148
Width: 997
VWidth: 0
GlyphClass: 2
Flags: HW
AnchorPoint: "R" 0 0 mark 0
AnchorPoint: "BS" 709 -53 basechar 0
AnchorPoint: "L" 709 -53 basechar 0
AnchorPoint: "BD" 501 -53 basechar 0
AnchorPoint: "U" 709 495 basechar 0
LayerCount: 2
Fore
SplineSet
942 222 m 0
 942 91 835 -15 709 -15 c 0
 685 -15 661 -11 639 0 c 0
 660 46 l 0
 676 39 693 36 709 36 c 0
 810 36 891 120 891 222 c 0
 891 324 810 408 709 408 c 0
 586 408 520 264 520 208 c 0
 520 124 439 -15 289 -15 c 0
 157 -15 55 91 55 222 c 0
 55 351 159 459 286 459 c 0
 382 459 465 400 501 316 c 0
 543 396 624 459 709 459 c 0
 835 459 942 351 942 222 c 0
469 217 m 0
 469 321 393 408 289 408 c 0
 187 408 106 324 106 222 c 0
 106 120 187 36 286 36 c 0
 394 36 469 127 469 217 c 0
EndSplineSet
Substitution2: "sub_single_cligmymr_2 subtable" u1010.kham
Ligature2: "LigatureSubstitutionlookup169 subtable" u1010 u103C
Ligature2: "LigatureSubstitutionlookup167 subtable" u1010 u103C u1031
Ligature2: "LigatureSubstitutionlookup167 subtable" u1010 u103C.wide u1031
Ligature2: "LigatureSubstitutionlookup167 subtable" u1010 u103C_u103D.narr u1031
Ligature2: "LigatureSubstitutionlookup167 subtable" u1010 u103C_u103D.wide u1031
Ligature2: "LigatureSubstitutionlookup165 subtable" u1010 u103C
Ligature2: "LigatureSubstitutionlookup165 subtable" u1010 u103C_u103D.narr
Ligature2: "LigatureSubstitutionlookup165 subtable" u1010 u103C_u102F.narr
Ligature2: "LigatureSubstitutionlookup163 subtable" u1010 u1031
Ligature2: "LigatureSubstitutionlookup163 subtable" u1010 u1084
Ligature2: "LigatureSubstitutionlookup162 subtable" u1010 u103D
Ligature2: "LigatureSubstitutionlookup162 subtable" u1010 u103E
Ligature2: "LigatureSubstitutionlookup162 subtable" u1010 u103D_u103E
Ligature2: "LigatureSubstitutionlookup162 subtable" u1010
Ligature2: "LigatureSubstitutionlookup162 subtable" u1010 u105F
Ligature2: "LigatureSubstitutionlookup162 subtable" u1010 u1060
Ligature2: "LigatureSubstitutionlookup162 subtable" u1010 u1082
Ligature2: "LigatureSubstitutionlookup158 subtable" u1010 u1039
Ligature2: "LigatureSubstitutionlookup130 subtable" u1004.kinzi u200D u1010
Ligature2: "LigatureSubstitutionlookup130 subtable" u101B.kinzi u200D u1010
Ligature2: "LigatureSubstitutionlookup127 subtable" u1004.kinzi u200D u1010
Ligature2: "LigatureSubstitutionlookup127 subtable" u101B.kinzi u200D u1010
Ligature2: "LigatureSubstitutionlookup124 subtable" u1004.kinzi u200D u1010
Ligature2: "LigatureSubstitutionlookup124 subtable" u101B.kinzi u200D u1010
MultipleSubs2: "MultipleSubstitutionlookup139 subtable" u200C u1031 u1010
MultipleSubs2: "MultipleSubstitutionlookup137 subtable" u200C u1084 u1010
MultipleSubs2: "MultipleSubstitutionlookup136 subtable" u200C u103C_u103D.wide u1010
MultipleSubs2: "MultipleSubstitutionlookup135 subtable" u200C u103C_u102F.wide u1010
MultipleSubs2: "MultipleSubstitutionlookup134 subtable" u200C u103C.wide u1010
MultipleSubs2: "MultipleSubstitutionlookup129 subtable" u1010 u101B.kinzi
MultipleSubs2: "MultipleSubstitutionlookup128 subtable" u1010 u1004.kinzi
Comment: "GDL_order: 1+AAoA-mark: 80+AAoA" 
EndChar

StartChar: u1010.med
Encoding: 151 -1 149
Width: 0
VWidth: 0
GlyphClass: 4
Flags: HW
AnchorPoint: "LLM" -867 -53 basemark 0
AnchorPoint: "BD" -379 -53 mark 0
AnchorPoint: "BSM" 104 -53 basemark 0
AnchorPoint: "LM" 104 -53 basemark 0
AnchorPoint: "BSM" -379 -53 mark 0
AnchorPoint: "BDM" -379 -53 mark 0
AnchorPoint: "BDM" 384 -53 basemark 0
LayerCount: 2
Fore
SplineSet
-40 -267 m 0
 -40 -369 -121 -450 -219 -450 c 0
 -238 -450 -258 -447 -274 -438 c 0
 -258 -402 l 0
 -246 -410 -231 -410 -219 -410 c 0
 -142 -410 -79 -345 -79 -267 c 0
 -79 -189 -142 -125 -219 -125 c 0
 -310 -125 -364 -232 -364 -277 c 0
 -364 -328 -420 -450 -544 -450 c 0
 -643 -450 -723 -369 -723 -267 c 0
 -723 -165 -643 -84 -544 -84 c 0
 -471 -84 -408 -129 -379 -194 c 0
 -345 -132 -285 -84 -219 -84 c 0
 -121 -84 -40 -165 -40 -267 c 0
-405 -270 m 0
 -405 -191 -462 -125 -544 -125 c 0
 -622 -125 -684 -189 -684 -267 c 0
 -684 -345 -622 -410 -544 -410 c 0
 -460 -410 -405 -339 -405 -270 c 0
EndSplineSet
Ligature2: "LigatureSubstitutionlookup179 subtable" u1010.med u102D
Ligature2: "LigatureSubstitutionlookup179 subtable" u1010.med u102E
Ligature2: "LigatureSubstitutionlookup179 subtable" u1010.med u1032
Ligature2: "LigatureSubstitutionlookup179 subtable" u1010.med u103A
Ligature2: "LigatureSubstitutionlookup171 subtable" u1010.med u103C u1031
Ligature2: "LigatureSubstitutionlookup159 subtable" u1010.med u1031
Ligature2: "LigatureSubstitutionlookup159 subtable" u1010.med u103C
Ligature2: "sub_ligature_cligmymr_0 subtable" u1039 u1010
MultipleSubs2: "MultipleSubstitutionlookup138 subtable" u1039 u1010.med
Comment: "GDL_order: 2+AAoA-mark: 80+AAoA" 
EndChar

StartChar: u1010_u103D.med
Encoding: 152 -1 150
Width: 0
VWidth: 0
GlyphClass: 4
Flags: HW
AnchorPoint: "BS" -231 -53 mark 0
AnchorPoint: "LLM" -553 -53 basemark 0
AnchorPoint: "BSM" -231 -53 mark 0
AnchorPoint: "LM" 89 -53 basemark 0
AnchorPoint: "BSM" 235 -53 basemark 0
LayerCount: 2
Fore
SplineSet
-66 -363 m 0
 -66 -410 -103 -450 -151 -450 c 0
 -201 -450 -238 -410 -238 -362 c 0
 -238 -314 -201 -272 -151 -272 c 0
 -99 -272 -66 -315 -66 -363 c 0
-94 -363 m 0
 -94 -332 -123 -300 -151 -300 c 0
 -181 -300 -210 -327 -210 -362 c 0
 -210 -396 -183 -422 -151 -422 c 0
 -121 -422 -94 -393 -94 -363 c 0
-55 -153 m 0
 -55 -206 -97 -251 -151 -251 c 0
 -163 -251 -172 -250 -180 -246 c 0
 -168 -217 l 0
 -162 -219 -157 -219 -151 -219 c 0
 -117 -219 -88 -188 -88 -153 c 0
 -88 -119 -117 -84 -151 -84 c 0
 -186 -84 -214 -123 -214 -152 c 0
 -214 -204 -253 -249 -312 -249 c 0
 -366 -249 -409 -204 -409 -150 c 0
 -409 -98 -366 -51 -312 -51 c 0
 -277 -51 -249 -69 -231 -98 c 0
 -213 -69 -186 -53 -151 -53 c 0
 -96 -53 -55 -101 -55 -153 c 0
-244 -152 m 0
 -244 -117 -277 -83 -312 -83 c 0
 -346 -83 -376 -116 -376 -150 c 0
 -376 -185 -346 -218 -312 -218 c 0
 -277 -218 -244 -186 -244 -152 c 0
EndSplineSet
Substitution2: "sub_single_cligmymr_4 subtable" u1010_u103D.med.tri
Ligature2: "sub_ligature_cligmymr_4 subtable" u1010.med u103D
Ligature2: "sub_ligature_cligmymr_4 subtable" u1039 u1010 u103D
Comment: "GDL_order: 2+AAoA-mark: 80+AAoA" 
EndChar

StartChar: u1011
Encoding: 153 4113 151
Width: 990
VWidth: 0
GlyphClass: 2
Flags: HW
AnchorPoint: "R" 0 0 mark 0
AnchorPoint: "BS" 702 -53 basechar 0
AnchorPoint: "L" 702 -53 basechar 0
AnchorPoint: "BD" 495 -53 basechar 0
AnchorPoint: "U" 702 495 basechar 0
LayerCount: 2
Fore
SplineSet
934 222 m 0
 934 91 828 -15 702 -15 c 0
 612 -15 532 37 495 114 c 0
 454 37 379 -15 289 -15 c 0
 157 -15 55 91 55 222 c 0
 55 351 159 459 286 459 c 0
 378 459 454 406 495 330 c 0
 532 406 612 459 702 459 c 0
 828 459 934 351 934 222 c 0
883 222 m 0
 883 324 802 408 702 408 c 0
 601 408 520 324 520 222 c 0
 520 120 601 36 702 36 c 0
 802 36 883 120 883 222 c 0
469 222 m 0
 469 324 388 408 289 408 c 0
 187 408 106 324 106 222 c 0
 106 120 187 36 286 36 c 0
 388 36 469 120 469 222 c 0
EndSplineSet
Ligature2: "LigatureSubstitutionlookup169 subtable" u1011 u103C
Ligature2: "LigatureSubstitutionlookup167 subtable" u1011 u103C u1031
Ligature2: "LigatureSubstitutionlookup167 subtable" u1011 u103C.wide u1031
Ligature2: "LigatureSubstitutionlookup167 subtable" u1011 u103C_u103D.narr u1031
Ligature2: "LigatureSubstitutionlookup167 subtable" u1011 u103C_u103D.wide u1031
Ligature2: "LigatureSubstitutionlookup165 subtable" u1011 u103C
Ligature2: "LigatureSubstitutionlookup165 subtable" u1011 u103C_u103D.narr
Ligature2: "LigatureSubstitutionlookup165 subtable" u1011 u103C_u102F.narr
Ligature2: "LigatureSubstitutionlookup163 subtable" u1011 u1031
Ligature2: "LigatureSubstitutionlookup163 subtable" u1011 u1084
Ligature2: "LigatureSubstitutionlookup162 subtable" u1011 u103D
Ligature2: "LigatureSubstitutionlookup162 subtable" u1011 u103E
Ligature2: "LigatureSubstitutionlookup162 subtable" u1011 u103D_u103E
Ligature2: "LigatureSubstitutionlookup162 subtable" u1011
Ligature2: "LigatureSubstitutionlookup162 subtable" u1011 u105F
Ligature2: "LigatureSubstitutionlookup162 subtable" u1011 u1060
Ligature2: "LigatureSubstitutionlookup162 subtable" u1011 u1082
Ligature2: "LigatureSubstitutionlookup158 subtable" u1011 u1039
Ligature2: "LigatureSubstitutionlookup130 subtable" u1004.kinzi u200D u1011
Ligature2: "LigatureSubstitutionlookup130 subtable" u101B.kinzi u200D u1011
Ligature2: "LigatureSubstitutionlookup127 subtable" u1004.kinzi u200D u1011
Ligature2: "LigatureSubstitutionlookup127 subtable" u101B.kinzi u200D u1011
Ligature2: "LigatureSubstitutionlookup124 subtable" u1004.kinzi u200D u1011
Ligature2: "LigatureSubstitutionlookup124 subtable" u101B.kinzi u200D u1011
MultipleSubs2: "MultipleSubstitutionlookup139 subtable" u200C u1031 u1011
MultipleSubs2: "MultipleSubstitutionlookup137 subtable" u200C u1084 u1011
MultipleSubs2: "MultipleSubstitutionlookup136 subtable" u200C u103C_u103D.wide u1011
MultipleSubs2: "MultipleSubstitutionlookup135 subtable" u200C u103C_u102F.wide u1011
MultipleSubs2: "MultipleSubstitutionlookup134 subtable" u200C u103C.wide u1011
MultipleSubs2: "MultipleSubstitutionlookup129 subtable" u1011 u101B.kinzi
MultipleSubs2: "MultipleSubstitutionlookup128 subtable" u1011 u1004.kinzi
Comment: "GDL_order: 1+AAoA-mark: 80+AAoA" 
EndChar

StartChar: u1011.med
Encoding: 154 -1 152
Width: 0
VWidth: 0
GlyphClass: 4
Flags: HW
AnchorPoint: "LLM" 88 -53 basemark 0
AnchorPoint: "BD" -395 -53 mark 0
AnchorPoint: "BSM" 88 -53 basemark 0
AnchorPoint: "LM" -878 -53 basemark 0
AnchorPoint: "BSM" -395 -53 mark 0
AnchorPoint: "BDM" -395 -53 mark 0
AnchorPoint: "BDM" -395 -53 basemark 0
LayerCount: 2
Fore
SplineSet
-56 -267 m 0
 -56 -369 -138 -450 -236 -450 c 0
 -306 -450 -365 -408 -395 -350 c 0
 -425 -408 -483 -450 -554 -450 c 0
 -653 -450 -734 -369 -734 -267 c 0
 -734 -165 -653 -84 -554 -84 c 0
 -483 -84 -425 -126 -395 -185 c 0
 -365 -126 -306 -84 -236 -84 c 0
 -138 -84 -56 -165 -56 -267 c 0
-101 -267 m 0
 -101 -189 -162 -125 -240 -125 c 0
 -318 -125 -380 -189 -380 -267 c 0
 -380 -345 -318 -410 -240 -410 c 0
 -162 -410 -101 -345 -101 -267 c 0
-414 -267 m 0
 -414 -189 -477 -125 -554 -125 c 0
 -632 -125 -695 -189 -695 -267 c 0
 -695 -345 -632 -410 -554 -410 c 0
 -477 -410 -414 -345 -414 -267 c 0
EndSplineSet
Ligature2: "LigatureSubstitutionlookup179 subtable" u1011.med u102D
Ligature2: "LigatureSubstitutionlookup179 subtable" u1011.med u102E
Ligature2: "LigatureSubstitutionlookup179 subtable" u1011.med u1032
Ligature2: "LigatureSubstitutionlookup179 subtable" u1011.med u103A
Ligature2: "LigatureSubstitutionlookup171 subtable" u1011.med u103C u1031
Ligature2: "LigatureSubstitutionlookup159 subtable" u1011.med u1031
Ligature2: "LigatureSubstitutionlookup159 subtable" u1011.med u103C
Ligature2: "sub_ligature_cligmymr_0 subtable" u1039 u1011
MultipleSubs2: "MultipleSubstitutionlookup138 subtable" u1039 u1011.med
Comment: "GDL_order: 2+AAoA-mark: 80+AAoA" 
EndChar

StartChar: u1012
Encoding: 155 4114 153
Width: 534
VWidth: 0
GlyphClass: 2
Flags: HW
AnchorPoint: "R" 0 0 mark 0
AnchorPoint: "BS" 267 -53 basechar 0
AnchorPoint: "L" 267 -53 basechar 0
AnchorPoint: "U" 267 495 basechar 0
AnchorPoint: "BD" 267 -53 basechar 0
LayerCount: 2
Fore
SplineSet
478 123 m 0
 478 46 415 -15 267 -15 c 0
 129 -15 55 39 55 115 c 0
 102 133 l 0
 102 66 165 37 267 36 c 0
 345 36 427 57 427 123 c 0
 427 181 333 192 286 196 c 0
 286 247 l 0
 333 252 427 262 427 321 c 0
 427 387 345 408 267 408 c 0
 165 408 102 378 102 310 c 0
 55 328 l 0
 55 405 129 459 267 459 c 0
 415 459 478 397 478 321 c 0
 478 274 447 232 394 222 c 0
 447 211 478 169 478 123 c 0
EndSplineSet
Position2: "SinglePositioninglookup48 per glyph data 0" dx=100 dy=0 dh=50 dv=0
Position2: "SinglePositioninglookup30 subtable" dx=140 dy=0 dh=140 dv=0
PairPos2: "PairwisePositioningkerninglooku subtable" uAA60.med.kham dx=-90 dy=0 dh=0 dv=0 dx=0 dy=0 dh=90 dv=0
PairPos2: "PairwisePositioningkerninglooku subtable" uAA60.med dx=-90 dy=0 dh=0 dv=0 dx=0 dy=0 dh=90 dv=0
PairPos2: "PairwisePositioningkerninglooku subtable" u1021.med dx=-90 dy=0 dh=0 dv=0 dx=0 dy=0 dh=90 dv=0
PairPos2: "PairwisePositioningkerninglooku subtable" u101E.med dx=-90 dy=0 dh=0 dv=0 dx=0 dy=0 dh=90 dv=0
PairPos2: "PairwisePositioningkerninglooku subtable" u101C.med dx=-90 dy=0 dh=0 dv=0 dx=0 dy=0 dh=90 dv=0
PairPos2: "PairwisePositioningkerninglooku subtable" u101A.med dx=-90 dy=0 dh=0 dv=0 dx=0 dy=0 dh=90 dv=0
PairPos2: "PairwisePositioningkerninglooku subtable" u1018.med dx=-90 dy=0 dh=0 dv=0 dx=0 dy=0 dh=90 dv=0
PairPos2: "PairwisePositioningkerninglooku subtable" u1011.med dx=-90 dy=0 dh=0 dv=0 dx=0 dy=0 dh=90 dv=0
PairPos2: "PairwisePositioningkerninglooku subtable" u1010.med dx=-90 dy=0 dh=0 dv=0 dx=0 dy=0 dh=90 dv=0
PairPos2: "PairwisePositioningkerninglooku subtable" u100F.med dx=-90 dy=0 dh=0 dv=0 dx=0 dy=0 dh=90 dv=0
PairPos2: "PairwisePositioningkerninglooku subtable" u100C.med dx=-90 dy=0 dh=0 dv=0 dx=0 dy=0 dh=90 dv=0
PairPos2: "PairwisePositioningkerninglooku subtable" u100A.med dx=-90 dy=0 dh=0 dv=0 dx=0 dy=0 dh=90 dv=0
PairPos2: "PairwisePositioningkerninglooku subtable" u1006.med dx=-90 dy=0 dh=0 dv=0 dx=0 dy=0 dh=90 dv=0
PairPos2: "PairwisePositioningkerninglooku subtable" u1003.med dx=-90 dy=0 dh=0 dv=0 dx=0 dy=0 dh=90 dv=0
PairPos2: "PairwisePositioningkerninglooku subtable" u1000.med dx=-90 dy=0 dh=0 dv=0 dx=0 dy=0 dh=90 dv=0
Ligature2: "LigatureSubstitutionlookup169 subtable" u1012 u103C
Ligature2: "LigatureSubstitutionlookup167 subtable" u1012 u103C u1031
Ligature2: "LigatureSubstitutionlookup167 subtable" u1012 u103C.wide u1031
Ligature2: "LigatureSubstitutionlookup167 subtable" u1012 u103C_u103D.narr u1031
Ligature2: "LigatureSubstitutionlookup167 subtable" u1012 u103C_u103D.wide u1031
Ligature2: "LigatureSubstitutionlookup165 subtable" u1012 u103C
Ligature2: "LigatureSubstitutionlookup165 subtable" u1012 u103C_u103D.narr
Ligature2: "LigatureSubstitutionlookup165 subtable" u1012 u103C_u102F.narr
Ligature2: "LigatureSubstitutionlookup163 subtable" u1012 u1031
Ligature2: "LigatureSubstitutionlookup163 subtable" u1012 u1084
Ligature2: "LigatureSubstitutionlookup162 subtable" u1012 u103D
Ligature2: "LigatureSubstitutionlookup162 subtable" u1012 u103E
Ligature2: "LigatureSubstitutionlookup162 subtable" u1012 u103D_u103E
Ligature2: "LigatureSubstitutionlookup162 subtable" u1012
Ligature2: "LigatureSubstitutionlookup162 subtable" u1012 u105F
Ligature2: "LigatureSubstitutionlookup162 subtable" u1012 u1060
Ligature2: "LigatureSubstitutionlookup162 subtable" u1012 u1082
Ligature2: "LigatureSubstitutionlookup158 subtable" u1012 u1039
Ligature2: "LigatureSubstitutionlookup130 subtable" u1004.kinzi u200D u1012
Ligature2: "LigatureSubstitutionlookup130 subtable" u101B.kinzi u200D u1012
Ligature2: "LigatureSubstitutionlookup127 subtable" u1004.kinzi u200D u1012
Ligature2: "LigatureSubstitutionlookup127 subtable" u101B.kinzi u200D u1012
Ligature2: "LigatureSubstitutionlookup124 subtable" u1004.kinzi u200D u1012
Ligature2: "LigatureSubstitutionlookup124 subtable" u101B.kinzi u200D u1012
MultipleSubs2: "MultipleSubstitutionlookup139 subtable" u200C u1031 u1012
MultipleSubs2: "MultipleSubstitutionlookup137 subtable" u200C u1084 u1012
MultipleSubs2: "MultipleSubstitutionlookup136 subtable" u200C u103C_u103D.narr u1012
MultipleSubs2: "MultipleSubstitutionlookup135 subtable" u200C u103C_u102F.narr u1012
MultipleSubs2: "MultipleSubstitutionlookup134 subtable" u200C u103C u1012
MultipleSubs2: "MultipleSubstitutionlookup129 subtable" u1012 u101B.kinzi
MultipleSubs2: "MultipleSubstitutionlookup128 subtable" u1012 u1004.kinzi
Comment: "GDL_order: 1+AAoA-mark: 80+AAoA" 
EndChar

StartChar: u1012.med
Encoding: 156 -1 154
Width: 0
VWidth: 0
GlyphClass: 4
Flags: HW
AnchorPoint: "BS" -225 -53 mark 0
AnchorPoint: "LLM" -533 -53 basemark 0
AnchorPoint: "BSM" -225 -53 mark 0
AnchorPoint: "LM" 82 -53 basemark 0
AnchorPoint: "BSM" 219 -53 basemark 0
LayerCount: 2
Fore
SplineSet
-62 -344 m 0
 -62 -402 -111 -450 -225 -450 c 0
 -332 -450 -389 -408 -389 -350 c 0
 -353 -335 l 0
 -353 -387 -305 -410 -225 -411 c 0
 -165 -411 -102 -396 -101 -344 c 0
 -101 -300 -176 -291 -210 -287 c 0
 -210 -248 l 0
 -176 -248 -101 -234 -101 -191 c 0
 -102 -138 -165 -123 -225 -123 c 0
 -305 -123 -353 -147 -353 -200 c 0
 -389 -185 l 0
 -389 -126 -332 -84 -225 -84 c 0
 -111 -84 -62 -131 -62 -191 c 0
 -62 -227 -87 -260 -128 -267 c 0
 -87 -273 -62 -308 -62 -344 c 0
EndSplineSet
Ligature2: "LigatureSubstitutionlookup179 subtable" u1012.med u102D
Ligature2: "LigatureSubstitutionlookup179 subtable" u1012.med u102E
Ligature2: "LigatureSubstitutionlookup179 subtable" u1012.med u1032
Ligature2: "LigatureSubstitutionlookup179 subtable" u1012.med u103A
Ligature2: "LigatureSubstitutionlookup171 subtable" u1012.med u103C u1031
Ligature2: "LigatureSubstitutionlookup159 subtable" u1012.med u1031
Ligature2: "LigatureSubstitutionlookup159 subtable" u1012.med u103C
Ligature2: "sub_ligature_cligmymr_0 subtable" u1039 u1012
MultipleSubs2: "MultipleSubstitutionlookup138 subtable" u1039 u1012.med
Comment: "GDL_order: 2+AAoA-mark: 80+AAoA" 
EndChar

StartChar: u1013
Encoding: 157 4115 155
Width: 576
VWidth: 0
GlyphClass: 2
Flags: HW
AnchorPoint: "R" 0 0 mark 0
AnchorPoint: "BS" 288 -53 basechar 0
AnchorPoint: "L" 288 -53 basechar 0
AnchorPoint: "U" 288 495 basechar 0
AnchorPoint: "BD" 288 -53 basechar 0
LayerCount: 2
Fore
SplineSet
520 222 m 0
 520 91 417 -15 289 -15 c 0
 157 -15 55 91 55 222 c 0
 55 351 158 459 286 459 c 0
 418 459 520 351 520 222 c 0
469 222 m 0
 469 323 388 408 289 408 c 0
 187 408 106 323 106 222 c 0
 106 197 111 174 120 153 c 0
 172 205 234 222 286 222 c 0
 342 222 404 205 456 153 c 0
 465 175 469 198 469 222 c 0
430 108 m 0
 378 160 324 171 289 171 c 0
 256 171 200 158 145 106 c 0
 180 62 230 36 286 36 c 0
 345 36 397 64 430 108 c 0
EndSplineSet
Position2: "SinglePositioninglookup48 per glyph data 0" dx=100 dy=0 dh=50 dv=0
Position2: "SinglePositioninglookup30 subtable" dx=140 dy=0 dh=140 dv=0
PairPos2: "PairwisePositioningkerninglooku subtable" uAA60.med.kham dx=-90 dy=0 dh=0 dv=0 dx=0 dy=0 dh=90 dv=0
PairPos2: "PairwisePositioningkerninglooku subtable" uAA60.med dx=-90 dy=0 dh=0 dv=0 dx=0 dy=0 dh=90 dv=0
PairPos2: "PairwisePositioningkerninglooku subtable" u1021.med dx=-90 dy=0 dh=0 dv=0 dx=0 dy=0 dh=90 dv=0
PairPos2: "PairwisePositioningkerninglooku subtable" u101E.med dx=-90 dy=0 dh=0 dv=0 dx=0 dy=0 dh=90 dv=0
PairPos2: "PairwisePositioningkerninglooku subtable" u101C.med dx=-90 dy=0 dh=0 dv=0 dx=0 dy=0 dh=90 dv=0
PairPos2: "PairwisePositioningkerninglooku subtable" u101A.med dx=-90 dy=0 dh=0 dv=0 dx=0 dy=0 dh=90 dv=0
PairPos2: "PairwisePositioningkerninglooku subtable" u1018.med dx=-90 dy=0 dh=0 dv=0 dx=0 dy=0 dh=90 dv=0
PairPos2: "PairwisePositioningkerninglooku subtable" u1011.med dx=-90 dy=0 dh=0 dv=0 dx=0 dy=0 dh=90 dv=0
PairPos2: "PairwisePositioningkerninglooku subtable" u1010.med dx=-90 dy=0 dh=0 dv=0 dx=0 dy=0 dh=90 dv=0
PairPos2: "PairwisePositioningkerninglooku subtable" u100F.med dx=-90 dy=0 dh=0 dv=0 dx=0 dy=0 dh=90 dv=0
PairPos2: "PairwisePositioningkerninglooku subtable" u100C.med dx=-90 dy=0 dh=0 dv=0 dx=0 dy=0 dh=90 dv=0
PairPos2: "PairwisePositioningkerninglooku subtable" u100A.med dx=-90 dy=0 dh=0 dv=0 dx=0 dy=0 dh=90 dv=0
PairPos2: "PairwisePositioningkerninglooku subtable" u1006.med dx=-90 dy=0 dh=0 dv=0 dx=0 dy=0 dh=90 dv=0
PairPos2: "PairwisePositioningkerninglooku subtable" u1003.med dx=-90 dy=0 dh=0 dv=0 dx=0 dy=0 dh=90 dv=0
PairPos2: "PairwisePositioningkerninglooku subtable" u1000.med dx=-90 dy=0 dh=0 dv=0 dx=0 dy=0 dh=90 dv=0
Ligature2: "LigatureSubstitutionlookup169 subtable" u1013 u103C
Ligature2: "LigatureSubstitutionlookup167 subtable" u1013 u103C u1031
Ligature2: "LigatureSubstitutionlookup167 subtable" u1013 u103C.wide u1031
Ligature2: "LigatureSubstitutionlookup167 subtable" u1013 u103C_u103D.narr u1031
Ligature2: "LigatureSubstitutionlookup167 subtable" u1013 u103C_u103D.wide u1031
Ligature2: "LigatureSubstitutionlookup165 subtable" u1013 u103C
Ligature2: "LigatureSubstitutionlookup165 subtable" u1013 u103C_u103D.narr
Ligature2: "LigatureSubstitutionlookup165 subtable" u1013 u103C_u102F.narr
Ligature2: "LigatureSubstitutionlookup163 subtable" u1013 u1031
Ligature2: "LigatureSubstitutionlookup163 subtable" u1013 u1084
Ligature2: "LigatureSubstitutionlookup162 subtable" u1013 u103D
Ligature2: "LigatureSubstitutionlookup162 subtable" u1013 u103E
Ligature2: "LigatureSubstitutionlookup162 subtable" u1013 u103D_u103E
Ligature2: "LigatureSubstitutionlookup162 subtable" u1013
Ligature2: "LigatureSubstitutionlookup162 subtable" u1013 u105F
Ligature2: "LigatureSubstitutionlookup162 subtable" u1013 u1060
Ligature2: "LigatureSubstitutionlookup162 subtable" u1013 u1082
Ligature2: "LigatureSubstitutionlookup158 subtable" u1013 u1039
Ligature2: "LigatureSubstitutionlookup130 subtable" u1004.kinzi u200D u1013
Ligature2: "LigatureSubstitutionlookup130 subtable" u101B.kinzi u200D u1013
Ligature2: "LigatureSubstitutionlookup127 subtable" u1004.kinzi u200D u1013
Ligature2: "LigatureSubstitutionlookup127 subtable" u101B.kinzi u200D u1013
Ligature2: "LigatureSubstitutionlookup124 subtable" u1004.kinzi u200D u1013
Ligature2: "LigatureSubstitutionlookup124 subtable" u101B.kinzi u200D u1013
MultipleSubs2: "MultipleSubstitutionlookup139 subtable" u200C u1031 u1013
MultipleSubs2: "MultipleSubstitutionlookup137 subtable" u200C u1084 u1013
MultipleSubs2: "MultipleSubstitutionlookup136 subtable" u200C u103C_u103D.narr u1013
MultipleSubs2: "MultipleSubstitutionlookup135 subtable" u200C u103C_u102F.narr u1013
MultipleSubs2: "MultipleSubstitutionlookup134 subtable" u200C u103C u1013
MultipleSubs2: "MultipleSubstitutionlookup129 subtable" u1013 u101B.kinzi
MultipleSubs2: "MultipleSubstitutionlookup128 subtable" u1013 u1004.kinzi
Comment: "GDL_order: 1+AAoA-mark: 80+AAoA" 
EndChar

StartChar: u1013.med
Encoding: 158 -1 156
Width: 0
VWidth: 0
GlyphClass: 4
Flags: HW
AnchorPoint: "BS" -234 -53 mark 0
AnchorPoint: "LLM" -557 -53 basemark 0
AnchorPoint: "BSM" -234 -53 mark 0
AnchorPoint: "LM" 88 -53 basemark 0
AnchorPoint: "BSM" 234 -53 basemark 0
LayerCount: 2
Fore
SplineSet
-56 -267 m 0
 -56 -369 -137 -450 -234 -450 c 0
 -333 -450 -413 -369 -413 -267 c 0
 -413 -165 -333 -84 -234 -84 c 0
 -137 -84 -56 -165 -56 -267 c 0
-95 -267 m 0
 -95 -189 -158 -125 -234 -125 c 0
 -312 -125 -374 -189 -374 -267 c 0
 -374 -284 -371 -300 -363 -320 c 0
 -323 -279 -276 -266 -234 -266 c 0
 -192 -266 -144 -279 -104 -320 c 0
 -98 -303 -95 -287 -95 -267 c 0
-122 -351 m 0
 -162 -311 -206 -300 -234 -300 c 0
 -263 -300 -303 -311 -345 -351 c 0
 -320 -386 -287 -410 -234 -410 c 0
 -182 -410 -147 -386 -122 -351 c 0
EndSplineSet
Ligature2: "LigatureSubstitutionlookup179 subtable" u1013.med u102D
Ligature2: "LigatureSubstitutionlookup179 subtable" u1013.med u102E
Ligature2: "LigatureSubstitutionlookup179 subtable" u1013.med u1032
Ligature2: "LigatureSubstitutionlookup179 subtable" u1013.med u103A
Ligature2: "LigatureSubstitutionlookup171 subtable" u1013.med u103C u1031
Ligature2: "LigatureSubstitutionlookup159 subtable" u1013.med u1031
Ligature2: "LigatureSubstitutionlookup159 subtable" u1013.med u103C
Ligature2: "sub_ligature_cligmymr_0 subtable" u1039 u1013
MultipleSubs2: "MultipleSubstitutionlookup138 subtable" u1039 u1013.med
Comment: "GDL_order: 2+AAoA-mark: 80+AAoA" 
EndChar

StartChar: u1014
Encoding: 159 4116 157
Width: 530
VWidth: 0
GlyphClass: 2
Flags: HW
AnchorPoint: "R" 12 0 mark 0
AnchorPoint: "BS" 531 -53 basechar 0
AnchorPoint: "L" 480 -53 basechar 0
AnchorPoint: "U" 273 495 basechar 0
AnchorPoint: "BD" 531 -53 basechar 0
LayerCount: 2
Fore
SplineSet
475 145 m 0
 475 54 424 11 330 -8 c 0
 330 -450 l 0
 279 -450 l 0
 279 -15 l 0
 238 -15 l 0
 142 -15 55 6 55 97 c 0
 55 149 108 198 184 198 c 0
 226 198 259 183 284 152 c 0
 309 121 323 85 328 42 c 0
 380 51 424 77 424 145 c 0
 424 268 144 242 144 363 c 0
 144 430 217 459 273 459 c 0
 314 459 352 449 385 421 c 0
 352 382 l 0
 343 390 310 408 273 408 c 0
 239 408 195 397 195 364 c 0
 195 298 475 309 475 145 c 0
277 36 m 0
 268 93 235 147 184 147 c 0
 143 147 106 128 106 97 c 0
 106 41 180 36 238 36 c 0
 277 36 l 0
EndSplineSet
Position2: "SinglePositioninglookup48 per glyph data 0" dx=100 dy=0 dh=50 dv=0
Position2: "SinglePositioninglookup30 subtable" dx=140 dy=0 dh=140 dv=0
PairPos2: "PairwisePositioningkerninglooku subtable" uAA60.med.kham dx=-90 dy=0 dh=0 dv=0 dx=0 dy=0 dh=90 dv=0
PairPos2: "PairwisePositioningkerninglooku subtable" uAA60.med dx=-90 dy=0 dh=0 dv=0 dx=0 dy=0 dh=90 dv=0
PairPos2: "PairwisePositioningkerninglooku subtable" u1021.med dx=-90 dy=0 dh=0 dv=0 dx=0 dy=0 dh=90 dv=0
PairPos2: "PairwisePositioningkerninglooku subtable" u101E.med dx=-90 dy=0 dh=0 dv=0 dx=0 dy=0 dh=90 dv=0
PairPos2: "PairwisePositioningkerninglooku subtable" u101C.med dx=-90 dy=0 dh=0 dv=0 dx=0 dy=0 dh=90 dv=0
PairPos2: "PairwisePositioningkerninglooku subtable" u101A.med dx=-90 dy=0 dh=0 dv=0 dx=0 dy=0 dh=90 dv=0
PairPos2: "PairwisePositioningkerninglooku subtable" u1018.med dx=-90 dy=0 dh=0 dv=0 dx=0 dy=0 dh=90 dv=0
PairPos2: "PairwisePositioningkerninglooku subtable" u1011.med dx=-90 dy=0 dh=0 dv=0 dx=0 dy=0 dh=90 dv=0
PairPos2: "PairwisePositioningkerninglooku subtable" u1010.med dx=-90 dy=0 dh=0 dv=0 dx=0 dy=0 dh=90 dv=0
PairPos2: "PairwisePositioningkerninglooku subtable" u100F.med dx=-90 dy=0 dh=0 dv=0 dx=0 dy=0 dh=90 dv=0
PairPos2: "PairwisePositioningkerninglooku subtable" u100C.med dx=-90 dy=0 dh=0 dv=0 dx=0 dy=0 dh=90 dv=0
PairPos2: "PairwisePositioningkerninglooku subtable" u100A.med dx=-90 dy=0 dh=0 dv=0 dx=0 dy=0 dh=90 dv=0
PairPos2: "PairwisePositioningkerninglooku subtable" u1006.med dx=-90 dy=0 dh=0 dv=0 dx=0 dy=0 dh=90 dv=0
PairPos2: "PairwisePositioningkerninglooku subtable" u1003.med dx=-90 dy=0 dh=0 dv=0 dx=0 dy=0 dh=90 dv=0
PairPos2: "PairwisePositioningkerninglooku subtable" u1000.med dx=-90 dy=0 dh=0 dv=0 dx=0 dy=0 dh=90 dv=0
Substitution2: "SingleSubstitutionlookup143 subtable" u1014.alt
Ligature2: "LigatureSubstitutionlookup169 subtable" u1014 u103C
Ligature2: "LigatureSubstitutionlookup167 subtable" u1014 u103C u1031
Ligature2: "LigatureSubstitutionlookup167 subtable" u1014 u103C.wide u1031
Ligature2: "LigatureSubstitutionlookup167 subtable" u1014 u103C_u103D.narr u1031
Ligature2: "LigatureSubstitutionlookup167 subtable" u1014 u103C_u103D.wide u1031
Ligature2: "LigatureSubstitutionlookup165 subtable" u1014 u103C
Ligature2: "LigatureSubstitutionlookup165 subtable" u1014 u103C_u103D.narr
Ligature2: "LigatureSubstitutionlookup165 subtable" u1014 u103C_u102F.narr
Ligature2: "LigatureSubstitutionlookup163 subtable" u1014 u1031
Ligature2: "LigatureSubstitutionlookup163 subtable" u1014 u1084
Ligature2: "LigatureSubstitutionlookup162 subtable" u1014 u103D
Ligature2: "LigatureSubstitutionlookup162 subtable" u1014 u103E
Ligature2: "LigatureSubstitutionlookup162 subtable" u1014 u103D_u103E
Ligature2: "LigatureSubstitutionlookup162 subtable" u1014
Ligature2: "LigatureSubstitutionlookup162 subtable" u1014 u105F
Ligature2: "LigatureSubstitutionlookup162 subtable" u1014 u1060
Ligature2: "LigatureSubstitutionlookup162 subtable" u1014 u1082
Ligature2: "LigatureSubstitutionlookup158 subtable" u1014 u1039
Ligature2: "LigatureSubstitutionlookup130 subtable" u1004.kinzi u200D u1014
Ligature2: "LigatureSubstitutionlookup130 subtable" u101B.kinzi u200D u1014
Ligature2: "LigatureSubstitutionlookup127 subtable" u1004.kinzi u200D u1014
Ligature2: "LigatureSubstitutionlookup127 subtable" u101B.kinzi u200D u1014
Ligature2: "LigatureSubstitutionlookup124 subtable" u1004.kinzi u200D u1014
Ligature2: "LigatureSubstitutionlookup124 subtable" u101B.kinzi u200D u1014
MultipleSubs2: "MultipleSubstitutionlookup139 subtable" u200C u1031 u1014
MultipleSubs2: "MultipleSubstitutionlookup137 subtable" u200C u1084 u1014
MultipleSubs2: "MultipleSubstitutionlookup136 subtable" u200C u103C_u103D.narr u1014
MultipleSubs2: "MultipleSubstitutionlookup135 subtable" u200C u103C_u102F.narr u1014
MultipleSubs2: "MultipleSubstitutionlookup134 subtable" u200C u103C u1014
MultipleSubs2: "MultipleSubstitutionlookup129 subtable" u1014 u101B.kinzi
MultipleSubs2: "MultipleSubstitutionlookup128 subtable" u1014 u1004.kinzi
Comment: "GDL_order: 1+AAoA-mark: 80+AAoA" 
EndChar

